<svg width="264" height="281" viewBox="0 0 264 281" fill="none" xmlns="http://www.w3.org/2000/svg">
<circle cx="64" cy="64" r="32" fill="#008DA6"/>
<path d="M60.3113 75.719H59.0529C58.9382 75.719 58.8282 75.6734 58.7471 75.5923C58.666 75.5112 58.6205 75.4012 58.6205 75.2865C58.6205 75.1719 58.666 75.0619 58.7471 74.9808C58.8282 74.8997 58.9382 74.8541 59.0529 74.8541H60.3113C60.426 74.8541 60.536 74.8997 60.6171 74.9808C60.6982 75.0619 60.7437 75.1719 60.7437 75.2865C60.7437 75.4012 60.6982 75.5112 60.6171 75.5923C60.536 75.6734 60.426 75.719 60.3113 75.719Z" fill="white"/>
<path d="M77.3232 75.7188H67.6497C67.535 75.7188 67.425 75.6733 67.3439 75.5922C67.2628 75.5111 67.2172 75.4011 67.2172 75.2864C67.2172 75.1717 67.2628 75.0617 67.3439 74.9806C67.425 74.8995 67.535 74.854 67.6497 74.854H77.3232C77.5743 74.8537 77.815 74.7539 77.9926 74.5763C78.1701 74.3988 78.27 74.158 78.2702 73.9069V56.908C78.2699 56.657 78.17 56.4163 77.9925 56.2388C77.8149 56.0612 77.5742 55.9613 77.3232 55.961H50.6767C50.4256 55.9613 50.185 56.0612 50.0074 56.2388C49.8299 56.4163 49.73 56.657 49.7297 56.908V73.9069C49.7299 74.158 49.8298 74.3988 50.0073 74.5763C50.1849 74.7539 50.4256 74.8537 50.6767 74.854H56.0259C56.1406 74.854 56.2506 74.8995 56.3317 74.9806C56.4128 75.0617 56.4583 75.1717 56.4583 75.2864C56.4583 75.4011 56.4128 75.5111 56.3317 75.5922C56.2506 75.6733 56.1406 75.7188 56.0259 75.7188H50.6767C50.1965 75.7177 49.7363 75.5264 49.3968 75.1869C49.0572 74.8473 48.8659 74.3871 48.8648 73.9069V56.908C48.8659 56.4278 49.0572 55.9676 49.3968 55.6281C49.7363 55.2885 50.1965 55.0973 50.6767 55.0961H77.3232C77.8034 55.0973 78.2636 55.2885 78.6031 55.6281C78.9427 55.9676 79.1339 56.4278 79.1351 56.908V73.9069C79.1339 74.3871 78.9427 74.8473 78.6031 75.1869C78.2636 75.5264 77.8034 75.7177 77.3232 75.7188V75.7188Z" fill="white"/>
<path d="M64.6227 75.719H63.3384C63.2237 75.719 63.1137 75.6734 63.0326 75.5923C62.9515 75.5112 62.906 75.4012 62.906 75.2865C62.906 75.1719 62.9515 75.0619 63.0326 74.9808C63.1137 74.8997 63.2237 74.8541 63.3384 74.8541H64.6227C64.7374 74.8541 64.8474 74.8997 64.9285 74.9808C65.0096 75.0619 65.0551 75.1719 65.0551 75.2865C65.0551 75.4012 65.0096 75.5112 64.9285 75.5923C64.8474 75.6734 64.7374 75.719 64.6227 75.719Z" fill="white"/>
<path d="M67.905 55.9611H60.0948C59.9801 55.9611 59.8702 55.9155 59.7891 55.8344C59.708 55.7533 59.6624 55.6433 59.6624 55.5286L59.6672 53.5952C59.6674 53.2469 59.8058 52.9129 60.052 52.6665C60.2982 52.4202 60.6321 52.2815 60.9805 52.2811H67.0297C67.3778 52.2815 67.7115 52.42 67.9576 52.6661C68.2037 52.9122 68.3421 53.2459 68.3426 53.5939L68.3374 55.5286C68.3374 55.6433 68.2919 55.7533 68.2108 55.8344C68.1297 55.9155 68.0197 55.9611 67.905 55.9611ZM60.5286 55.0962H67.4738L67.4777 53.5944C67.4777 53.4755 67.4306 53.3615 67.3465 53.2774C67.2625 53.1933 67.1486 53.146 67.0297 53.1459H60.9805C60.8616 53.146 60.7477 53.1933 60.6636 53.2772C60.5796 53.3612 60.5322 53.4751 60.532 53.5939L60.5286 55.0962Z" fill="white"/>
<path d="M66.9307 64.6918C66.826 64.6918 66.7248 64.6537 66.646 64.5847C66.5671 64.5157 66.5161 64.4204 66.5022 64.3166C66.4884 64.2127 66.5127 64.1074 66.5707 64.0201C66.6286 63.9328 66.7163 63.8696 66.8174 63.8421L78.5887 60.627C78.6994 60.5967 78.8175 60.6116 78.9172 60.6685C79.0169 60.7253 79.0899 60.8194 79.1201 60.9301C79.1504 61.0408 79.1355 61.159 79.0786 61.2586C79.0218 61.3583 78.9277 61.4313 78.817 61.4616L67.0453 64.6754C67.008 64.686 66.9695 64.6915 66.9307 64.6918V64.6918Z" fill="white"/>
<path d="M61.0691 64.6919C61.0304 64.6919 60.9919 64.6866 60.9545 64.6764L49.1833 61.4595C49.1285 61.4445 49.0772 61.4189 49.0323 61.384C48.9874 61.3492 48.9498 61.3059 48.9217 61.2566C48.8935 61.2072 48.8754 61.1528 48.8682 61.0964C48.8611 61.0401 48.8652 60.9828 48.8802 60.928C48.8951 60.8732 48.9208 60.8219 48.9556 60.777C48.9904 60.7321 49.0338 60.6946 49.0831 60.6664C49.1325 60.6383 49.1869 60.6201 49.2432 60.613C49.2996 60.6059 49.3568 60.6099 49.4116 60.6249L61.1824 63.8413C61.2835 63.8688 61.3712 63.9321 61.4292 64.0193C61.4872 64.1066 61.5115 64.2119 61.4977 64.3158C61.4838 64.4196 61.4327 64.5149 61.3539 64.584C61.2751 64.653 61.1739 64.691 61.0691 64.6911V64.6919Z" fill="white"/>
<path d="M66.6512 66.2988H61.3478C61.1596 66.2985 60.9792 66.2236 60.8461 66.0905C60.7131 65.9574 60.6383 65.7769 60.6382 65.5887V63.1576C60.6383 62.9694 60.7131 62.7889 60.8461 62.6558C60.9792 62.5227 61.1596 62.4478 61.3478 62.4475H66.6512C66.8394 62.4478 67.0199 62.5226 67.153 62.6557C67.2861 62.7889 67.361 62.9693 67.3612 63.1576V65.5887C67.361 65.777 67.2861 65.9574 67.153 66.0905C67.0199 66.2237 66.8394 66.2985 66.6512 66.2988V66.2988ZM61.5052 65.4339H66.4964V63.3124H61.5031L61.5052 65.4339Z" fill="white"/>
<path d="M45.488 153L44.072 149.112H37.16L35.744 153H32.24L38.768 135.984H42.608L49.088 153H45.488ZM40.616 139.656L38.264 146.088H42.968L40.616 139.656ZM50.0163 149.712L52.7523 149.112C52.7843 149.624 52.9843 150.056 53.3523 150.408C53.7363 150.744 54.2563 150.912 54.9123 150.912C55.4083 150.912 55.7923 150.8 56.0643 150.576C56.3363 150.352 56.4723 150.072 56.4723 149.736C56.4723 149.144 56.0483 148.76 55.2003 148.584L53.6403 148.224C52.5363 147.984 51.7043 147.552 51.1443 146.928C50.6003 146.304 50.3283 145.56 50.3283 144.696C50.3283 143.624 50.7443 142.712 51.5763 141.96C52.4243 141.208 53.4803 140.832 54.7443 140.832C55.5443 140.832 56.2483 140.952 56.8563 141.192C57.4643 141.416 57.9363 141.712 58.2723 142.08C58.6083 142.432 58.8643 142.792 59.0403 143.16C59.2163 143.528 59.3283 143.888 59.3763 144.24L56.7123 144.84C56.6483 144.424 56.4563 144.056 56.1363 143.736C55.8323 143.416 55.3763 143.256 54.7683 143.256C54.3523 143.256 53.9923 143.368 53.6883 143.592C53.4003 143.816 53.2563 144.096 53.2563 144.432C53.2563 145.008 53.6163 145.36 54.3363 145.488L56.0163 145.848C57.1523 146.088 58.0163 146.528 58.6083 147.168C59.2163 147.808 59.5203 148.576 59.5203 149.472C59.5203 150.528 59.1203 151.44 58.3203 152.208C57.5203 152.976 56.3923 153.36 54.9363 153.36C54.1043 153.36 53.3603 153.24 52.7043 153C52.0483 152.744 51.5363 152.424 51.1683 152.04C50.8163 151.64 50.5443 151.248 50.3523 150.864C50.1763 150.464 50.0643 150.08 50.0163 149.712ZM61.0788 149.712L63.8148 149.112C63.8468 149.624 64.0468 150.056 64.4148 150.408C64.7988 150.744 65.3188 150.912 65.9748 150.912C66.4708 150.912 66.8548 150.8 67.1268 150.576C67.3988 150.352 67.5348 150.072 67.5348 149.736C67.5348 149.144 67.1108 148.76 66.2628 148.584L64.7028 148.224C63.5988 147.984 62.7668 147.552 62.2068 146.928C61.6628 146.304 61.3908 145.56 61.3908 144.696C61.3908 143.624 61.8068 142.712 62.6388 141.96C63.4868 141.208 64.5428 140.832 65.8068 140.832C66.6068 140.832 67.3108 140.952 67.9188 141.192C68.5268 141.416 68.9988 141.712 69.3348 142.08C69.6708 142.432 69.9268 142.792 70.1028 143.16C70.2788 143.528 70.3908 143.888 70.4388 144.24L67.7748 144.84C67.7108 144.424 67.5188 144.056 67.1988 143.736C66.8948 143.416 66.4388 143.256 65.8308 143.256C65.4148 143.256 65.0548 143.368 64.7508 143.592C64.4628 143.816 64.3188 144.096 64.3188 144.432C64.3188 145.008 64.6788 145.36 65.3988 145.488L67.0788 145.848C68.2148 146.088 69.0788 146.528 69.6708 147.168C70.2788 147.808 70.5828 148.576 70.5828 149.472C70.5828 150.528 70.1828 151.44 69.3828 152.208C68.5828 152.976 67.4548 153.36 65.9988 153.36C65.1668 153.36 64.4228 153.24 63.7668 153C63.1108 152.744 62.5988 152.424 62.2308 152.04C61.8788 151.64 61.6068 151.248 61.4148 150.864C61.2388 150.464 61.1268 150.08 61.0788 149.712ZM75.4304 145.752H80.7104C80.6784 145.096 80.4384 144.544 79.9904 144.096C79.5584 143.648 78.9184 143.424 78.0704 143.424C77.3024 143.424 76.6784 143.664 76.1984 144.144C75.7184 144.624 75.4624 145.16 75.4304 145.752ZM81.0224 148.824L83.6864 149.616C83.3664 150.704 82.7344 151.6 81.7904 152.304C80.8624 153.008 79.7024 153.36 78.3104 153.36C76.6144 153.36 75.1744 152.792 73.9904 151.656C72.8064 150.504 72.2144 148.968 72.2144 147.048C72.2144 145.224 72.7904 143.736 73.9424 142.584C75.0944 141.416 76.4544 140.832 78.0224 140.832C79.8464 140.832 81.2704 141.376 82.2944 142.464C83.3344 143.552 83.8544 145.048 83.8544 146.952C83.8544 147.08 83.8464 147.224 83.8304 147.384C83.8304 147.544 83.8304 147.672 83.8304 147.768L83.8064 147.936H75.3584C75.3904 148.704 75.6944 149.344 76.2704 149.856C76.8464 150.368 77.5344 150.624 78.3344 150.624C79.6944 150.624 80.5904 150.024 81.0224 148.824ZM90.3041 137.664V141.192H92.6801V144.024H90.3041V148.968C90.3041 149.464 90.4161 149.816 90.6401 150.024C90.8641 150.232 91.2161 150.336 91.6961 150.336C92.1281 150.336 92.4561 150.304 92.6801 150.24V152.88C92.2161 153.072 91.6161 153.168 90.8801 153.168C89.7281 153.168 88.8161 152.848 88.1441 152.208C87.4721 151.552 87.1361 150.656 87.1361 149.52V144.024H85.0001V141.192H85.6001C86.1921 141.192 86.6401 141.024 86.9441 140.688C87.2641 140.336 87.4241 139.88 87.4241 139.32V137.664H90.3041ZM120.475 153H117.211V141.072L112.315 153H109.555L104.659 141.168V153H101.491V135.984H105.859L110.971 148.272L115.963 135.984H120.475V153ZM123.359 149.784C123.359 148.776 123.687 147.968 124.343 147.36C124.999 146.752 125.847 146.368 126.887 146.208L129.791 145.776C130.383 145.696 130.679 145.416 130.679 144.936C130.679 144.488 130.503 144.12 130.151 143.832C129.815 143.544 129.327 143.4 128.687 143.4C128.015 143.4 127.479 143.584 127.079 143.952C126.695 144.32 126.479 144.776 126.431 145.32L123.599 144.72C123.711 143.696 124.215 142.792 125.111 142.008C126.007 141.224 127.191 140.832 128.663 140.832C130.423 140.832 131.719 141.256 132.551 142.104C133.383 142.936 133.799 144.008 133.799 145.32V151.128C133.799 151.832 133.847 152.456 133.943 153H131.015C130.935 152.648 130.895 152.176 130.895 151.584C130.143 152.752 128.983 153.336 127.415 153.336C126.199 153.336 125.215 152.984 124.463 152.28C123.727 151.576 123.359 150.744 123.359 149.784ZM128.087 150.96C128.839 150.96 129.455 150.752 129.935 150.336C130.431 149.904 130.679 149.2 130.679 148.224V147.696L128.015 148.104C127.039 148.248 126.551 148.744 126.551 149.592C126.551 149.976 126.687 150.304 126.959 150.576C127.231 150.832 127.607 150.96 128.087 150.96ZM140.209 146.208V153H137.017V141.192H140.113V142.656C140.449 142.08 140.929 141.64 141.553 141.336C142.177 141.032 142.833 140.88 143.521 140.88C144.913 140.88 145.969 141.32 146.689 142.2C147.425 143.064 147.793 144.184 147.793 145.56V153H144.601V146.112C144.601 145.408 144.417 144.84 144.049 144.408C143.697 143.976 143.153 143.76 142.417 143.76C141.745 143.76 141.209 143.992 140.809 144.456C140.409 144.92 140.209 145.504 140.209 146.208ZM150.312 149.784C150.312 148.776 150.64 147.968 151.296 147.36C151.952 146.752 152.8 146.368 153.84 146.208L156.744 145.776C157.336 145.696 157.632 145.416 157.632 144.936C157.632 144.488 157.456 144.12 157.104 143.832C156.768 143.544 156.28 143.4 155.64 143.4C154.968 143.4 154.432 143.584 154.032 143.952C153.648 144.32 153.432 144.776 153.384 145.32L150.552 144.72C150.664 143.696 151.168 142.792 152.064 142.008C152.96 141.224 154.144 140.832 155.616 140.832C157.376 140.832 158.672 141.256 159.504 142.104C160.336 142.936 160.752 144.008 160.752 145.32V151.128C160.752 151.832 160.8 152.456 160.896 153H157.968C157.888 152.648 157.848 152.176 157.848 151.584C157.096 152.752 155.936 153.336 154.368 153.336C153.152 153.336 152.168 152.984 151.416 152.28C150.68 151.576 150.312 150.744 150.312 149.784ZM155.04 150.96C155.792 150.96 156.408 150.752 156.888 150.336C157.384 149.904 157.632 149.2 157.632 148.224V147.696L154.968 148.104C153.992 148.248 153.504 148.744 153.504 149.592C153.504 149.976 153.64 150.304 153.912 150.576C154.184 150.832 154.56 150.96 155.04 150.96ZM163.083 153.648L165.963 152.88C166.075 153.536 166.379 154.072 166.875 154.488C167.371 154.904 167.987 155.112 168.723 155.112C170.819 155.112 171.867 154.016 171.867 151.824V150.96C171.595 151.392 171.179 151.752 170.619 152.04C170.059 152.328 169.379 152.472 168.579 152.472C167.011 152.472 165.699 151.928 164.643 150.84C163.603 149.752 163.083 148.384 163.083 146.736C163.083 145.136 163.603 143.776 164.643 142.656C165.683 141.536 166.995 140.976 168.579 140.976C169.443 140.976 170.163 141.136 170.739 141.456C171.315 141.76 171.715 142.136 171.939 142.584V141.192H175.011V151.728C175.011 153.504 174.499 154.976 173.475 156.144C172.451 157.328 170.899 157.92 168.819 157.92C167.267 157.92 165.963 157.504 164.907 156.672C163.867 155.84 163.259 154.832 163.083 153.648ZM169.131 149.736C169.947 149.736 170.611 149.464 171.123 148.92C171.651 148.376 171.915 147.648 171.915 146.736C171.915 145.84 171.643 145.12 171.099 144.576C170.571 144.032 169.915 143.76 169.131 143.76C168.315 143.76 167.635 144.032 167.091 144.576C166.563 145.12 166.299 145.84 166.299 146.736C166.299 147.648 166.563 148.376 167.091 148.92C167.619 149.464 168.299 149.736 169.131 149.736ZM180.571 145.752H185.851C185.819 145.096 185.579 144.544 185.131 144.096C184.699 143.648 184.059 143.424 183.211 143.424C182.443 143.424 181.819 143.664 181.339 144.144C180.859 144.624 180.603 145.16 180.571 145.752ZM186.163 148.824L188.827 149.616C188.507 150.704 187.875 151.6 186.931 152.304C186.003 153.008 184.843 153.36 183.451 153.36C181.755 153.36 180.315 152.792 179.131 151.656C177.947 150.504 177.355 148.968 177.355 147.048C177.355 145.224 177.931 143.736 179.083 142.584C180.235 141.416 181.595 140.832 183.163 140.832C184.987 140.832 186.411 141.376 187.435 142.464C188.475 143.552 188.995 145.048 188.995 146.952C188.995 147.08 188.987 147.224 188.971 147.384C188.971 147.544 188.971 147.672 188.971 147.768L188.947 147.936H180.499C180.531 148.704 180.835 149.344 181.411 149.856C181.987 150.368 182.675 150.624 183.475 150.624C184.835 150.624 185.731 150.024 186.163 148.824ZM194.701 153H191.509V141.192H194.557V142.632C194.861 142.088 195.341 141.656 195.997 141.336C196.653 141.016 197.325 140.856 198.013 140.856C199.725 140.856 200.893 141.512 201.517 142.824C202.365 141.512 203.613 140.856 205.261 140.856C206.461 140.856 207.469 141.232 208.285 141.984C209.117 142.736 209.533 143.856 209.533 145.344V153H206.437V145.992C206.437 145.32 206.261 144.784 205.909 144.384C205.573 143.968 205.053 143.76 204.349 143.76C203.693 143.76 203.165 143.984 202.765 144.432C202.365 144.88 202.165 145.432 202.165 146.088V153H198.997V145.992C198.997 145.32 198.821 144.784 198.469 144.384C198.117 143.968 197.597 143.76 196.909 143.76C196.237 143.76 195.701 143.984 195.301 144.432C194.901 144.864 194.701 145.416 194.701 146.088V153ZM215.095 145.752H220.375C220.343 145.096 220.103 144.544 219.655 144.096C219.223 143.648 218.583 143.424 217.735 143.424C216.967 143.424 216.343 143.664 215.863 144.144C215.383 144.624 215.127 145.16 215.095 145.752ZM220.687 148.824L223.351 149.616C223.031 150.704 222.399 151.6 221.455 152.304C220.527 153.008 219.367 153.36 217.975 153.36C216.279 153.36 214.839 152.792 213.655 151.656C212.471 150.504 211.879 148.968 211.879 147.048C211.879 145.224 212.455 143.736 213.607 142.584C214.759 141.416 216.119 140.832 217.687 140.832C219.511 140.832 220.935 141.376 221.959 142.464C222.999 143.552 223.519 145.048 223.519 146.952C223.519 147.08 223.511 147.224 223.495 147.384C223.495 147.544 223.495 147.672 223.495 147.768L223.471 147.936H215.023C215.055 148.704 215.359 149.344 215.935 149.856C216.511 150.368 217.199 150.624 217.999 150.624C219.359 150.624 220.255 150.024 220.687 148.824ZM229.224 146.208V153H226.032V141.192H229.128V142.656C229.464 142.08 229.944 141.64 230.568 141.336C231.192 141.032 231.848 140.88 232.536 140.88C233.928 140.88 234.984 141.32 235.704 142.2C236.44 143.064 236.808 144.184 236.808 145.56V153H233.616V146.112C233.616 145.408 233.432 144.84 233.064 144.408C232.712 143.976 232.168 143.76 231.432 143.76C230.76 143.76 230.224 143.992 229.824 144.456C229.424 144.92 229.224 145.504 229.224 146.208ZM243.984 137.664V141.192H246.36V144.024H243.984V148.968C243.984 149.464 244.096 149.816 244.32 150.024C244.544 150.232 244.896 150.336 245.376 150.336C245.808 150.336 246.136 150.304 246.36 150.24V152.88C245.896 153.072 245.296 153.168 244.56 153.168C243.408 153.168 242.496 152.848 241.824 152.208C241.152 151.552 240.816 150.656 240.816 149.52V144.024H238.68V141.192H239.28C239.872 141.192 240.32 141.024 240.624 140.688C240.944 140.336 241.104 139.88 241.104 139.32V137.664H243.984Z" fill="#091E42"/>
<path d="M43.984 183H42.626V175.272L39.238 183H37.978L34.618 175.272V183H33.26V173.074H35.122L38.622 181.152L42.15 173.074H43.984V183ZM45.8797 181.194C45.8797 180.615 46.0664 180.153 46.4397 179.808C46.813 179.453 47.3077 179.234 47.9237 179.15L49.7437 178.884C50.089 178.837 50.2617 178.669 50.2617 178.38C50.2617 178.025 50.1404 177.736 49.8977 177.512C49.655 177.288 49.291 177.176 48.8057 177.176C48.3577 177.176 48.003 177.302 47.7417 177.554C47.4804 177.797 47.3264 178.123 47.2797 178.534L46.0197 178.24C46.085 177.596 46.379 177.073 46.9017 176.672C47.4244 176.261 48.0497 176.056 48.7777 176.056C49.7297 176.056 50.4344 176.289 50.8917 176.756C51.349 177.213 51.5777 177.801 51.5777 178.52V181.894C51.5777 182.295 51.6057 182.664 51.6617 183H50.3737C50.327 182.72 50.3037 182.417 50.3037 182.09C50.117 182.389 49.8417 182.65 49.4777 182.874C49.123 183.098 48.675 183.21 48.1337 183.21C47.471 183.21 46.9297 183.014 46.5097 182.622C46.0897 182.221 45.8797 181.745 45.8797 181.194ZM48.3157 182.104C48.9037 182.104 49.375 181.945 49.7297 181.628C50.0844 181.311 50.2617 180.807 50.2617 180.116V179.808L48.2037 180.116C47.905 180.163 47.667 180.27 47.4897 180.438C47.3124 180.606 47.2237 180.835 47.2237 181.124C47.2237 181.385 47.3217 181.614 47.5177 181.81C47.723 182.006 47.989 182.104 48.3157 182.104ZM54.9438 179.108V183H53.6278V176.266H54.9158V177.232C55.3638 176.457 56.0545 176.07 56.9878 176.07C57.7625 176.07 58.3551 176.317 58.7658 176.812C59.1858 177.307 59.3958 177.946 59.3958 178.73V183H58.0798V178.954C58.0798 177.825 57.5571 177.26 56.5118 177.26C56.0171 177.26 55.6298 177.437 55.3498 177.792C55.0791 178.137 54.9438 178.576 54.9438 179.108ZM61.0691 181.194C61.0691 180.615 61.2558 180.153 61.6291 179.808C62.0025 179.453 62.4971 179.234 63.1131 179.15L64.9331 178.884C65.2785 178.837 65.4511 178.669 65.4511 178.38C65.4511 178.025 65.3298 177.736 65.0871 177.512C64.8445 177.288 64.4805 177.176 63.9951 177.176C63.5471 177.176 63.1925 177.302 62.9311 177.554C62.6698 177.797 62.5158 178.123 62.4691 178.534L61.2091 178.24C61.2745 177.596 61.5685 177.073 62.0911 176.672C62.6138 176.261 63.2391 176.056 63.9671 176.056C64.9191 176.056 65.6238 176.289 66.0811 176.756C66.5385 177.213 66.7671 177.801 66.7671 178.52V181.894C66.7671 182.295 66.7951 182.664 66.8511 183H65.5631C65.5165 182.72 65.4931 182.417 65.4931 182.09C65.3065 182.389 65.0311 182.65 64.6671 182.874C64.3125 183.098 63.8645 183.21 63.3231 183.21C62.6605 183.21 62.1191 183.014 61.6991 182.622C61.2791 182.221 61.0691 181.745 61.0691 181.194ZM63.5051 182.104C64.0931 182.104 64.5645 181.945 64.9191 181.628C65.2738 181.311 65.4511 180.807 65.4511 180.116V179.808L63.3931 180.116C63.0945 180.163 62.8565 180.27 62.6791 180.438C62.5018 180.606 62.4131 180.835 62.4131 181.124C62.4131 181.385 62.5111 181.614 62.7071 181.81C62.9125 182.006 63.1785 182.104 63.5051 182.104ZM68.3273 183.364L69.6013 183.07C69.6479 183.546 69.8393 183.938 70.1753 184.246C70.5113 184.563 70.9313 184.722 71.4353 184.722C72.8073 184.722 73.4933 183.994 73.4933 182.538V181.572C73.3253 181.899 73.0593 182.165 72.6953 182.37C72.3406 182.575 71.9206 182.678 71.4353 182.678C70.5393 182.678 69.7973 182.375 69.2093 181.768C68.6306 181.152 68.3413 180.368 68.3413 179.416C68.3413 178.492 68.6306 177.717 69.2093 177.092C69.7879 176.457 70.5299 176.14 71.4353 176.14C72.4619 176.14 73.1526 176.495 73.5073 177.204V176.266H74.8093V182.496C74.8093 182.944 74.7486 183.359 74.6273 183.742C74.5153 184.134 74.3333 184.493 74.0813 184.82C73.8293 185.147 73.4746 185.403 73.0173 185.59C72.5693 185.777 72.0419 185.87 71.4353 185.87C70.6046 185.87 69.8999 185.632 69.3213 185.156C68.7426 184.689 68.4113 184.092 68.3273 183.364ZM71.6313 181.572C72.2006 181.572 72.6626 181.376 73.0173 180.984C73.3719 180.583 73.5493 180.06 73.5493 179.416C73.5493 178.772 73.3719 178.254 73.0173 177.862C72.6626 177.461 72.2006 177.26 71.6313 177.26C71.0526 177.26 70.5813 177.456 70.2173 177.848C69.8626 178.24 69.6853 178.763 69.6853 179.416C69.6853 180.079 69.8579 180.606 70.2033 180.998C70.5579 181.381 71.0339 181.572 71.6313 181.572ZM77.765 178.94H81.447C81.4283 178.436 81.2603 178.025 80.943 177.708C80.6257 177.381 80.1777 177.218 79.599 177.218C79.0763 177.218 78.647 177.391 78.311 177.736C77.975 178.072 77.793 178.473 77.765 178.94ZM81.643 180.69L82.777 181.082C82.581 181.707 82.217 182.221 81.685 182.622C81.153 183.014 80.509 183.21 79.753 183.21C78.8103 183.21 78.0077 182.888 77.345 182.244C76.6917 181.591 76.365 180.713 76.365 179.612C76.365 178.585 76.6823 177.736 77.317 177.064C77.9517 176.392 78.7077 176.056 79.585 176.056C80.6023 176.056 81.3957 176.378 81.965 177.022C82.5343 177.657 82.819 178.511 82.819 179.584C82.819 179.752 82.8097 179.892 82.791 180.004H77.723C77.7323 180.601 77.9283 181.091 78.311 181.474C78.703 181.857 79.1837 182.048 79.753 182.048C80.7143 182.048 81.3443 181.595 81.643 180.69ZM89.7629 174.138V176.266H91.2189V177.456H89.7629V180.956C89.7629 181.273 89.8329 181.507 89.9729 181.656C90.1222 181.805 90.3649 181.88 90.7009 181.88C90.8969 181.88 91.0696 181.861 91.2189 181.824V182.944C90.9949 183.028 90.6962 183.07 90.3229 183.07C89.7442 183.07 89.2869 182.902 88.9509 182.566C88.6149 182.23 88.4469 181.759 88.4469 181.152V177.456H87.1589V176.266H87.5229C87.8682 176.266 88.1249 176.173 88.2929 175.986C88.4702 175.79 88.5589 175.538 88.5589 175.23V174.138H89.7629ZM94.2915 179.038V183H92.9755V172.864H94.2915V177.05C94.7395 176.397 95.4208 176.07 96.3355 176.07C97.1101 176.07 97.7028 176.317 98.1135 176.812C98.5335 177.307 98.7435 177.946 98.7435 178.73V183H97.4275V178.954C97.4275 177.825 96.9048 177.26 95.8595 177.26C95.3741 177.26 94.9961 177.428 94.7255 177.764C94.4548 178.091 94.3101 178.515 94.2915 179.038ZM101.691 178.94H105.373C105.354 178.436 105.186 178.025 104.869 177.708C104.551 177.381 104.103 177.218 103.525 177.218C103.002 177.218 102.573 177.391 102.237 177.736C101.901 178.072 101.719 178.473 101.691 178.94ZM105.569 180.69L106.703 181.082C106.507 181.707 106.143 182.221 105.611 182.622C105.079 183.014 104.435 183.21 103.679 183.21C102.736 183.21 101.933 182.888 101.271 182.244C100.617 181.591 100.291 180.713 100.291 179.612C100.291 178.585 100.608 177.736 101.243 177.064C101.877 176.392 102.633 176.056 103.511 176.056C104.528 176.056 105.321 176.378 105.891 177.022C106.46 177.657 106.745 178.511 106.745 179.584C106.745 179.752 106.735 179.892 106.717 180.004H101.649C101.658 180.601 101.854 181.091 102.237 181.474C102.629 181.857 103.109 182.048 103.679 182.048C104.64 182.048 105.27 181.595 105.569 180.69ZM111.505 181.194C111.505 180.615 111.691 180.153 112.065 179.808C112.438 179.453 112.933 179.234 113.549 179.15L115.369 178.884C115.714 178.837 115.887 178.669 115.887 178.38C115.887 178.025 115.765 177.736 115.523 177.512C115.28 177.288 114.916 177.176 114.431 177.176C113.983 177.176 113.628 177.302 113.367 177.554C113.105 177.797 112.951 178.123 112.905 178.534L111.645 178.24C111.71 177.596 112.004 177.073 112.527 176.672C113.049 176.261 113.675 176.056 114.403 176.056C115.355 176.056 116.059 176.289 116.517 176.756C116.974 177.213 117.203 177.801 117.203 178.52V181.894C117.203 182.295 117.231 182.664 117.287 183H115.999C115.952 182.72 115.929 182.417 115.929 182.09C115.742 182.389 115.467 182.65 115.103 182.874C114.748 183.098 114.3 183.21 113.759 183.21C113.096 183.21 112.555 183.014 112.135 182.622C111.715 182.221 111.505 181.745 111.505 181.194ZM113.941 182.104C114.529 182.104 115 181.945 115.355 181.628C115.709 181.311 115.887 180.807 115.887 180.116V179.808L113.829 180.116C113.53 180.163 113.292 180.27 113.115 180.438C112.937 180.606 112.849 180.835 112.849 181.124C112.849 181.385 112.947 181.614 113.143 181.81C113.348 182.006 113.614 182.104 113.941 182.104ZM122.081 177.274C121.511 177.274 121.026 177.479 120.625 177.89C120.233 178.301 120.037 178.879 120.037 179.626C120.037 180.363 120.233 180.942 120.625 181.362C121.026 181.782 121.516 181.992 122.095 181.992C122.655 181.992 123.079 181.852 123.369 181.572C123.667 181.292 123.868 180.97 123.971 180.606L125.133 181.11C124.946 181.67 124.591 182.16 124.069 182.58C123.555 183 122.897 183.21 122.095 183.21C121.115 183.21 120.303 182.869 119.659 182.188C119.015 181.507 118.693 180.653 118.693 179.626C118.693 178.581 119.015 177.727 119.659 177.064C120.303 176.392 121.11 176.056 122.081 176.056C122.902 176.056 123.565 176.266 124.069 176.686C124.582 177.106 124.918 177.61 125.077 178.198L123.887 178.702C123.784 178.31 123.588 177.974 123.299 177.694C123.009 177.414 122.603 177.274 122.081 177.274ZM132.642 185.66H131.34V182.048C131.163 182.393 130.888 182.669 130.514 182.874C130.15 183.079 129.726 183.182 129.24 183.182C128.298 183.182 127.528 182.841 126.93 182.16C126.342 181.469 126.048 180.62 126.048 179.612C126.048 178.623 126.333 177.792 126.902 177.12C127.481 176.439 128.251 176.098 129.212 176.098C129.754 176.098 130.206 176.215 130.57 176.448C130.944 176.681 131.21 176.966 131.368 177.302V176.266H132.642V185.66ZM127.924 177.918C127.57 178.347 127.392 178.912 127.392 179.612C127.392 180.312 127.57 180.891 127.924 181.348C128.288 181.796 128.769 182.02 129.366 182.02C129.954 182.02 130.43 181.796 130.794 181.348C131.168 180.891 131.354 180.312 131.354 179.612C131.354 178.912 131.172 178.347 130.808 177.918C130.444 177.479 129.964 177.26 129.366 177.26C128.76 177.26 128.279 177.479 127.924 177.918ZM139.181 182.188C139.004 182.524 138.733 182.781 138.369 182.958C138.005 183.126 137.613 183.21 137.193 183.21C136.428 183.21 135.816 182.958 135.359 182.454C134.902 181.941 134.673 181.292 134.673 180.508V176.266H135.989V180.312C135.989 180.816 136.11 181.231 136.353 181.558C136.605 181.885 136.992 182.048 137.515 182.048C138.038 182.048 138.434 181.894 138.705 181.586C138.976 181.269 139.111 180.849 139.111 180.326V176.266H140.427V181.754C140.427 182.193 140.45 182.608 140.497 183H139.237C139.2 182.795 139.181 182.524 139.181 182.188ZM143.975 183H142.673V176.266H143.975V183ZM142.645 174.39C142.467 174.203 142.379 173.979 142.379 173.718C142.379 173.457 142.467 173.233 142.645 173.046C142.831 172.859 143.055 172.766 143.317 172.766C143.578 172.766 143.802 172.859 143.989 173.046C144.175 173.223 144.269 173.447 144.269 173.718C144.269 173.979 144.175 174.203 143.989 174.39C143.802 174.567 143.578 174.656 143.317 174.656C143.055 174.656 142.831 174.567 142.645 174.39ZM145.584 181.25L146.774 180.83C146.82 181.194 146.979 181.497 147.25 181.74C147.52 181.973 147.884 182.09 148.342 182.09C148.696 182.09 148.976 182.006 149.182 181.838C149.387 181.661 149.49 181.446 149.49 181.194C149.49 180.746 149.2 180.457 148.622 180.326L147.474 180.074C146.951 179.962 146.54 179.738 146.242 179.402C145.943 179.066 145.794 178.66 145.794 178.184C145.794 177.605 146.027 177.106 146.494 176.686C146.97 176.266 147.534 176.056 148.188 176.056C148.617 176.056 149 176.121 149.336 176.252C149.672 176.373 149.933 176.537 150.12 176.742C150.306 176.947 150.446 177.139 150.54 177.316C150.633 177.493 150.703 177.675 150.75 177.862L149.588 178.296C149.569 178.184 149.536 178.077 149.49 177.974C149.443 177.862 149.368 177.741 149.266 177.61C149.172 177.479 149.032 177.377 148.846 177.302C148.659 177.218 148.44 177.176 148.188 177.176C147.861 177.176 147.59 177.265 147.376 177.442C147.17 177.619 147.068 177.829 147.068 178.072C147.068 178.501 147.324 178.772 147.838 178.884L148.93 179.122C149.527 179.253 149.984 179.495 150.302 179.85C150.628 180.195 150.792 180.62 150.792 181.124C150.792 181.656 150.572 182.137 150.134 182.566C149.704 182.995 149.102 183.21 148.328 183.21C147.497 183.21 146.848 183.005 146.382 182.594C145.915 182.174 145.649 181.726 145.584 181.25ZM153.846 183H152.544V176.266H153.846V183ZM152.516 174.39C152.338 174.203 152.25 173.979 152.25 173.718C152.25 173.457 152.338 173.233 152.516 173.046C152.702 172.859 152.926 172.766 153.188 172.766C153.449 172.766 153.673 172.859 153.86 173.046C154.046 173.223 154.14 173.447 154.14 173.718C154.14 173.979 154.046 174.203 153.86 174.39C153.673 174.567 153.449 174.656 153.188 174.656C152.926 174.656 152.702 174.567 152.516 174.39ZM157.849 174.138V176.266H159.305V177.456H157.849V180.956C157.849 181.273 157.919 181.507 158.059 181.656C158.208 181.805 158.451 181.88 158.787 181.88C158.983 181.88 159.156 181.861 159.305 181.824V182.944C159.081 183.028 158.782 183.07 158.409 183.07C157.83 183.07 157.373 182.902 157.037 182.566C156.701 182.23 156.533 181.759 156.533 181.152V177.456H155.245V176.266H155.609C155.954 176.266 156.211 176.173 156.379 175.986C156.556 175.79 156.645 175.538 156.645 175.23V174.138H157.849ZM162.363 183H161.061V176.266H162.363V183ZM161.033 174.39C160.856 174.203 160.767 173.979 160.767 173.718C160.767 173.457 160.856 173.233 161.033 173.046C161.22 172.859 161.444 172.766 161.705 172.766C161.967 172.766 162.191 172.859 162.377 173.046C162.564 173.223 162.657 173.447 162.657 173.718C162.657 173.979 162.564 174.203 162.377 174.39C162.191 174.567 161.967 174.656 161.705 174.656C161.444 174.656 161.22 174.567 161.033 174.39ZM165.988 181.404C166.399 181.824 166.898 182.034 167.486 182.034C168.074 182.034 168.569 181.824 168.97 181.404C169.381 180.975 169.586 180.382 169.586 179.626C169.586 178.879 169.381 178.296 168.97 177.876C168.569 177.447 168.074 177.232 167.486 177.232C166.898 177.232 166.399 177.447 165.988 177.876C165.587 178.296 165.386 178.879 165.386 179.626C165.386 180.382 165.587 180.975 165.988 181.404ZM165.008 177.078C165.662 176.397 166.488 176.056 167.486 176.056C168.485 176.056 169.306 176.397 169.95 177.078C170.604 177.75 170.93 178.599 170.93 179.626C170.93 180.662 170.608 181.521 169.964 182.202C169.32 182.874 168.494 183.21 167.486 183.21C166.478 183.21 165.652 182.874 165.008 182.202C164.364 181.521 164.042 180.662 164.042 179.626C164.042 178.599 164.364 177.75 165.008 177.078ZM173.93 179.108V183H172.614V176.266H173.902V177.232C174.35 176.457 175.041 176.07 175.974 176.07C176.749 176.07 177.341 176.317 177.752 176.812C178.172 177.307 178.382 177.946 178.382 178.73V183H177.066V178.954C177.066 177.825 176.543 177.26 175.498 177.26C175.003 177.26 174.616 177.437 174.336 177.792C174.065 178.137 173.93 178.576 173.93 179.108ZM180.335 182.104C180.335 181.852 180.433 181.633 180.629 181.446C180.825 181.259 181.068 181.166 181.357 181.166C181.675 181.166 181.941 181.283 182.155 181.516C182.379 181.749 182.491 182.076 182.491 182.496C182.491 183.336 182.277 183.985 181.847 184.442C181.418 184.899 180.942 185.161 180.419 185.226V184.498C180.755 184.423 181.031 184.237 181.245 183.938C181.46 183.649 181.572 183.331 181.581 182.986C181.516 183.033 181.413 183.056 181.273 183.056C181.003 183.056 180.779 182.972 180.601 182.804C180.424 182.627 180.335 182.393 180.335 182.104ZM32.7 201.194C32.7 200.615 32.8867 200.153 33.26 199.808C33.6333 199.453 34.128 199.234 34.744 199.15L36.564 198.884C36.9093 198.837 37.082 198.669 37.082 198.38C37.082 198.025 36.9607 197.736 36.718 197.512C36.4753 197.288 36.1113 197.176 35.626 197.176C35.178 197.176 34.8233 197.302 34.562 197.554C34.3007 197.797 34.1467 198.123 34.1 198.534L32.84 198.24C32.9053 197.596 33.1993 197.073 33.722 196.672C34.2447 196.261 34.87 196.056 35.598 196.056C36.55 196.056 37.2547 196.289 37.712 196.756C38.1693 197.213 38.398 197.801 38.398 198.52V201.894C38.398 202.295 38.426 202.664 38.482 203H37.194C37.1473 202.72 37.124 202.417 37.124 202.09C36.9373 202.389 36.662 202.65 36.298 202.874C35.9433 203.098 35.4953 203.21 34.954 203.21C34.2913 203.21 33.75 203.014 33.33 202.622C32.91 202.221 32.7 201.745 32.7 201.194ZM35.136 202.104C35.724 202.104 36.1953 201.945 36.55 201.628C36.9047 201.311 37.082 200.807 37.082 200.116V199.808L35.024 200.116C34.7253 200.163 34.4873 200.27 34.31 200.438C34.1327 200.606 34.044 200.835 34.044 201.124C34.044 201.385 34.142 201.614 34.338 201.81C34.5433 202.006 34.8093 202.104 35.136 202.104ZM39.8181 201.25L41.0081 200.83C41.0548 201.194 41.2135 201.497 41.4841 201.74C41.7548 201.973 42.1188 202.09 42.5761 202.09C42.9308 202.09 43.2108 202.006 43.4161 201.838C43.6215 201.661 43.7241 201.446 43.7241 201.194C43.7241 200.746 43.4348 200.457 42.8561 200.326L41.7081 200.074C41.1855 199.962 40.7748 199.738 40.4761 199.402C40.1775 199.066 40.0281 198.66 40.0281 198.184C40.0281 197.605 40.2615 197.106 40.7281 196.686C41.2041 196.266 41.7688 196.056 42.4221 196.056C42.8515 196.056 43.2341 196.121 43.5701 196.252C43.9061 196.373 44.1675 196.537 44.3541 196.742C44.5408 196.947 44.6808 197.139 44.7741 197.316C44.8675 197.493 44.9375 197.675 44.9841 197.862L43.8221 198.296C43.8035 198.184 43.7708 198.077 43.7241 197.974C43.6775 197.862 43.6028 197.741 43.5001 197.61C43.4068 197.479 43.2668 197.377 43.0801 197.302C42.8935 197.218 42.6741 197.176 42.4221 197.176C42.0955 197.176 41.8248 197.265 41.6101 197.442C41.4048 197.619 41.3021 197.829 41.3021 198.072C41.3021 198.501 41.5588 198.772 42.0721 198.884L43.1641 199.122C43.7615 199.253 44.2188 199.495 44.5361 199.85C44.8628 200.195 45.0261 200.62 45.0261 201.124C45.0261 201.656 44.8068 202.137 44.3681 202.566C43.9388 202.995 43.3368 203.21 42.5621 203.21C41.7315 203.21 41.0828 203.005 40.6161 202.594C40.1495 202.174 39.8835 201.726 39.8181 201.25ZM46.1482 201.25L47.3382 200.83C47.3849 201.194 47.5435 201.497 47.8142 201.74C48.0849 201.973 48.4489 202.09 48.9062 202.09C49.2609 202.09 49.5409 202.006 49.7462 201.838C49.9515 201.661 50.0542 201.446 50.0542 201.194C50.0542 200.746 49.7649 200.457 49.1862 200.326L48.0382 200.074C47.5155 199.962 47.1049 199.738 46.8062 199.402C46.5075 199.066 46.3582 198.66 46.3582 198.184C46.3582 197.605 46.5915 197.106 47.0582 196.686C47.5342 196.266 48.0989 196.056 48.7522 196.056C49.1815 196.056 49.5642 196.121 49.9002 196.252C50.2362 196.373 50.4975 196.537 50.6842 196.742C50.8709 196.947 51.0109 197.139 51.1042 197.316C51.1975 197.493 51.2675 197.675 51.3142 197.862L50.1522 198.296C50.1335 198.184 50.1009 198.077 50.0542 197.974C50.0075 197.862 49.9329 197.741 49.8302 197.61C49.7369 197.479 49.5969 197.377 49.4102 197.302C49.2235 197.218 49.0042 197.176 48.7522 197.176C48.4255 197.176 48.1549 197.265 47.9402 197.442C47.7349 197.619 47.6322 197.829 47.6322 198.072C47.6322 198.501 47.8889 198.772 48.4022 198.884L49.4942 199.122C50.0915 199.253 50.5489 199.495 50.8662 199.85C51.1929 200.195 51.3562 200.62 51.3562 201.124C51.3562 201.656 51.1369 202.137 50.6982 202.566C50.2689 202.995 49.6669 203.21 48.8922 203.21C48.0615 203.21 47.4129 203.005 46.9462 202.594C46.4795 202.174 46.2135 201.726 46.1482 201.25ZM54.4103 203H53.1083V196.266H54.4103V203ZM53.0803 194.39C52.9029 194.203 52.8143 193.979 52.8143 193.718C52.8143 193.457 52.9029 193.233 53.0803 193.046C53.2669 192.859 53.4909 192.766 53.7523 192.766C54.0136 192.766 54.2376 192.859 54.4243 193.046C54.6109 193.223 54.7043 193.447 54.7043 193.718C54.7043 193.979 54.6109 194.203 54.4243 194.39C54.2376 194.567 54.0136 194.656 53.7523 194.656C53.4909 194.656 53.2669 194.567 53.0803 194.39ZM56.1593 203.364L57.4333 203.07C57.48 203.546 57.6713 203.938 58.0073 204.246C58.3433 204.563 58.7633 204.722 59.2673 204.722C60.6393 204.722 61.3253 203.994 61.3253 202.538V201.572C61.1573 201.899 60.8913 202.165 60.5273 202.37C60.1726 202.575 59.7526 202.678 59.2673 202.678C58.3713 202.678 57.6293 202.375 57.0413 201.768C56.4626 201.152 56.1733 200.368 56.1733 199.416C56.1733 198.492 56.4626 197.717 57.0413 197.092C57.62 196.457 58.362 196.14 59.2673 196.14C60.294 196.14 60.9846 196.495 61.3393 197.204V196.266H62.6413V202.496C62.6413 202.944 62.5806 203.359 62.4593 203.742C62.3473 204.134 62.1653 204.493 61.9133 204.82C61.6613 205.147 61.3066 205.403 60.8493 205.59C60.4013 205.777 59.874 205.87 59.2673 205.87C58.4366 205.87 57.732 205.632 57.1533 205.156C56.5746 204.689 56.2433 204.092 56.1593 203.364ZM59.4633 201.572C60.0326 201.572 60.4946 201.376 60.8493 200.984C61.204 200.583 61.3813 200.06 61.3813 199.416C61.3813 198.772 61.204 198.254 60.8493 197.862C60.4946 197.461 60.0326 197.26 59.4633 197.26C58.8846 197.26 58.4133 197.456 58.0493 197.848C57.6946 198.24 57.5173 198.763 57.5173 199.416C57.5173 200.079 57.69 200.606 58.0353 200.998C58.39 201.381 58.866 201.572 59.4633 201.572ZM66.059 199.108V203H64.743V196.266H66.031V197.232C66.479 196.457 67.1697 196.07 68.103 196.07C68.8777 196.07 69.4704 196.317 69.881 196.812C70.301 197.307 70.511 197.946 70.511 198.73V203H69.195V198.954C69.195 197.825 68.6724 197.26 67.627 197.26C67.1324 197.26 66.745 197.437 66.465 197.792C66.1944 198.137 66.059 198.576 66.059 199.108ZM73.9064 203H72.6044V196.266H73.8644V197.162C74.0697 196.807 74.359 196.537 74.7324 196.35C75.1057 196.163 75.4977 196.07 75.9084 196.07C76.347 196.07 76.7484 196.177 77.1124 196.392C77.4764 196.607 77.747 196.924 77.9244 197.344C78.391 196.495 79.1424 196.07 80.1784 196.07C80.8224 196.07 81.3684 196.289 81.8164 196.728C82.2737 197.167 82.5024 197.801 82.5024 198.632V203H81.2004V198.772C81.2004 198.305 81.079 197.932 80.8364 197.652C80.603 197.372 80.2484 197.232 79.7724 197.232C79.315 197.232 78.9417 197.395 78.6524 197.722C78.363 198.039 78.2184 198.441 78.2184 198.926V203H76.9024V198.772C76.9024 198.305 76.781 197.932 76.5384 197.652C76.305 197.372 75.9504 197.232 75.4744 197.232C75.0077 197.232 74.6297 197.391 74.3404 197.708C74.051 198.025 73.9064 198.436 73.9064 198.94V203ZM85.4623 198.94H89.1443C89.1256 198.436 88.9576 198.025 88.6403 197.708C88.3229 197.381 87.8749 197.218 87.2963 197.218C86.7736 197.218 86.3443 197.391 86.0083 197.736C85.6723 198.072 85.4903 198.473 85.4623 198.94ZM89.3403 200.69L90.4743 201.082C90.2783 201.707 89.9143 202.221 89.3823 202.622C88.8503 203.014 88.2063 203.21 87.4503 203.21C86.5076 203.21 85.7049 202.888 85.0423 202.244C84.3889 201.591 84.0623 200.713 84.0623 199.612C84.0623 198.585 84.3796 197.736 85.0143 197.064C85.6489 196.392 86.4049 196.056 87.2823 196.056C88.2996 196.056 89.0929 196.378 89.6623 197.022C90.2316 197.657 90.5163 198.511 90.5163 199.584C90.5163 199.752 90.5069 199.892 90.4883 200.004H85.4203C85.4296 200.601 85.6256 201.091 86.0083 201.474C86.4003 201.857 86.8809 202.048 87.4503 202.048C88.4116 202.048 89.0416 201.595 89.3403 200.69ZM93.5122 199.108V203H92.1962V196.266H93.4842V197.232C93.9322 196.457 94.6228 196.07 95.5562 196.07C96.3308 196.07 96.9235 196.317 97.3342 196.812C97.7542 197.307 97.9642 197.946 97.9642 198.73V203H96.6482V198.954C96.6482 197.825 96.1255 197.26 95.0802 197.26C94.5855 197.26 94.1982 197.437 93.9182 197.792C93.6475 198.137 93.5122 198.576 93.5122 199.108ZM101.822 194.138V196.266H103.278V197.456H101.822V200.956C101.822 201.273 101.892 201.507 102.032 201.656C102.181 201.805 102.424 201.88 102.76 201.88C102.956 201.88 103.128 201.861 103.278 201.824V202.944C103.054 203.028 102.755 203.07 102.382 203.07C101.803 203.07 101.346 202.902 101.01 202.566C100.674 202.23 100.506 201.759 100.506 201.152V197.456H99.2175V196.266H99.5815C99.9268 196.266 100.184 196.173 100.352 195.986C100.529 195.79 100.618 195.538 100.618 195.23V194.138H101.822ZM104.894 202.104C104.894 201.852 104.992 201.633 105.188 201.446C105.384 201.259 105.627 201.166 105.916 201.166C106.233 201.166 106.499 201.283 106.714 201.516C106.938 201.749 107.05 202.076 107.05 202.496C107.05 203.336 106.835 203.985 106.406 204.442C105.977 204.899 105.501 205.161 104.978 205.226V204.498C105.314 204.423 105.589 204.237 105.804 203.938C106.019 203.649 106.131 203.331 106.14 202.986C106.075 203.033 105.972 203.056 105.832 203.056C105.561 203.056 105.337 202.972 105.16 202.804C104.983 202.627 104.894 202.393 104.894 202.104ZM112.229 201.194C112.229 200.615 112.416 200.153 112.789 199.808C113.163 199.453 113.657 199.234 114.273 199.15L116.093 198.884C116.439 198.837 116.611 198.669 116.611 198.38C116.611 198.025 116.49 197.736 116.247 197.512C116.005 197.288 115.641 197.176 115.155 197.176C114.707 197.176 114.353 197.302 114.091 197.554C113.83 197.797 113.676 198.123 113.629 198.534L112.369 198.24C112.435 197.596 112.729 197.073 113.251 196.672C113.774 196.261 114.399 196.056 115.127 196.056C116.079 196.056 116.784 196.289 117.241 196.756C117.699 197.213 117.927 197.801 117.927 198.52V201.894C117.927 202.295 117.955 202.664 118.011 203H116.723C116.677 202.72 116.653 202.417 116.653 202.09C116.467 202.389 116.191 202.65 115.827 202.874C115.473 203.098 115.025 203.21 114.483 203.21C113.821 203.21 113.279 203.014 112.859 202.622C112.439 202.221 112.229 201.745 112.229 201.194ZM114.665 202.104C115.253 202.104 115.725 201.945 116.079 201.628C116.434 201.311 116.611 200.807 116.611 200.116V199.808L114.553 200.116C114.255 200.163 114.017 200.27 113.839 200.438C113.662 200.606 113.573 200.835 113.573 201.124C113.573 201.385 113.671 201.614 113.867 201.81C114.073 202.006 114.339 202.104 114.665 202.104ZM121.293 199.108V203H119.977V196.266H121.265V197.232C121.713 196.457 122.404 196.07 123.337 196.07C124.112 196.07 124.705 196.317 125.115 196.812C125.535 197.307 125.745 197.946 125.745 198.73V203H124.429V198.954C124.429 197.825 123.907 197.26 122.861 197.26C122.367 197.26 121.979 197.437 121.699 197.792C121.429 198.137 121.293 198.576 121.293 199.108ZM128.623 199.612C128.623 200.321 128.795 200.9 129.141 201.348C129.495 201.796 129.981 202.02 130.597 202.02C131.185 202.02 131.656 201.791 132.011 201.334C132.365 200.877 132.543 200.293 132.543 199.584C132.543 198.884 132.37 198.319 132.025 197.89C131.679 197.461 131.208 197.246 130.611 197.246C130.013 197.246 129.533 197.465 129.169 197.904C128.805 198.343 128.623 198.912 128.623 199.612ZM132.557 202.09V201.978C132.379 202.323 132.109 202.613 131.745 202.846C131.39 203.07 130.965 203.182 130.471 203.182C129.509 203.182 128.735 202.846 128.147 202.174C127.568 201.493 127.279 200.639 127.279 199.612C127.279 198.632 127.577 197.801 128.175 197.12C128.772 196.429 129.537 196.084 130.471 196.084C131.021 196.084 131.469 196.196 131.815 196.42C132.16 196.635 132.398 196.901 132.529 197.218V192.864H133.831V201.754C133.831 202.211 133.854 202.627 133.901 203H132.627C132.58 202.739 132.557 202.435 132.557 202.09ZM140.353 199.612C140.353 200.321 140.526 200.9 140.871 201.348C141.226 201.796 141.711 202.02 142.327 202.02C142.915 202.02 143.387 201.791 143.741 201.334C144.096 200.877 144.273 200.293 144.273 199.584C144.273 198.884 144.101 198.319 143.755 197.89C143.41 197.461 142.939 197.246 142.341 197.246C141.744 197.246 141.263 197.465 140.899 197.904C140.535 198.343 140.353 198.912 140.353 199.612ZM144.287 202.09V201.978C144.11 202.323 143.839 202.613 143.475 202.846C143.121 203.07 142.696 203.182 142.201 203.182C141.24 203.182 140.465 202.846 139.877 202.174C139.299 201.493 139.009 200.639 139.009 199.612C139.009 198.632 139.308 197.801 139.905 197.12C140.503 196.429 141.268 196.084 142.201 196.084C142.752 196.084 143.2 196.196 143.545 196.42C143.891 196.635 144.129 196.901 144.259 197.218V192.864H145.561V201.754C145.561 202.211 145.585 202.627 145.631 203H144.357C144.311 202.739 144.287 202.435 144.287 202.09ZM149.102 203H147.8V196.266H149.102V203ZM147.772 194.39C147.594 194.203 147.506 193.979 147.506 193.718C147.506 193.457 147.594 193.233 147.772 193.046C147.958 192.859 148.182 192.766 148.444 192.766C148.705 192.766 148.929 192.859 149.116 193.046C149.302 193.223 149.396 193.447 149.396 193.718C149.396 193.979 149.302 194.203 149.116 194.39C148.929 194.567 148.705 194.656 148.444 194.656C148.182 194.656 147.958 194.567 147.772 194.39ZM150.711 201.25L151.901 200.83C151.947 201.194 152.106 201.497 152.377 201.74C152.647 201.973 153.011 202.09 153.469 202.09C153.823 202.09 154.103 202.006 154.309 201.838C154.514 201.661 154.617 201.446 154.617 201.194C154.617 200.746 154.327 200.457 153.749 200.326L152.601 200.074C152.078 199.962 151.667 199.738 151.369 199.402C151.07 199.066 150.921 198.66 150.921 198.184C150.921 197.605 151.154 197.106 151.621 196.686C152.097 196.266 152.661 196.056 153.315 196.056C153.744 196.056 154.127 196.121 154.463 196.252C154.799 196.373 155.06 196.537 155.247 196.742C155.433 196.947 155.573 197.139 155.667 197.316C155.76 197.493 155.83 197.675 155.877 197.862L154.715 198.296C154.696 198.184 154.663 198.077 154.617 197.974C154.57 197.862 154.495 197.741 154.393 197.61C154.299 197.479 154.159 197.377 153.973 197.302C153.786 197.218 153.567 197.176 153.315 197.176C152.988 197.176 152.717 197.265 152.503 197.442C152.297 197.619 152.195 197.829 152.195 198.072C152.195 198.501 152.451 198.772 152.965 198.884L154.057 199.122C154.654 199.253 155.111 199.495 155.429 199.85C155.755 200.195 155.919 200.62 155.919 201.124C155.919 201.656 155.699 202.137 155.261 202.566C154.831 202.995 154.229 203.21 153.455 203.21C152.624 203.21 151.975 203.005 151.509 202.594C151.042 202.174 150.776 201.726 150.711 201.25ZM158.973 205.66H157.671V196.266H158.945V197.316C159.141 196.961 159.435 196.672 159.827 196.448C160.219 196.224 160.676 196.112 161.199 196.112C162.169 196.112 162.925 196.443 163.467 197.106C164.017 197.769 164.293 198.609 164.293 199.626C164.293 200.653 164.008 201.502 163.439 202.174C162.879 202.846 162.118 203.182 161.157 203.182C160.662 203.182 160.223 203.079 159.841 202.874C159.458 202.669 159.169 202.407 158.973 202.09V205.66ZM162.949 199.626C162.949 198.945 162.767 198.385 162.403 197.946C162.048 197.498 161.567 197.274 160.961 197.274C160.363 197.274 159.878 197.498 159.505 197.946C159.141 198.385 158.959 198.945 158.959 199.626C158.959 200.326 159.141 200.9 159.505 201.348C159.878 201.787 160.363 202.006 160.961 202.006C161.558 202.006 162.039 201.787 162.403 201.348C162.767 200.9 162.949 200.326 162.949 199.626ZM167.356 201.404C167.766 201.824 168.266 202.034 168.854 202.034C169.442 202.034 169.936 201.824 170.338 201.404C170.748 200.975 170.954 200.382 170.954 199.626C170.954 198.879 170.748 198.296 170.338 197.876C169.936 197.447 169.442 197.232 168.854 197.232C168.266 197.232 167.766 197.447 167.356 197.876C166.954 198.296 166.754 198.879 166.754 199.626C166.754 200.382 166.954 200.975 167.356 201.404ZM166.376 197.078C167.029 196.397 167.855 196.056 168.854 196.056C169.852 196.056 170.674 196.397 171.318 197.078C171.971 197.75 172.298 198.599 172.298 199.626C172.298 200.662 171.976 201.521 171.332 202.202C170.688 202.874 169.862 203.21 168.854 203.21C167.846 203.21 167.02 202.874 166.376 202.202C165.732 201.521 165.41 200.662 165.41 199.626C165.41 198.599 165.732 197.75 166.376 197.078ZM173.351 201.25L174.541 200.83C174.588 201.194 174.747 201.497 175.017 201.74C175.288 201.973 175.652 202.09 176.109 202.09C176.464 202.09 176.744 202.006 176.949 201.838C177.155 201.661 177.257 201.446 177.257 201.194C177.257 200.746 176.968 200.457 176.389 200.326L175.241 200.074C174.719 199.962 174.308 199.738 174.009 199.402C173.711 199.066 173.561 198.66 173.561 198.184C173.561 197.605 173.795 197.106 174.261 196.686C174.737 196.266 175.302 196.056 175.955 196.056C176.385 196.056 176.767 196.121 177.103 196.252C177.439 196.373 177.701 196.537 177.887 196.742C178.074 196.947 178.214 197.139 178.307 197.316C178.401 197.493 178.471 197.675 178.517 197.862L177.355 198.296C177.337 198.184 177.304 198.077 177.257 197.974C177.211 197.862 177.136 197.741 177.033 197.61C176.94 197.479 176.8 197.377 176.613 197.302C176.427 197.218 176.207 197.176 175.955 197.176C175.629 197.176 175.358 197.265 175.143 197.442C174.938 197.619 174.835 197.829 174.835 198.072C174.835 198.501 175.092 198.772 175.605 198.884L176.697 199.122C177.295 199.253 177.752 199.495 178.069 199.85C178.396 200.195 178.559 200.62 178.559 201.124C178.559 201.656 178.34 202.137 177.901 202.566C177.472 202.995 176.87 203.21 176.095 203.21C175.265 203.21 174.616 203.005 174.149 202.594C173.683 202.174 173.417 201.726 173.351 201.25ZM181.613 203H180.311V196.266H181.613V203ZM180.283 194.39C180.106 194.203 180.017 193.979 180.017 193.718C180.017 193.457 180.106 193.233 180.283 193.046C180.47 192.859 180.694 192.766 180.955 192.766C181.217 192.766 181.441 192.859 181.627 193.046C181.814 193.223 181.907 193.447 181.907 193.718C181.907 193.979 181.814 194.203 181.627 194.39C181.441 194.567 181.217 194.656 180.955 194.656C180.694 194.656 180.47 194.567 180.283 194.39ZM185.616 194.138V196.266H187.072V197.456H185.616V200.956C185.616 201.273 185.686 201.507 185.826 201.656C185.976 201.805 186.218 201.88 186.554 201.88C186.75 201.88 186.923 201.861 187.072 201.824V202.944C186.848 203.028 186.55 203.07 186.176 203.07C185.598 203.07 185.14 202.902 184.804 202.566C184.468 202.23 184.3 201.759 184.3 201.152V197.456H183.012V196.266H183.376C183.722 196.266 183.978 196.173 184.146 195.986C184.324 195.79 184.412 195.538 184.412 195.23V194.138H185.616ZM190.131 203H188.829V196.266H190.131V203ZM188.801 194.39C188.624 194.203 188.535 193.979 188.535 193.718C188.535 193.457 188.624 193.233 188.801 193.046C188.988 192.859 189.212 192.766 189.473 192.766C189.734 192.766 189.958 192.859 190.145 193.046C190.332 193.223 190.425 193.447 190.425 193.718C190.425 193.979 190.332 194.203 190.145 194.39C189.958 194.567 189.734 194.656 189.473 194.656C189.212 194.656 188.988 194.567 188.801 194.39ZM193.756 201.404C194.167 201.824 194.666 202.034 195.254 202.034C195.842 202.034 196.337 201.824 196.738 201.404C197.149 200.975 197.354 200.382 197.354 199.626C197.354 198.879 197.149 198.296 196.738 197.876C196.337 197.447 195.842 197.232 195.254 197.232C194.666 197.232 194.167 197.447 193.756 197.876C193.355 198.296 193.154 198.879 193.154 199.626C193.154 200.382 193.355 200.975 193.756 201.404ZM192.776 197.078C193.429 196.397 194.255 196.056 195.254 196.056C196.253 196.056 197.074 196.397 197.718 197.078C198.371 197.75 198.698 198.599 198.698 199.626C198.698 200.662 198.376 201.521 197.732 202.202C197.088 202.874 196.262 203.21 195.254 203.21C194.246 203.21 193.42 202.874 192.776 202.202C192.132 201.521 191.81 200.662 191.81 199.626C191.81 198.599 192.132 197.75 192.776 197.078ZM201.698 199.108V203H200.382V196.266H201.67V197.232C202.118 196.457 202.808 196.07 203.742 196.07C204.516 196.07 205.109 196.317 205.52 196.812C205.94 197.307 206.15 197.946 206.15 198.73V203H204.834V198.954C204.834 197.825 204.311 197.26 203.266 197.26C202.771 197.26 202.384 197.437 202.104 197.792C201.833 198.137 201.698 198.576 201.698 199.108ZM213.129 201.404C213.54 201.824 214.039 202.034 214.627 202.034C215.215 202.034 215.71 201.824 216.111 201.404C216.522 200.975 216.727 200.382 216.727 199.626C216.727 198.879 216.522 198.296 216.111 197.876C215.71 197.447 215.215 197.232 214.627 197.232C214.039 197.232 213.54 197.447 213.129 197.876C212.728 198.296 212.527 198.879 212.527 199.626C212.527 200.382 212.728 200.975 213.129 201.404ZM212.149 197.078C212.802 196.397 213.628 196.056 214.627 196.056C215.626 196.056 216.447 196.397 217.091 197.078C217.744 197.75 218.071 198.599 218.071 199.626C218.071 200.662 217.749 201.521 217.105 202.202C216.461 202.874 215.635 203.21 214.627 203.21C213.619 203.21 212.793 202.874 212.149 202.202C211.505 201.521 211.183 200.662 211.183 199.626C211.183 198.599 211.505 197.75 212.149 197.078ZM223.143 197.456H221.519V203H220.161V197.456H218.915V196.266H220.161V195.132C220.161 194.413 220.371 193.849 220.791 193.438C221.211 193.027 221.738 192.822 222.373 192.822C222.774 192.822 223.035 192.869 223.157 192.962V194.138C223.017 194.082 222.825 194.054 222.583 194.054C222.293 194.054 222.041 194.143 221.827 194.32C221.621 194.488 221.519 194.782 221.519 195.202V196.266H223.143V197.456ZM32.7 221.194C32.7 220.615 32.8867 220.153 33.26 219.808C33.6333 219.453 34.128 219.234 34.744 219.15L36.564 218.884C36.9093 218.837 37.082 218.669 37.082 218.38C37.082 218.025 36.9607 217.736 36.718 217.512C36.4753 217.288 36.1113 217.176 35.626 217.176C35.178 217.176 34.8233 217.302 34.562 217.554C34.3007 217.797 34.1467 218.123 34.1 218.534L32.84 218.24C32.9053 217.596 33.1993 217.073 33.722 216.672C34.2447 216.261 34.87 216.056 35.598 216.056C36.55 216.056 37.2547 216.289 37.712 216.756C38.1693 217.213 38.398 217.801 38.398 218.52V221.894C38.398 222.295 38.426 222.664 38.482 223H37.194C37.1473 222.72 37.124 222.417 37.124 222.09C36.9373 222.389 36.662 222.65 36.298 222.874C35.9433 223.098 35.4953 223.21 34.954 223.21C34.2913 223.21 33.75 223.014 33.33 222.622C32.91 222.221 32.7 221.745 32.7 221.194ZM35.136 222.104C35.724 222.104 36.1953 221.945 36.55 221.628C36.9047 221.311 37.082 220.807 37.082 220.116V219.808L35.024 220.116C34.7253 220.163 34.4873 220.27 34.31 220.438C34.1327 220.606 34.044 220.835 34.044 221.124C34.044 221.385 34.142 221.614 34.338 221.81C34.5433 222.006 34.8093 222.104 35.136 222.104ZM39.8181 221.25L41.0081 220.83C41.0548 221.194 41.2135 221.497 41.4841 221.74C41.7548 221.973 42.1188 222.09 42.5761 222.09C42.9308 222.09 43.2108 222.006 43.4161 221.838C43.6215 221.661 43.7241 221.446 43.7241 221.194C43.7241 220.746 43.4348 220.457 42.8561 220.326L41.7081 220.074C41.1855 219.962 40.7748 219.738 40.4761 219.402C40.1775 219.066 40.0281 218.66 40.0281 218.184C40.0281 217.605 40.2615 217.106 40.7281 216.686C41.2041 216.266 41.7688 216.056 42.4221 216.056C42.8515 216.056 43.2341 216.121 43.5701 216.252C43.9061 216.373 44.1675 216.537 44.3541 216.742C44.5408 216.947 44.6808 217.139 44.7741 217.316C44.8675 217.493 44.9375 217.675 44.9841 217.862L43.8221 218.296C43.8035 218.184 43.7708 218.077 43.7241 217.974C43.6775 217.862 43.6028 217.741 43.5001 217.61C43.4068 217.479 43.2668 217.377 43.0801 217.302C42.8935 217.218 42.6741 217.176 42.4221 217.176C42.0955 217.176 41.8248 217.265 41.6101 217.442C41.4048 217.619 41.3021 217.829 41.3021 218.072C41.3021 218.501 41.5588 218.772 42.0721 218.884L43.1641 219.122C43.7615 219.253 44.2188 219.495 44.5361 219.85C44.8628 220.195 45.0261 220.62 45.0261 221.124C45.0261 221.656 44.8068 222.137 44.3681 222.566C43.9388 222.995 43.3368 223.21 42.5621 223.21C41.7315 223.21 41.0828 223.005 40.6161 222.594C40.1495 222.174 39.8835 221.726 39.8181 221.25ZM46.1482 221.25L47.3382 220.83C47.3849 221.194 47.5435 221.497 47.8142 221.74C48.0849 221.973 48.4489 222.09 48.9062 222.09C49.2609 222.09 49.5409 222.006 49.7462 221.838C49.9515 221.661 50.0542 221.446 50.0542 221.194C50.0542 220.746 49.7649 220.457 49.1862 220.326L48.0382 220.074C47.5155 219.962 47.1049 219.738 46.8062 219.402C46.5075 219.066 46.3582 218.66 46.3582 218.184C46.3582 217.605 46.5915 217.106 47.0582 216.686C47.5342 216.266 48.0989 216.056 48.7522 216.056C49.1815 216.056 49.5642 216.121 49.9002 216.252C50.2362 216.373 50.4975 216.537 50.6842 216.742C50.8709 216.947 51.0109 217.139 51.1042 217.316C51.1975 217.493 51.2675 217.675 51.3142 217.862L50.1522 218.296C50.1335 218.184 50.1009 218.077 50.0542 217.974C50.0075 217.862 49.9329 217.741 49.8302 217.61C49.7369 217.479 49.5969 217.377 49.4102 217.302C49.2235 217.218 49.0042 217.176 48.7522 217.176C48.4255 217.176 48.1549 217.265 47.9402 217.442C47.7349 217.619 47.6322 217.829 47.6322 218.072C47.6322 218.501 47.8889 218.772 48.4022 218.884L49.4942 219.122C50.0915 219.253 50.5489 219.495 50.8662 219.85C51.1929 220.195 51.3562 220.62 51.3562 221.124C51.3562 221.656 51.1369 222.137 50.6982 222.566C50.2689 222.995 49.6669 223.21 48.8922 223.21C48.0615 223.21 47.4129 223.005 46.9462 222.594C46.4795 222.174 46.2135 221.726 46.1482 221.25ZM53.8939 218.94H57.5759C57.5573 218.436 57.3893 218.025 57.0719 217.708C56.7546 217.381 56.3066 217.218 55.7279 217.218C55.2053 217.218 54.7759 217.391 54.4399 217.736C54.1039 218.072 53.9219 218.473 53.8939 218.94ZM57.7719 220.69L58.9059 221.082C58.7099 221.707 58.3459 222.221 57.8139 222.622C57.2819 223.014 56.6379 223.21 55.8819 223.21C54.9393 223.21 54.1366 222.888 53.4739 222.244C52.8206 221.591 52.4939 220.713 52.4939 219.612C52.4939 218.585 52.8113 217.736 53.4459 217.064C54.0806 216.392 54.8366 216.056 55.7139 216.056C56.7313 216.056 57.5246 216.378 58.0939 217.022C58.6633 217.657 58.9479 218.511 58.9479 219.584C58.9479 219.752 58.9386 219.892 58.9199 220.004H53.8519C53.8613 220.601 54.0573 221.091 54.4399 221.474C54.8319 221.857 55.3126 222.048 55.8819 222.048C56.8433 222.048 57.4733 221.595 57.7719 220.69ZM62.3918 214.138V216.266H63.8478V217.456H62.3918V220.956C62.3918 221.273 62.4618 221.507 62.6018 221.656C62.7511 221.805 62.9938 221.88 63.3298 221.88C63.5258 221.88 63.6985 221.861 63.8478 221.824V222.944C63.6238 223.028 63.3251 223.07 62.9518 223.07C62.3731 223.07 61.9158 222.902 61.5798 222.566C61.2438 222.23 61.0758 221.759 61.0758 221.152V217.456H59.7878V216.266H60.1518C60.4971 216.266 60.7538 216.173 60.9218 215.986C61.0991 215.79 61.1878 215.538 61.1878 215.23V214.138H62.3918ZM65.0427 221.25L66.2327 220.83C66.2794 221.194 66.4381 221.497 66.7087 221.74C66.9794 221.973 67.3434 222.09 67.8007 222.09C68.1554 222.09 68.4354 222.006 68.6407 221.838C68.8461 221.661 68.9487 221.446 68.9487 221.194C68.9487 220.746 68.6594 220.457 68.0807 220.326L66.9327 220.074C66.4101 219.962 65.9994 219.738 65.7007 219.402C65.4021 219.066 65.2527 218.66 65.2527 218.184C65.2527 217.605 65.4861 217.106 65.9527 216.686C66.4287 216.266 66.9934 216.056 67.6467 216.056C68.0761 216.056 68.4587 216.121 68.7947 216.252C69.1307 216.373 69.3921 216.537 69.5787 216.742C69.7654 216.947 69.9054 217.139 69.9987 217.316C70.0921 217.493 70.1621 217.675 70.2087 217.862L69.0467 218.296C69.0281 218.184 68.9954 218.077 68.9487 217.974C68.9021 217.862 68.8274 217.741 68.7247 217.61C68.6314 217.479 68.4914 217.377 68.3047 217.302C68.1181 217.218 67.8987 217.176 67.6467 217.176C67.3201 217.176 67.0494 217.265 66.8347 217.442C66.6294 217.619 66.5267 217.829 66.5267 218.072C66.5267 218.501 66.7834 218.772 67.2967 218.884L68.3887 219.122C68.9861 219.253 69.4434 219.495 69.7607 219.85C70.0874 220.195 70.2507 220.62 70.2507 221.124C70.2507 221.656 70.0314 222.137 69.5927 222.566C69.1634 222.995 68.5614 223.21 67.7867 223.21C66.9561 223.21 66.3074 223.005 65.8407 222.594C65.3741 222.174 65.1081 221.726 65.0427 221.25ZM74.8728 221.25L76.0628 220.83C76.1095 221.194 76.2681 221.497 76.5388 221.74C76.8095 221.973 77.1735 222.09 77.6308 222.09C77.9855 222.09 78.2655 222.006 78.4708 221.838C78.6761 221.661 78.7788 221.446 78.7788 221.194C78.7788 220.746 78.4895 220.457 77.9108 220.326L76.7628 220.074C76.2401 219.962 75.8295 219.738 75.5308 219.402C75.2321 219.066 75.0828 218.66 75.0828 218.184C75.0828 217.605 75.3161 217.106 75.7828 216.686C76.2588 216.266 76.8235 216.056 77.4768 216.056C77.9061 216.056 78.2888 216.121 78.6248 216.252C78.9608 216.373 79.2221 216.537 79.4088 216.742C79.5955 216.947 79.7355 217.139 79.8288 217.316C79.9221 217.493 79.9921 217.675 80.0388 217.862L78.8768 218.296C78.8581 218.184 78.8255 218.077 78.7788 217.974C78.7321 217.862 78.6575 217.741 78.5548 217.61C78.4615 217.479 78.3215 217.377 78.1348 217.302C77.9481 217.218 77.7288 217.176 77.4768 217.176C77.1501 217.176 76.8795 217.265 76.6648 217.442C76.4595 217.619 76.3568 217.829 76.3568 218.072C76.3568 218.501 76.6135 218.772 77.1268 218.884L78.2188 219.122C78.8161 219.253 79.2735 219.495 79.5908 219.85C79.9175 220.195 80.0808 220.62 80.0808 221.124C80.0808 221.656 79.8615 222.137 79.4228 222.566C78.9935 222.995 78.3915 223.21 77.6168 223.21C76.7861 223.21 76.1375 223.005 75.6708 222.594C75.2041 222.174 74.9381 221.726 74.8728 221.25ZM82.6185 218.94H86.3005C86.2819 218.436 86.1139 218.025 85.7965 217.708C85.4792 217.381 85.0312 217.218 84.4525 217.218C83.9299 217.218 83.5005 217.391 83.1645 217.736C82.8285 218.072 82.6465 218.473 82.6185 218.94ZM86.4965 220.69L87.6305 221.082C87.4345 221.707 87.0705 222.221 86.5385 222.622C86.0065 223.014 85.3625 223.21 84.6065 223.21C83.6639 223.21 82.8612 222.888 82.1985 222.244C81.5452 221.591 81.2185 220.713 81.2185 219.612C81.2185 218.585 81.5359 217.736 82.1705 217.064C82.8052 216.392 83.5612 216.056 84.4385 216.056C85.4559 216.056 86.2492 216.378 86.8185 217.022C87.3879 217.657 87.6725 218.511 87.6725 219.584C87.6725 219.752 87.6632 219.892 87.6445 220.004H82.5765C82.5859 220.601 82.7819 221.091 83.1645 221.474C83.5565 221.857 84.0372 222.048 84.6065 222.048C85.5679 222.048 86.1979 221.595 86.4965 220.69ZM88.9324 221.194C88.9324 220.615 89.1191 220.153 89.4924 219.808C89.8658 219.453 90.3604 219.234 90.9764 219.15L92.7964 218.884C93.1418 218.837 93.3144 218.669 93.3144 218.38C93.3144 218.025 93.1931 217.736 92.9504 217.512C92.7078 217.288 92.3438 217.176 91.8584 217.176C91.4104 217.176 91.0558 217.302 90.7944 217.554C90.5331 217.797 90.3791 218.123 90.3324 218.534L89.0724 218.24C89.1378 217.596 89.4318 217.073 89.9544 216.672C90.4771 216.261 91.1024 216.056 91.8304 216.056C92.7824 216.056 93.4871 216.289 93.9444 216.756C94.4018 217.213 94.6304 217.801 94.6304 218.52V221.894C94.6304 222.295 94.6584 222.664 94.7144 223H93.4264C93.3798 222.72 93.3564 222.417 93.3564 222.09C93.1698 222.389 92.8944 222.65 92.5304 222.874C92.1758 223.098 91.7278 223.21 91.1864 223.21C90.5238 223.21 89.9824 223.014 89.5624 222.622C89.1424 222.221 88.9324 221.745 88.9324 221.194ZM91.3684 222.104C91.9564 222.104 92.4278 221.945 92.7824 221.628C93.1371 221.311 93.3144 220.807 93.3144 220.116V219.808L91.2564 220.116C90.9578 220.163 90.7198 220.27 90.5424 220.438C90.3651 220.606 90.2764 220.835 90.2764 221.124C90.2764 221.385 90.3744 221.614 90.5704 221.81C90.7758 222.006 91.0418 222.104 91.3684 222.104ZM97.9825 223H96.6805V216.266H97.9405V217.162C98.1459 216.807 98.4352 216.537 98.8085 216.35C99.1819 216.163 99.5739 216.07 99.9845 216.07C100.423 216.07 100.825 216.177 101.189 216.392C101.553 216.607 101.823 216.924 102.001 217.344C102.467 216.495 103.219 216.07 104.255 216.07C104.899 216.07 105.445 216.289 105.893 216.728C106.35 217.167 106.579 217.801 106.579 218.632V223H105.277V218.772C105.277 218.305 105.155 217.932 104.913 217.652C104.679 217.372 104.325 217.232 103.849 217.232C103.391 217.232 103.018 217.395 102.729 217.722C102.439 218.039 102.295 218.441 102.295 218.926V223H100.979V218.772C100.979 218.305 100.857 217.932 100.615 217.652C100.381 217.372 100.027 217.232 99.5505 217.232C99.0839 217.232 98.7059 217.391 98.4165 217.708C98.1272 218.025 97.9825 218.436 97.9825 218.94V223ZM110 223H108.684V212.864H110V223ZM113.093 218.94H116.775C116.756 218.436 116.588 218.025 116.271 217.708C115.954 217.381 115.506 217.218 114.927 217.218C114.404 217.218 113.975 217.391 113.639 217.736C113.303 218.072 113.121 218.473 113.093 218.94ZM116.971 220.69L118.105 221.082C117.909 221.707 117.545 222.221 117.013 222.622C116.481 223.014 115.837 223.21 115.081 223.21C114.138 223.21 113.336 222.888 112.673 222.244C112.02 221.591 111.693 220.713 111.693 219.612C111.693 218.585 112.01 217.736 112.645 217.064C113.28 216.392 114.036 216.056 114.913 216.056C115.93 216.056 116.724 216.378 117.293 217.022C117.862 217.657 118.147 218.511 118.147 219.584C118.147 219.752 118.138 219.892 118.119 220.004H113.051C113.06 220.601 113.256 221.091 113.639 221.474C114.031 221.857 114.512 222.048 115.081 222.048C116.042 222.048 116.672 221.595 116.971 220.69ZM119.197 221.25L120.387 220.83C120.434 221.194 120.592 221.497 120.863 221.74C121.134 221.973 121.498 222.09 121.955 222.09C122.31 222.09 122.59 222.006 122.795 221.838C123 221.661 123.103 221.446 123.103 221.194C123.103 220.746 122.814 220.457 122.235 220.326L121.087 220.074C120.564 219.962 120.154 219.738 119.855 219.402C119.556 219.066 119.407 218.66 119.407 218.184C119.407 217.605 119.64 217.106 120.107 216.686C120.583 216.266 121.148 216.056 121.801 216.056C122.23 216.056 122.613 216.121 122.949 216.252C123.285 216.373 123.546 216.537 123.733 216.742C123.92 216.947 124.06 217.139 124.153 217.316C124.246 217.493 124.316 217.675 124.363 217.862L123.201 218.296C123.182 218.184 123.15 218.077 123.103 217.974C123.056 217.862 122.982 217.741 122.879 217.61C122.786 217.479 122.646 217.377 122.459 217.302C122.272 217.218 122.053 217.176 121.801 217.176C121.474 217.176 121.204 217.265 120.989 217.442C120.784 217.619 120.681 217.829 120.681 218.072C120.681 218.501 120.938 218.772 121.451 218.884L122.543 219.122C123.14 219.253 123.598 219.495 123.915 219.85C124.242 220.195 124.405 220.62 124.405 221.124C124.405 221.656 124.186 222.137 123.747 222.566C123.318 222.995 122.716 223.21 121.941 223.21C121.11 223.21 120.462 223.005 119.995 222.594C119.528 222.174 119.262 221.726 119.197 221.25ZM125.527 221.25L126.717 220.83C126.764 221.194 126.922 221.497 127.193 221.74C127.464 221.973 127.828 222.09 128.285 222.09C128.64 222.09 128.92 222.006 129.125 221.838C129.33 221.661 129.433 221.446 129.433 221.194C129.433 220.746 129.144 220.457 128.565 220.326L127.417 220.074C126.894 219.962 126.484 219.738 126.185 219.402C125.886 219.066 125.737 218.66 125.737 218.184C125.737 217.605 125.97 217.106 126.437 216.686C126.913 216.266 127.478 216.056 128.131 216.056C128.56 216.056 128.943 216.121 129.279 216.252C129.615 216.373 129.876 216.537 130.063 216.742C130.25 216.947 130.39 217.139 130.483 217.316C130.576 217.493 130.646 217.675 130.693 217.862L129.531 218.296C129.512 218.184 129.48 218.077 129.433 217.974C129.386 217.862 129.312 217.741 129.209 217.61C129.116 217.479 128.976 217.377 128.789 217.302C128.602 217.218 128.383 217.176 128.131 217.176C127.804 217.176 127.534 217.265 127.319 217.442C127.114 217.619 127.011 217.829 127.011 218.072C127.011 218.501 127.268 218.772 127.781 218.884L128.873 219.122C129.47 219.253 129.928 219.495 130.245 219.85C130.572 220.195 130.735 220.62 130.735 221.124C130.735 221.656 130.516 222.137 130.077 222.566C129.648 222.995 129.046 223.21 128.271 223.21C127.44 223.21 126.792 223.005 126.325 222.594C125.858 222.174 125.592 221.726 125.527 221.25ZM133.803 223H132.487V212.864H133.803V223ZM137.722 225.814H136.28L137.96 222.258L135.062 216.266H136.574L138.674 220.914L140.69 216.266H142.104L137.722 225.814ZM141.965 222.79C141.778 222.603 141.685 222.375 141.685 222.104C141.685 221.833 141.778 221.605 141.965 221.418C142.152 221.222 142.38 221.124 142.651 221.124C142.922 221.124 143.15 221.222 143.337 221.418C143.533 221.605 143.631 221.833 143.631 222.104C143.631 222.375 143.533 222.603 143.337 222.79C143.15 222.977 142.922 223.07 142.651 223.07C142.38 223.07 142.152 222.977 141.965 222.79Z" fill="#5E6C84"/>
</svg>
