<svg width="264" height="281" viewBox="0 0 264 281" fill="none" xmlns="http://www.w3.org/2000/svg">
<rect width="264" height="281" rx="16" fill="white"/>
<circle cx="64" cy="64" r="32" fill="#008DA6"/>
<path d="M49.2972 60.9731C49.2069 60.973 49.1188 60.9446 49.0454 60.8919C48.972 60.8392 48.917 60.7649 48.888 60.6793C48.8591 60.5937 48.8576 60.5012 48.884 60.4147C48.9103 60.3283 48.963 60.2522 49.0348 60.1973L53.7915 56.5601C53.8828 56.4929 53.9968 56.4643 54.109 56.4803C54.2212 56.4963 54.3227 56.5558 54.3915 56.6459C54.4603 56.7359 54.491 56.8494 54.477 56.9619C54.4629 57.0744 54.4053 57.1768 54.3165 57.2473L49.5597 60.884C49.4845 60.9419 49.3922 60.9732 49.2972 60.9731Z" fill="white"/>
<path d="M78.7027 79.1354H69.3794C69.2647 79.1354 69.1547 79.0898 69.0736 79.0087C68.9926 78.9276 68.947 78.8176 68.947 78.7029C68.947 78.5882 68.9926 78.4783 69.0736 78.3972C69.1547 78.3161 69.2647 78.2705 69.3794 78.2705H78.2702V60.5408C78.2702 60.4261 78.3158 60.3161 78.3969 60.235C78.478 60.1539 78.588 60.1083 78.7027 60.1083C78.8173 60.1083 78.9273 60.1539 79.0084 60.235C79.0895 60.3161 79.1351 60.4261 79.1351 60.5408V78.7029C79.1351 78.8176 79.0895 78.9276 79.0084 79.0087C78.9273 79.0898 78.8173 79.1354 78.7027 79.1354Z" fill="white"/>
<path d="M62.041 79.1353H60.7827C60.668 79.1353 60.558 79.0897 60.4769 79.0086C60.3958 78.9275 60.3502 78.8175 60.3502 78.7028C60.3502 78.5881 60.3958 78.4781 60.4769 78.397C60.558 78.3159 60.668 78.2704 60.7827 78.2704H62.041C62.1557 78.2704 62.2657 78.3159 62.3468 78.397C62.4279 78.4781 62.4735 78.5881 62.4735 78.7028C62.4735 78.8175 62.4279 78.9275 62.3468 79.0086C62.2657 79.0897 62.1557 79.1353 62.041 79.1353Z" fill="white"/>
<path d="M57.7556 79.1354H49.2972C49.1826 79.1354 49.0726 79.0898 48.9915 79.0087C48.9104 78.9276 48.8648 78.8176 48.8648 78.7029V60.5408C48.8648 60.4261 48.9104 60.3161 48.9915 60.235C49.0726 60.1539 49.1826 60.1083 49.2972 60.1083C49.4119 60.1083 49.5219 60.1539 49.603 60.235C49.6841 60.3161 49.7297 60.4261 49.7297 60.5408V78.2705H57.7556C57.8703 78.2705 57.9803 78.3161 58.0614 78.3972C58.1425 78.4783 58.1881 78.5882 58.1881 78.7029C58.1881 78.8176 58.1425 78.9276 58.0614 79.0087C57.9803 79.0898 57.8703 79.1354 57.7556 79.1354Z" fill="white"/>
<path d="M66.3525 79.1353H65.0681C64.9535 79.1353 64.8435 79.0897 64.7624 79.0086C64.6813 78.9275 64.6357 78.8175 64.6357 78.7028C64.6357 78.5881 64.6813 78.4781 64.7624 78.397C64.8435 78.3159 64.9535 78.2704 65.0681 78.2704H66.3525C66.4671 78.2704 66.5771 78.3159 66.6582 78.397C66.7393 78.4781 66.7849 78.5881 66.7849 78.7028C66.7849 78.8175 66.7393 78.9275 66.6582 79.0086C66.5771 79.0897 66.4671 79.1353 66.3525 79.1353Z" fill="white"/>
<path d="M67.7444 52.5924C67.6497 52.5923 67.5576 52.5612 67.4823 52.5037L64 49.8417L60.5176 52.5037C60.4265 52.5734 60.3114 52.604 60.1977 52.5889C60.084 52.5737 59.981 52.514 59.9113 52.4229C59.8416 52.3317 59.811 52.2167 59.8262 52.103C59.8414 51.9893 59.9011 51.8863 59.9922 51.8166L63.7375 48.9539C63.8129 48.8963 63.9051 48.8651 64 48.8651C64.0948 48.8651 64.1871 48.8963 64.2624 48.9539L68.0077 51.8166C68.0795 51.8716 68.1323 51.9477 68.1586 52.0342C68.1849 52.1207 68.1834 52.2133 68.1543 52.299C68.1253 52.3846 68.0701 52.459 67.9965 52.5116C67.923 52.5642 67.8348 52.5925 67.7444 52.5924Z" fill="white"/>
<path d="M78.7028 60.9729C78.6078 60.973 78.5155 60.9417 78.4403 60.8838L73.6835 57.2471C73.6009 57.1747 73.549 57.0737 73.5381 56.9644C73.5273 56.8552 73.5585 56.7459 73.6253 56.6588C73.692 56.5716 73.7895 56.5132 73.8978 56.4952C74.0061 56.4773 74.1172 56.5012 74.2085 56.5621L78.9652 60.1993C79.0361 60.2545 79.088 60.3304 79.1138 60.4164C79.1396 60.5024 79.1379 60.5944 79.1091 60.6794C79.0802 60.7645 79.0256 60.8384 78.9528 60.891C78.88 60.9436 78.7926 60.9722 78.7028 60.9729Z" fill="white"/>
<path d="M64 71.4125C62.5937 71.4142 61.2306 70.9264 60.1448 70.0326L49.0222 60.8728C48.9337 60.7999 48.8778 60.6948 48.8667 60.5806C48.8557 60.4664 48.8905 60.3525 48.9634 60.264C49.0364 60.1754 49.1415 60.1195 49.2557 60.1085C49.3699 60.0974 49.4838 60.1322 49.5723 60.2051L60.6949 69.3649C61.6266 70.1297 62.7946 70.5477 64 70.5477C65.2053 70.5477 66.3734 70.1297 67.3051 69.3649L78.4276 60.2051C78.4715 60.169 78.522 60.1419 78.5763 60.1253C78.6307 60.1087 78.6877 60.103 78.7443 60.1085C78.8008 60.1139 78.8557 60.1305 78.9059 60.1571C78.956 60.1838 79.0004 60.2201 79.0365 60.264C79.0726 60.3078 79.0998 60.3583 79.1163 60.4126C79.1329 60.467 79.1387 60.524 79.1332 60.5806C79.1277 60.6371 79.1112 60.692 79.0845 60.7422C79.0578 60.7923 79.0215 60.8367 78.9777 60.8728L67.8551 70.0326C66.7693 70.9264 65.4063 71.4142 64 71.4125Z" fill="white"/>
<path d="M78.7027 79.1352C78.6023 79.1352 78.5051 79.1003 78.4276 79.0366L67.4006 69.9555C67.3568 69.9193 67.3205 69.8749 67.2938 69.8248C67.2671 69.7747 67.2506 69.7197 67.2451 69.6632C67.2396 69.6067 67.2454 69.5496 67.262 69.4953C67.2786 69.441 67.3057 69.3904 67.3418 69.3466C67.3779 69.3028 67.4223 69.2665 67.4725 69.2398C67.5226 69.2131 67.5775 69.1966 67.6341 69.1911C67.6906 69.1856 67.7477 69.1914 67.802 69.2079C67.8563 69.2245 67.9068 69.2517 67.9507 69.2878L78.9777 78.3689C79.0465 78.4255 79.0961 78.502 79.1197 78.5879C79.1434 78.6738 79.1399 78.7649 79.1098 78.8488C79.0797 78.9327 79.0245 79.0052 78.9516 79.0564C78.8787 79.1077 78.7918 79.1352 78.7027 79.1352Z" fill="white"/>
<path d="M49.2973 79.1351C49.2082 79.1352 49.1213 79.1077 49.0484 79.0564C48.9755 79.0052 48.9202 78.9327 48.8901 78.8488C48.86 78.7649 48.8566 78.6738 48.8802 78.5879C48.9039 78.502 48.9535 78.4255 49.0223 78.3689L60.0493 69.2878C60.1379 69.2148 60.2517 69.1801 60.3659 69.1911C60.4801 69.2021 60.5852 69.2581 60.6582 69.3466C60.7311 69.4351 60.7659 69.549 60.7549 69.6632C60.7438 69.7774 60.6879 69.8825 60.5994 69.9555L49.5723 79.0365C49.4949 79.1003 49.3976 79.1352 49.2973 79.1351Z" fill="white"/>
<path d="M73.946 64.8907C73.8313 64.8907 73.7213 64.8451 73.6402 64.764C73.5591 64.6829 73.5135 64.5729 73.5135 64.4583V52.5945H54.4865V64.4583C54.4865 64.5729 54.4409 64.6829 54.3599 64.764C54.2788 64.8451 54.1688 64.8907 54.0541 64.8907C53.9394 64.8907 53.8294 64.8451 53.7483 64.764C53.6672 64.6829 53.6216 64.5729 53.6216 64.4583V52.162C53.6216 52.0474 53.6672 51.9374 53.7483 51.8563C53.8294 51.7752 53.9394 51.7296 54.0541 51.7296H73.946C74.0607 51.7296 74.1706 51.7752 74.2517 51.8563C74.3328 51.9374 74.3784 52.0474 74.3784 52.162V64.4583C74.3784 64.5729 74.3328 64.6829 74.2517 64.764C74.1706 64.8451 74.0607 64.8907 73.946 64.8907Z" fill="white"/>
<path d="M64 60.0856C63.5914 60.0856 63.192 59.9644 62.8523 59.7374C62.5126 59.5104 62.2478 59.1878 62.0915 58.8104C61.9351 58.4329 61.8942 58.0175 61.9739 57.6168C62.0536 57.2161 62.2504 56.848 62.5393 56.5591C62.8282 56.2702 63.1963 56.0735 63.597 55.9938C63.9977 55.9141 64.413 55.955 64.7905 56.1113C65.168 56.2677 65.4906 56.5325 65.7176 56.8722C65.9445 57.2119 66.0657 57.6113 66.0657 58.0198C66.0657 58.1345 66.0201 58.2445 65.939 58.3256C65.8579 58.4067 65.748 58.4523 65.6333 58.4523C65.5186 58.4523 65.4086 58.4067 65.3275 58.3256C65.2464 58.2445 65.2008 58.1345 65.2008 58.0198C65.2008 57.7823 65.1304 57.5502 64.9985 57.3527C64.8665 57.1552 64.679 57.0013 64.4595 56.9104C64.2401 56.8195 63.9986 56.7957 63.7657 56.842C63.5327 56.8884 63.3188 57.0028 63.1508 57.1707C62.9829 57.3386 62.8685 57.5526 62.8222 57.7856C62.7758 58.0185 62.7996 58.26 62.8905 58.4794C62.9814 58.6988 63.1353 58.8864 63.3328 59.0183C63.5303 59.1503 63.7625 59.2207 64 59.2207C64.1147 59.2207 64.2246 59.2663 64.3057 59.3474C64.3868 59.4285 64.4324 59.5384 64.4324 59.6531C64.4324 59.7678 64.3868 59.8778 64.3057 59.9589C64.2246 60.04 64.1147 60.0856 64 60.0856Z" fill="white"/>
<path d="M64 63.3512C63.4523 63.3506 62.9272 63.1328 62.5399 62.7455C62.1526 62.3582 61.9348 61.8331 61.9342 61.2854C61.9342 61.1708 61.9798 61.0608 62.0609 60.9797C62.142 60.8986 62.252 60.853 62.3667 60.853C62.4814 60.853 62.5913 60.8986 62.6724 60.9797C62.7535 61.0608 62.7991 61.1708 62.7991 61.2854C62.7989 61.523 62.8692 61.7553 63.0011 61.9528C63.1329 62.1504 63.3204 62.3045 63.5398 62.3955C63.7592 62.4865 64.0007 62.5104 64.2337 62.4642C64.4667 62.418 64.6808 62.3037 64.8488 62.1358C65.0168 61.9678 65.1313 61.7539 65.1777 61.5209C65.2241 61.2879 65.2004 61.0464 65.1095 60.827C65.0186 60.6075 64.8647 60.4199 64.6672 60.2879C64.4697 60.1559 64.2375 60.0854 64 60.0854C63.8853 60.0854 63.7753 60.0399 63.6942 59.9588C63.6131 59.8777 63.5675 59.7677 63.5675 59.653C63.5675 59.5383 63.6131 59.4283 63.6942 59.3472C63.7753 59.2661 63.8853 59.2206 64 59.2206C64.2747 59.215 64.5479 59.2642 64.8034 59.3655C65.0589 59.4668 65.2916 59.618 65.4879 59.8103C65.6842 60.0027 65.8402 60.2322 65.9467 60.4856C66.0531 60.739 66.108 61.011 66.108 61.2859C66.108 61.5607 66.0531 61.8328 65.9467 62.0862C65.8402 62.3395 65.6842 62.5691 65.4879 62.7614C65.2916 62.9538 65.0589 63.105 64.8034 63.2063C64.5479 63.3075 64.2747 63.3568 64 63.3512Z" fill="white"/>
<path d="M64.0026 64.1805C63.888 64.1805 63.778 64.1349 63.6969 64.0538C63.6158 63.9727 63.5702 63.8627 63.5702 63.7481V62.9221C63.5702 62.8074 63.6158 62.6974 63.6969 62.6163C63.778 62.5352 63.888 62.4897 64.0026 62.4897C64.1173 62.4897 64.2273 62.5352 64.3084 62.6163C64.3895 62.6974 64.4351 62.8074 64.4351 62.9221V63.7481C64.4351 63.8627 64.3895 63.9727 64.3084 64.0538C64.2273 64.1349 64.1173 64.1805 64.0026 64.1805Z" fill="white"/>
<path d="M64.0026 56.8214C63.888 56.8214 63.778 56.7759 63.6969 56.6948C63.6158 56.6137 63.5702 56.5037 63.5702 56.389V55.5583C63.5702 55.4436 63.6158 55.3336 63.6969 55.2525C63.778 55.1714 63.888 55.1259 64.0026 55.1259C64.1173 55.1259 64.2273 55.1714 64.3084 55.2525C64.3895 55.3336 64.4351 55.4436 64.4351 55.5583V56.389C64.4351 56.5037 64.3895 56.6137 64.3084 56.6948C64.2273 56.7759 64.1173 56.8214 64.0026 56.8214Z" fill="white"/>
<path d="M37.28 143.736H39.896C40.712 143.736 41.36 143.52 41.84 143.088C42.32 142.64 42.56 142.048 42.56 141.312C42.56 140.56 42.32 139.968 41.84 139.536C41.376 139.088 40.728 138.864 39.896 138.864H37.28V143.736ZM40.304 146.592H37.256V153H33.944V135.984H40.304C41.968 135.984 43.312 136.48 44.336 137.472C45.376 138.464 45.896 139.736 45.896 141.288C45.896 142.84 45.376 144.112 44.336 145.104C43.312 146.096 41.968 146.592 40.304 146.592ZM47.1168 149.784C47.1168 148.776 47.4448 147.968 48.1008 147.36C48.7568 146.752 49.6048 146.368 50.6448 146.208L53.5488 145.776C54.1408 145.696 54.4368 145.416 54.4368 144.936C54.4368 144.488 54.2608 144.12 53.9088 143.832C53.5728 143.544 53.0848 143.4 52.4448 143.4C51.7728 143.4 51.2368 143.584 50.8368 143.952C50.4528 144.32 50.2368 144.776 50.1888 145.32L47.3568 144.72C47.4688 143.696 47.9728 142.792 48.8688 142.008C49.7648 141.224 50.9488 140.832 52.4208 140.832C54.1808 140.832 55.4768 141.256 56.3088 142.104C57.1408 142.936 57.5568 144.008 57.5568 145.32V151.128C57.5568 151.832 57.6048 152.456 57.7008 153H54.7728C54.6928 152.648 54.6528 152.176 54.6528 151.584C53.9008 152.752 52.7408 153.336 51.1728 153.336C49.9568 153.336 48.9728 152.984 48.2208 152.28C47.4848 151.576 47.1168 150.744 47.1168 149.784ZM51.8448 150.96C52.5968 150.96 53.2128 150.752 53.6928 150.336C54.1888 149.904 54.4368 149.2 54.4368 148.224V147.696L51.7728 148.104C50.7968 148.248 50.3088 148.744 50.3088 149.592C50.3088 149.976 50.4448 150.304 50.7168 150.576C50.9888 150.832 51.3648 150.96 51.8448 150.96ZM64.5496 157.656H61.1656L63.9496 151.512L58.9336 141.192H62.5096L65.6536 148.104L68.5576 141.192H71.9656L64.5496 157.656ZM81.0993 141.144V144.36C80.7793 144.296 80.4593 144.264 80.1393 144.264C79.2273 144.264 78.4913 144.528 77.9313 145.056C77.3713 145.568 77.0913 146.416 77.0913 147.6V153H73.8993V141.192H76.9953V142.944C77.5713 141.712 78.6913 141.096 80.3553 141.096C80.5313 141.096 80.7793 141.112 81.0993 141.144ZM86.3954 149.568C86.9874 150.16 87.6994 150.456 88.5314 150.456C89.3634 150.456 90.0674 150.16 90.6434 149.568C91.2354 148.976 91.5314 148.152 91.5314 147.096C91.5314 146.04 91.2354 145.216 90.6434 144.624C90.0674 144.032 89.3634 143.736 88.5314 143.736C87.6994 143.736 86.9874 144.032 86.3954 144.624C85.8194 145.216 85.5314 146.04 85.5314 147.096C85.5314 148.152 85.8194 148.976 86.3954 149.568ZM84.0914 142.608C85.2754 141.424 86.7554 140.832 88.5314 140.832C90.3074 140.832 91.7794 141.424 92.9474 142.608C94.1314 143.792 94.7234 145.288 94.7234 147.096C94.7234 148.904 94.1314 150.4 92.9474 151.584C91.7794 152.768 90.3074 153.36 88.5314 153.36C86.7554 153.36 85.2754 152.768 84.0914 151.584C82.9234 150.4 82.3394 148.904 82.3394 147.096C82.3394 145.288 82.9234 143.792 84.0914 142.608ZM100.435 153H97.2431V135.624H100.435V153ZM107.044 153H103.852V135.624H107.044V153Z" fill="#091E42"/>
<path d="M35.08 175.16C34.38 175.841 34.03 176.798 34.03 178.03C34.03 179.262 34.38 180.223 35.08 180.914C35.78 181.605 36.6247 181.95 37.614 181.95C38.6033 181.95 39.448 181.605 40.148 180.914C40.848 180.223 41.198 179.262 41.198 178.03C41.198 176.798 40.848 175.841 40.148 175.16C39.448 174.469 38.6033 174.124 37.614 174.124C36.6247 174.124 35.78 174.469 35.08 175.16ZM32.63 178.03C32.63 177.227 32.77 176.495 33.05 175.832C33.3393 175.169 33.7173 174.628 34.184 174.208C34.66 173.779 35.192 173.447 35.78 173.214C36.368 172.981 36.9793 172.864 37.614 172.864C38.2487 172.864 38.86 172.981 39.448 173.214C40.036 173.447 40.5633 173.779 41.03 174.208C41.506 174.628 41.884 175.169 42.164 175.832C42.4533 176.495 42.598 177.227 42.598 178.03C42.598 179.094 42.3507 180.027 41.856 180.83C41.3707 181.633 40.7547 182.23 40.008 182.622C39.2613 183.014 38.4633 183.21 37.614 183.21C36.7647 183.21 35.9667 183.014 35.22 182.622C34.4733 182.23 33.8527 181.633 33.358 180.83C32.8727 180.027 32.63 179.094 32.63 178.03ZM48.7826 182.188C48.6053 182.524 48.3346 182.781 47.9706 182.958C47.6066 183.126 47.2146 183.21 46.7946 183.21C46.0293 183.21 45.4179 182.958 44.9606 182.454C44.5033 181.941 44.2746 181.292 44.2746 180.508V176.266H45.5906V180.312C45.5906 180.816 45.7119 181.231 45.9546 181.558C46.2066 181.885 46.5939 182.048 47.1166 182.048C47.6393 182.048 48.0359 181.894 48.3066 181.586C48.5773 181.269 48.7126 180.849 48.7126 180.326V176.266H50.0286V181.754C50.0286 182.193 50.0519 182.608 50.0986 183H48.8386C48.8013 182.795 48.7826 182.524 48.7826 182.188ZM56.0123 176.196V177.596C55.8163 177.568 55.625 177.554 55.4383 177.554C54.2063 177.554 53.5903 178.245 53.5903 179.626V183H52.2743V176.266H53.5623V177.442C53.973 176.583 54.645 176.154 55.5783 176.154C55.7276 176.154 55.8723 176.168 56.0123 176.196ZM61.7689 178.94H65.4509C65.4323 178.436 65.2643 178.025 64.9469 177.708C64.6296 177.381 64.1816 177.218 63.6029 177.218C63.0803 177.218 62.6509 177.391 62.3149 177.736C61.9789 178.072 61.7969 178.473 61.7689 178.94ZM65.6469 180.69L66.7809 181.082C66.5849 181.707 66.2209 182.221 65.6889 182.622C65.1569 183.014 64.5129 183.21 63.7569 183.21C62.8143 183.21 62.0116 182.888 61.3489 182.244C60.6956 181.591 60.3689 180.713 60.3689 179.612C60.3689 178.585 60.6863 177.736 61.3209 177.064C61.9556 176.392 62.7116 176.056 63.5889 176.056C64.6063 176.056 65.3996 176.378 65.9689 177.022C66.5383 177.657 66.8229 178.511 66.8229 179.584C66.8229 179.752 66.8136 179.892 66.7949 180.004H61.7269C61.7363 180.601 61.9323 181.091 62.3149 181.474C62.7069 181.857 63.1876 182.048 63.7569 182.048C64.7183 182.048 65.3483 181.595 65.6469 180.69ZM68.0828 181.194C68.0828 180.615 68.2695 180.153 68.6428 179.808C69.0161 179.453 69.5108 179.234 70.1268 179.15L71.9468 178.884C72.2921 178.837 72.4648 178.669 72.4648 178.38C72.4648 178.025 72.3435 177.736 72.1008 177.512C71.8581 177.288 71.4941 177.176 71.0088 177.176C70.5608 177.176 70.2061 177.302 69.9448 177.554C69.6835 177.797 69.5295 178.123 69.4828 178.534L68.2228 178.24C68.2881 177.596 68.5821 177.073 69.1048 176.672C69.6275 176.261 70.2528 176.056 70.9808 176.056C71.9328 176.056 72.6375 176.289 73.0948 176.756C73.5521 177.213 73.7808 177.801 73.7808 178.52V181.894C73.7808 182.295 73.8088 182.664 73.8648 183H72.5768C72.5301 182.72 72.5068 182.417 72.5068 182.09C72.3201 182.389 72.0448 182.65 71.6808 182.874C71.3261 183.098 70.8781 183.21 70.3368 183.21C69.6741 183.21 69.1328 183.014 68.7128 182.622C68.2928 182.221 68.0828 181.745 68.0828 181.194ZM70.5188 182.104C71.1068 182.104 71.5781 181.945 71.9328 181.628C72.2875 181.311 72.4648 180.807 72.4648 180.116V179.808L70.4068 180.116C70.1081 180.163 69.8701 180.27 69.6928 180.438C69.5155 180.606 69.4268 180.835 69.4268 181.124C69.4268 181.385 69.5248 181.614 69.7208 181.81C69.9261 182.006 70.1921 182.104 70.5188 182.104ZM75.2009 181.25L76.3909 180.83C76.4376 181.194 76.5963 181.497 76.8669 181.74C77.1376 181.973 77.5016 182.09 77.9589 182.09C78.3136 182.09 78.5936 182.006 78.7989 181.838C79.0043 181.661 79.1069 181.446 79.1069 181.194C79.1069 180.746 78.8176 180.457 78.2389 180.326L77.0909 180.074C76.5683 179.962 76.1576 179.738 75.8589 179.402C75.5603 179.066 75.4109 178.66 75.4109 178.184C75.4109 177.605 75.6443 177.106 76.1109 176.686C76.5869 176.266 77.1516 176.056 77.8049 176.056C78.2343 176.056 78.6169 176.121 78.9529 176.252C79.2889 176.373 79.5503 176.537 79.7369 176.742C79.9236 176.947 80.0636 177.139 80.1569 177.316C80.2503 177.493 80.3203 177.675 80.3669 177.862L79.2049 178.296C79.1863 178.184 79.1536 178.077 79.1069 177.974C79.0603 177.862 78.9856 177.741 78.8829 177.61C78.7896 177.479 78.6496 177.377 78.4629 177.302C78.2763 177.218 78.0569 177.176 77.8049 177.176C77.4783 177.176 77.2076 177.265 76.9929 177.442C76.7876 177.619 76.6849 177.829 76.6849 178.072C76.6849 178.501 76.9416 178.772 77.4549 178.884L78.5469 179.122C79.1443 179.253 79.6016 179.495 79.9189 179.85C80.2456 180.195 80.4089 180.62 80.4089 181.124C80.4089 181.656 80.1896 182.137 79.7509 182.566C79.3216 182.995 78.7196 183.21 77.9449 183.21C77.1143 183.21 76.4656 183.005 75.9989 182.594C75.5323 182.174 75.2663 181.726 75.2009 181.25ZM83.7727 185.814H82.3307L84.0107 182.258L81.1127 176.266H82.6247L84.7247 180.914L86.7407 176.266H88.1547L83.7727 185.814ZM94.6848 174.138V176.266H96.1408V177.456H94.6848V180.956C94.6848 181.273 94.7548 181.507 94.8948 181.656C95.0441 181.805 95.2868 181.88 95.6228 181.88C95.8188 181.88 95.9914 181.861 96.1408 181.824V182.944C95.9168 183.028 95.6181 183.07 95.2448 183.07C94.6661 183.07 94.2088 182.902 93.8728 182.566C93.5368 182.23 93.3688 181.759 93.3688 181.152V177.456H92.0808V176.266H92.4448C92.7901 176.266 93.0468 176.173 93.2148 175.986C93.3921 175.79 93.4808 175.538 93.4808 175.23V174.138H94.6848ZM99.215 181.404C99.6257 181.824 100.125 182.034 100.713 182.034C101.301 182.034 101.796 181.824 102.197 181.404C102.608 180.975 102.813 180.382 102.813 179.626C102.813 178.879 102.608 178.296 102.197 177.876C101.796 177.447 101.301 177.232 100.713 177.232C100.125 177.232 99.6257 177.447 99.215 177.876C98.8137 178.296 98.613 178.879 98.613 179.626C98.613 180.382 98.8137 180.975 99.215 181.404ZM98.235 177.078C98.8883 176.397 99.7143 176.056 100.713 176.056C101.712 176.056 102.533 176.397 103.177 177.078C103.83 177.75 104.157 178.599 104.157 179.626C104.157 180.662 103.835 181.521 103.191 182.202C102.547 182.874 101.721 183.21 100.713 183.21C99.705 183.21 98.879 182.874 98.235 182.202C97.591 181.521 97.269 180.662 97.269 179.626C97.269 178.599 97.591 177.75 98.235 177.078ZM113.779 182.188C113.601 182.524 113.331 182.781 112.967 182.958C112.603 183.126 112.211 183.21 111.791 183.21C111.025 183.21 110.414 182.958 109.957 182.454C109.499 181.941 109.271 181.292 109.271 180.508V176.266H110.587V180.312C110.587 180.816 110.708 181.231 110.951 181.558C111.203 181.885 111.59 182.048 112.113 182.048C112.635 182.048 113.032 181.894 113.303 181.586C113.573 181.269 113.709 180.849 113.709 180.326V176.266H115.025V181.754C115.025 182.193 115.048 182.608 115.095 183H113.835C113.797 182.795 113.779 182.524 113.779 182.188ZM116.64 181.25L117.83 180.83C117.877 181.194 118.036 181.497 118.306 181.74C118.577 181.973 118.941 182.09 119.398 182.09C119.753 182.09 120.033 182.006 120.238 181.838C120.444 181.661 120.546 181.446 120.546 181.194C120.546 180.746 120.257 180.457 119.678 180.326L118.53 180.074C118.008 179.962 117.597 179.738 117.298 179.402C117 179.066 116.85 178.66 116.85 178.184C116.85 177.605 117.084 177.106 117.55 176.686C118.026 176.266 118.591 176.056 119.244 176.056C119.674 176.056 120.056 176.121 120.392 176.252C120.728 176.373 120.99 176.537 121.176 176.742C121.363 176.947 121.503 177.139 121.596 177.316C121.69 177.493 121.76 177.675 121.806 177.862L120.644 178.296C120.626 178.184 120.593 178.077 120.546 177.974C120.5 177.862 120.425 177.741 120.322 177.61C120.229 177.479 120.089 177.377 119.902 177.302C119.716 177.218 119.496 177.176 119.244 177.176C118.918 177.176 118.647 177.265 118.432 177.442C118.227 177.619 118.124 177.829 118.124 178.072C118.124 178.501 118.381 178.772 118.894 178.884L119.986 179.122C120.584 179.253 121.041 179.495 121.358 179.85C121.685 180.195 121.848 180.62 121.848 181.124C121.848 181.656 121.629 182.137 121.19 182.566C120.761 182.995 120.159 183.21 119.384 183.21C118.554 183.21 117.905 183.005 117.438 182.594C116.972 182.174 116.706 181.726 116.64 181.25ZM124.386 178.94H128.068C128.049 178.436 127.881 178.025 127.564 177.708C127.247 177.381 126.799 177.218 126.22 177.218C125.697 177.218 125.268 177.391 124.932 177.736C124.596 178.072 124.414 178.473 124.386 178.94ZM128.264 180.69L129.398 181.082C129.202 181.707 128.838 182.221 128.306 182.622C127.774 183.014 127.13 183.21 126.374 183.21C125.431 183.21 124.629 182.888 123.966 182.244C123.313 181.591 122.986 180.713 122.986 179.612C122.986 178.585 123.303 177.736 123.938 177.064C124.573 176.392 125.329 176.056 126.206 176.056C127.223 176.056 128.017 176.378 128.586 177.022C129.155 177.657 129.44 178.511 129.44 179.584C129.44 179.752 129.431 179.892 129.412 180.004H124.344C124.353 180.601 124.549 181.091 124.932 181.474C125.324 181.857 125.805 182.048 126.374 182.048C127.335 182.048 127.965 181.595 128.264 180.69ZM133.99 181.25L135.18 180.83C135.227 181.194 135.385 181.497 135.656 181.74C135.927 181.973 136.291 182.09 136.748 182.09C137.103 182.09 137.383 182.006 137.588 181.838C137.793 181.661 137.896 181.446 137.896 181.194C137.896 180.746 137.607 180.457 137.028 180.326L135.88 180.074C135.357 179.962 134.947 179.738 134.648 179.402C134.349 179.066 134.2 178.66 134.2 178.184C134.2 177.605 134.433 177.106 134.9 176.686C135.376 176.266 135.941 176.056 136.594 176.056C137.023 176.056 137.406 176.121 137.742 176.252C138.078 176.373 138.339 176.537 138.526 176.742C138.713 176.947 138.853 177.139 138.946 177.316C139.039 177.493 139.109 177.675 139.156 177.862L137.994 178.296C137.975 178.184 137.943 178.077 137.896 177.974C137.849 177.862 137.775 177.741 137.672 177.61C137.579 177.479 137.439 177.377 137.252 177.302C137.065 177.218 136.846 177.176 136.594 177.176C136.267 177.176 135.997 177.265 135.782 177.442C135.577 177.619 135.474 177.829 135.474 178.072C135.474 178.501 135.731 178.772 136.244 178.884L137.336 179.122C137.933 179.253 138.391 179.495 138.708 179.85C139.035 180.195 139.198 180.62 139.198 181.124C139.198 181.656 138.979 182.137 138.54 182.566C138.111 182.995 137.509 183.21 136.734 183.21C135.903 183.21 135.255 183.005 134.788 182.594C134.321 182.174 134.055 181.726 133.99 181.25ZM142.562 185.814H141.12L142.8 182.258L139.902 176.266H141.414L143.514 180.914L145.53 176.266H146.944L142.562 185.814ZM147.443 181.25L148.633 180.83C148.68 181.194 148.838 181.497 149.109 181.74C149.38 181.973 149.744 182.09 150.201 182.09C150.556 182.09 150.836 182.006 151.041 181.838C151.246 181.661 151.349 181.446 151.349 181.194C151.349 180.746 151.06 180.457 150.481 180.326L149.333 180.074C148.81 179.962 148.4 179.738 148.101 179.402C147.802 179.066 147.653 178.66 147.653 178.184C147.653 177.605 147.886 177.106 148.353 176.686C148.829 176.266 149.394 176.056 150.047 176.056C150.476 176.056 150.859 176.121 151.195 176.252C151.531 176.373 151.792 176.537 151.979 176.742C152.166 176.947 152.306 177.139 152.399 177.316C152.492 177.493 152.562 177.675 152.609 177.862L151.447 178.296C151.428 178.184 151.396 178.077 151.349 177.974C151.302 177.862 151.228 177.741 151.125 177.61C151.032 177.479 150.892 177.377 150.705 177.302C150.518 177.218 150.299 177.176 150.047 177.176C149.72 177.176 149.45 177.265 149.235 177.442C149.03 177.619 148.927 177.829 148.927 178.072C148.927 178.501 149.184 178.772 149.697 178.884L150.789 179.122C151.386 179.253 151.844 179.495 152.161 179.85C152.488 180.195 152.651 180.62 152.651 181.124C152.651 181.656 152.432 182.137 151.993 182.566C151.564 182.995 150.962 183.21 150.187 183.21C149.356 183.21 148.708 183.005 148.241 182.594C147.774 182.174 147.508 181.726 147.443 181.25ZM156.167 174.138V176.266H157.623V177.456H156.167V180.956C156.167 181.273 156.237 181.507 156.377 181.656C156.527 181.805 156.769 181.88 157.105 181.88C157.301 181.88 157.474 181.861 157.623 181.824V182.944C157.399 183.028 157.101 183.07 156.727 183.07C156.149 183.07 155.691 182.902 155.355 182.566C155.019 182.23 154.851 181.759 154.851 181.152V177.456H153.563V176.266H153.927C154.273 176.266 154.529 176.173 154.697 175.986C154.875 175.79 154.963 175.538 154.963 175.23V174.138H156.167ZM160.165 178.94H163.847C163.829 178.436 163.661 178.025 163.343 177.708C163.026 177.381 162.578 177.218 161.999 177.218C161.477 177.218 161.047 177.391 160.711 177.736C160.375 178.072 160.193 178.473 160.165 178.94ZM164.043 180.69L165.177 181.082C164.981 181.707 164.617 182.221 164.085 182.622C163.553 183.014 162.909 183.21 162.153 183.21C161.211 183.21 160.408 182.888 159.745 182.244C159.092 181.591 158.765 180.713 158.765 179.612C158.765 178.585 159.083 177.736 159.717 177.064C160.352 176.392 161.108 176.056 161.985 176.056C163.003 176.056 163.796 176.378 164.365 177.022C164.935 177.657 165.219 178.511 165.219 179.584C165.219 179.752 165.21 179.892 165.191 180.004H160.123C160.133 180.601 160.329 181.091 160.711 181.474C161.103 181.857 161.584 182.048 162.153 182.048C163.115 182.048 163.745 181.595 164.043 180.69ZM168.201 183H166.899V176.266H168.159V177.162C168.365 176.807 168.654 176.537 169.027 176.35C169.401 176.163 169.793 176.07 170.203 176.07C170.642 176.07 171.043 176.177 171.407 176.392C171.771 176.607 172.042 176.924 172.219 177.344C172.686 176.495 173.437 176.07 174.473 176.07C175.117 176.07 175.663 176.289 176.111 176.728C176.569 177.167 176.797 177.801 176.797 178.632V183H175.495V178.772C175.495 178.305 175.374 177.932 175.131 177.652C174.898 177.372 174.543 177.232 174.067 177.232C173.61 177.232 173.237 177.395 172.947 177.722C172.658 178.039 172.513 178.441 172.513 178.926V183H171.197V178.772C171.197 178.305 171.076 177.932 170.833 177.652C170.6 177.372 170.245 177.232 169.769 177.232C169.303 177.232 168.925 177.391 168.635 177.708C168.346 178.025 168.201 178.436 168.201 178.94V183ZM178.273 181.25L179.463 180.83C179.51 181.194 179.669 181.497 179.939 181.74C180.21 181.973 180.574 182.09 181.031 182.09C181.386 182.09 181.666 182.006 181.871 181.838C182.077 181.661 182.179 181.446 182.179 181.194C182.179 180.746 181.89 180.457 181.311 180.326L180.163 180.074C179.641 179.962 179.23 179.738 178.931 179.402C178.633 179.066 178.483 178.66 178.483 178.184C178.483 177.605 178.717 177.106 179.183 176.686C179.659 176.266 180.224 176.056 180.877 176.056C181.307 176.056 181.689 176.121 182.025 176.252C182.361 176.373 182.623 176.537 182.809 176.742C182.996 176.947 183.136 177.139 183.229 177.316C183.323 177.493 183.393 177.675 183.439 177.862L182.277 178.296C182.259 178.184 182.226 178.077 182.179 177.974C182.133 177.862 182.058 177.741 181.955 177.61C181.862 177.479 181.722 177.377 181.535 177.302C181.349 177.218 181.129 177.176 180.877 177.176C180.551 177.176 180.28 177.265 180.065 177.442C179.86 177.619 179.757 177.829 179.757 178.072C179.757 178.501 180.014 178.772 180.527 178.884L181.619 179.122C182.217 179.253 182.674 179.495 182.991 179.85C183.318 180.195 183.481 180.62 183.481 181.124C183.481 181.656 183.262 182.137 182.823 182.566C182.394 182.995 181.792 183.21 181.017 183.21C180.187 183.21 179.538 183.005 179.071 182.594C178.605 182.174 178.339 181.726 178.273 181.25ZM190.497 174.138V176.266H191.953V177.456H190.497V180.956C190.497 181.273 190.567 181.507 190.707 181.656C190.857 181.805 191.099 181.88 191.435 181.88C191.631 181.88 191.804 181.861 191.953 181.824V182.944C191.729 183.028 191.431 183.07 191.057 183.07C190.479 183.07 190.021 182.902 189.685 182.566C189.349 182.23 189.181 181.759 189.181 181.152V177.456H187.893V176.266H188.257C188.603 176.266 188.859 176.173 189.027 175.986C189.205 175.79 189.293 175.538 189.293 175.23V174.138H190.497ZM193.29 181.194C193.29 180.615 193.477 180.153 193.85 179.808C194.223 179.453 194.718 179.234 195.334 179.15L197.154 178.884C197.499 178.837 197.672 178.669 197.672 178.38C197.672 178.025 197.551 177.736 197.308 177.512C197.065 177.288 196.701 177.176 196.216 177.176C195.768 177.176 195.413 177.302 195.152 177.554C194.891 177.797 194.737 178.123 194.69 178.534L193.43 178.24C193.495 177.596 193.789 177.073 194.312 176.672C194.835 176.261 195.46 176.056 196.188 176.056C197.14 176.056 197.845 176.289 198.302 176.756C198.759 177.213 198.988 177.801 198.988 178.52V181.894C198.988 182.295 199.016 182.664 199.072 183H197.784C197.737 182.72 197.714 182.417 197.714 182.09C197.527 182.389 197.252 182.65 196.888 182.874C196.533 183.098 196.085 183.21 195.544 183.21C194.881 183.21 194.34 183.014 193.92 182.622C193.5 182.221 193.29 181.745 193.29 181.194ZM195.726 182.104C196.314 182.104 196.785 181.945 197.14 181.628C197.495 181.311 197.672 180.807 197.672 180.116V179.808L195.614 180.116C195.315 180.163 195.077 180.27 194.9 180.438C194.723 180.606 194.634 180.835 194.634 181.124C194.634 181.385 194.732 181.614 194.928 181.81C195.133 182.006 195.399 182.104 195.726 182.104ZM207.072 176.266L204.202 179.108L207.128 183H205.476L203.278 180.032L202.34 180.97V183H201.038V172.864H202.34V179.248L205.252 176.266H207.072ZM208.892 178.94H212.574C212.555 178.436 212.387 178.025 212.07 177.708C211.753 177.381 211.305 177.218 210.726 177.218C210.203 177.218 209.774 177.391 209.438 177.736C209.102 178.072 208.92 178.473 208.892 178.94ZM212.77 180.69L213.904 181.082C213.708 181.707 213.344 182.221 212.812 182.622C212.28 183.014 211.636 183.21 210.88 183.21C209.937 183.21 209.135 182.888 208.472 182.244C207.819 181.591 207.492 180.713 207.492 179.612C207.492 178.585 207.809 177.736 208.444 177.064C209.079 176.392 209.835 176.056 210.712 176.056C211.729 176.056 212.523 176.378 213.092 177.022C213.661 177.657 213.946 178.511 213.946 179.584C213.946 179.752 213.937 179.892 213.918 180.004H208.85C208.859 180.601 209.055 181.091 209.438 181.474C209.83 181.857 210.311 182.048 210.88 182.048C211.841 182.048 212.471 181.595 212.77 180.69ZM214.996 181.25L216.186 180.83C216.233 181.194 216.391 181.497 216.662 181.74C216.933 181.973 217.297 182.09 217.754 182.09C218.109 182.09 218.389 182.006 218.594 181.838C218.799 181.661 218.902 181.446 218.902 181.194C218.902 180.746 218.613 180.457 218.034 180.326L216.886 180.074C216.363 179.962 215.953 179.738 215.654 179.402C215.355 179.066 215.206 178.66 215.206 178.184C215.206 177.605 215.439 177.106 215.906 176.686C216.382 176.266 216.947 176.056 217.6 176.056C218.029 176.056 218.412 176.121 218.748 176.252C219.084 176.373 219.345 176.537 219.532 176.742C219.719 176.947 219.859 177.139 219.952 177.316C220.045 177.493 220.115 177.675 220.162 177.862L219 178.296C218.981 178.184 218.949 178.077 218.902 177.974C218.855 177.862 218.781 177.741 218.678 177.61C218.585 177.479 218.445 177.377 218.258 177.302C218.071 177.218 217.852 177.176 217.6 177.176C217.273 177.176 217.003 177.265 216.788 177.442C216.583 177.619 216.48 177.829 216.48 178.072C216.48 178.501 216.737 178.772 217.25 178.884L218.342 179.122C218.939 179.253 219.397 179.495 219.714 179.85C220.041 180.195 220.204 180.62 220.204 181.124C220.204 181.656 219.985 182.137 219.546 182.566C219.117 182.995 218.515 183.21 217.74 183.21C216.909 183.21 216.261 183.005 215.794 182.594C215.327 182.174 215.061 181.726 214.996 181.25ZM32.7 201.194C32.7 200.615 32.8867 200.153 33.26 199.808C33.6333 199.453 34.128 199.234 34.744 199.15L36.564 198.884C36.9093 198.837 37.082 198.669 37.082 198.38C37.082 198.025 36.9607 197.736 36.718 197.512C36.4753 197.288 36.1113 197.176 35.626 197.176C35.178 197.176 34.8233 197.302 34.562 197.554C34.3007 197.797 34.1467 198.123 34.1 198.534L32.84 198.24C32.9053 197.596 33.1993 197.073 33.722 196.672C34.2447 196.261 34.87 196.056 35.598 196.056C36.55 196.056 37.2547 196.289 37.712 196.756C38.1693 197.213 38.398 197.801 38.398 198.52V201.894C38.398 202.295 38.426 202.664 38.482 203H37.194C37.1473 202.72 37.124 202.417 37.124 202.09C36.9373 202.389 36.662 202.65 36.298 202.874C35.9433 203.098 35.4953 203.21 34.954 203.21C34.2913 203.21 33.75 203.014 33.33 202.622C32.91 202.221 32.7 201.745 32.7 201.194ZM35.136 202.104C35.724 202.104 36.1953 201.945 36.55 201.628C36.9047 201.311 37.082 200.807 37.082 200.116V199.808L35.024 200.116C34.7253 200.163 34.4873 200.27 34.31 200.438C34.1327 200.606 34.044 200.835 34.044 201.124C34.044 201.385 34.142 201.614 34.338 201.81C34.5433 202.006 34.8093 202.104 35.136 202.104ZM44.2421 196.266H45.6001L47.3501 201.334L48.8341 196.266H50.2201L48.0361 203H46.6781L44.8861 197.876L43.1361 203H41.7501L39.5381 196.266H40.9801L42.4921 201.334L44.2421 196.266ZM51.0613 201.194C51.0613 200.615 51.248 200.153 51.6213 199.808C51.9947 199.453 52.4893 199.234 53.1053 199.15L54.9253 198.884C55.2707 198.837 55.4433 198.669 55.4433 198.38C55.4433 198.025 55.322 197.736 55.0793 197.512C54.8367 197.288 54.4727 197.176 53.9873 197.176C53.5393 197.176 53.1847 197.302 52.9233 197.554C52.662 197.797 52.508 198.123 52.4613 198.534L51.2013 198.24C51.2667 197.596 51.5607 197.073 52.0833 196.672C52.606 196.261 53.2313 196.056 53.9593 196.056C54.9113 196.056 55.616 196.289 56.0733 196.756C56.5307 197.213 56.7593 197.801 56.7593 198.52V201.894C56.7593 202.295 56.7873 202.664 56.8433 203H55.5553C55.5087 202.72 55.4853 202.417 55.4853 202.09C55.2987 202.389 55.0233 202.65 54.6593 202.874C54.3047 203.098 53.8567 203.21 53.3153 203.21C52.6527 203.21 52.1113 203.014 51.6913 202.622C51.2713 202.221 51.0613 201.745 51.0613 201.194ZM53.4973 202.104C54.0853 202.104 54.5567 201.945 54.9113 201.628C55.266 201.311 55.4433 200.807 55.4433 200.116V199.808L53.3853 200.116C53.0867 200.163 52.8487 200.27 52.6713 200.438C52.494 200.606 52.4053 200.835 52.4053 201.124C52.4053 201.385 52.5033 201.614 52.6993 201.81C52.9047 202.006 53.1707 202.104 53.4973 202.104ZM60.3527 205.814H58.9107L60.5907 202.258L57.6927 196.266H59.2047L61.3047 200.914L63.3207 196.266H64.7347L60.3527 205.814ZM71.2649 194.138V196.266H72.7209V197.456H71.2649V200.956C71.2649 201.273 71.3349 201.507 71.4749 201.656C71.6242 201.805 71.8669 201.88 72.2029 201.88C72.3989 201.88 72.5715 201.861 72.7209 201.824V202.944C72.4969 203.028 72.1982 203.07 71.8249 203.07C71.2462 203.07 70.7889 202.902 70.4529 202.566C70.1169 202.23 69.9489 201.759 69.9489 201.152V197.456H68.6609V196.266H69.0249C69.3702 196.266 69.6269 196.173 69.7949 195.986C69.9722 195.79 70.0609 195.538 70.0609 195.23V194.138H71.2649ZM75.7934 199.038V203H74.4774V192.864H75.7934V197.05C76.2414 196.397 76.9228 196.07 77.8374 196.07C78.6121 196.07 79.2048 196.317 79.6154 196.812C80.0354 197.307 80.2454 197.946 80.2454 198.73V203H78.9294V198.954C78.9294 197.825 78.4068 197.26 77.3614 197.26C76.8761 197.26 76.4981 197.428 76.2274 197.764C75.9568 198.091 75.8121 198.515 75.7934 199.038ZM83.1928 198.94H86.8748C86.8561 198.436 86.6881 198.025 86.3708 197.708C86.0534 197.381 85.6054 197.218 85.0268 197.218C84.5041 197.218 84.0748 197.391 83.7388 197.736C83.4028 198.072 83.2208 198.473 83.1928 198.94ZM87.0708 200.69L88.2048 201.082C88.0088 201.707 87.6448 202.221 87.1128 202.622C86.5808 203.014 85.9368 203.21 85.1808 203.21C84.2381 203.21 83.4354 202.888 82.7728 202.244C82.1194 201.591 81.7928 200.713 81.7928 199.612C81.7928 198.585 82.1101 197.736 82.7448 197.064C83.3794 196.392 84.1354 196.056 85.0128 196.056C86.0301 196.056 86.8234 196.378 87.3928 197.022C87.9621 197.657 88.2468 198.511 88.2468 199.584C88.2468 199.752 88.2374 199.892 88.2188 200.004H83.1508C83.1601 200.601 83.3561 201.091 83.7388 201.474C84.1308 201.857 84.6114 202.048 85.1808 202.048C86.1421 202.048 86.7721 201.595 87.0708 200.69ZM94.7286 205.66H93.4266V196.266H94.7006V197.316C94.8966 196.961 95.1906 196.672 95.5826 196.448C95.9746 196.224 96.432 196.112 96.9546 196.112C97.9253 196.112 98.6813 196.443 99.2226 197.106C99.7733 197.769 100.049 198.609 100.049 199.626C100.049 200.653 99.764 201.502 99.1946 202.174C98.6346 202.846 97.874 203.182 96.9126 203.182C96.418 203.182 95.9793 203.079 95.5966 202.874C95.214 202.669 94.9246 202.407 94.7286 202.09V205.66ZM98.7046 199.626C98.7046 198.945 98.5226 198.385 98.1586 197.946C97.804 197.498 97.3233 197.274 96.7166 197.274C96.1193 197.274 95.634 197.498 95.2606 197.946C94.8966 198.385 94.7146 198.945 94.7146 199.626C94.7146 200.326 94.8966 200.9 95.2606 201.348C95.634 201.787 96.1193 202.006 96.7166 202.006C97.314 202.006 97.7946 201.787 98.1586 201.348C98.5226 200.9 98.7046 200.326 98.7046 199.626ZM101.305 201.194C101.305 200.615 101.492 200.153 101.865 199.808C102.239 199.453 102.733 199.234 103.349 199.15L105.169 198.884C105.515 198.837 105.687 198.669 105.687 198.38C105.687 198.025 105.566 197.736 105.323 197.512C105.081 197.288 104.717 197.176 104.231 197.176C103.783 197.176 103.429 197.302 103.167 197.554C102.906 197.797 102.752 198.123 102.705 198.534L101.445 198.24C101.511 197.596 101.805 197.073 102.327 196.672C102.85 196.261 103.475 196.056 104.203 196.056C105.155 196.056 105.86 196.289 106.317 196.756C106.775 197.213 107.003 197.801 107.003 198.52V201.894C107.003 202.295 107.031 202.664 107.087 203H105.799C105.753 202.72 105.729 202.417 105.729 202.09C105.543 202.389 105.267 202.65 104.903 202.874C104.549 203.098 104.101 203.21 103.559 203.21C102.897 203.21 102.355 203.014 101.935 202.622C101.515 202.221 101.305 201.745 101.305 201.194ZM103.741 202.104C104.329 202.104 104.801 201.945 105.155 201.628C105.51 201.311 105.687 200.807 105.687 200.116V199.808L103.629 200.116C103.331 200.163 103.093 200.27 102.915 200.438C102.738 200.606 102.649 200.835 102.649 201.124C102.649 201.385 102.747 201.614 102.943 201.81C103.149 202.006 103.415 202.104 103.741 202.104ZM110.356 203H109.054V196.266H110.356V203ZM109.026 194.39C108.848 194.203 108.76 193.979 108.76 193.718C108.76 193.457 108.848 193.233 109.026 193.046C109.212 192.859 109.436 192.766 109.698 192.766C109.959 192.766 110.183 192.859 110.37 193.046C110.556 193.223 110.65 193.447 110.65 193.718C110.65 193.979 110.556 194.203 110.37 194.39C110.183 194.567 109.959 194.656 109.698 194.656C109.436 194.656 109.212 194.567 109.026 194.39ZM113.911 199.108V203H112.595V196.266H113.883V197.232C114.331 196.457 115.021 196.07 115.955 196.07C116.729 196.07 117.322 196.317 117.733 196.812C118.153 197.307 118.363 197.946 118.363 198.73V203H117.047V198.954C117.047 197.825 116.524 197.26 115.479 197.26C114.984 197.26 114.597 197.437 114.317 197.792C114.046 198.137 113.911 198.576 113.911 199.108ZM125.342 201.404C125.753 201.824 126.252 202.034 126.84 202.034C127.428 202.034 127.923 201.824 128.324 201.404C128.735 200.975 128.94 200.382 128.94 199.626C128.94 198.879 128.735 198.296 128.324 197.876C127.923 197.447 127.428 197.232 126.84 197.232C126.252 197.232 125.753 197.447 125.342 197.876C124.941 198.296 124.74 198.879 124.74 199.626C124.74 200.382 124.941 200.975 125.342 201.404ZM124.362 197.078C125.015 196.397 125.841 196.056 126.84 196.056C127.839 196.056 128.66 196.397 129.304 197.078C129.957 197.75 130.284 198.599 130.284 199.626C130.284 200.662 129.962 201.521 129.318 202.202C128.674 202.874 127.848 203.21 126.84 203.21C125.832 203.21 125.006 202.874 124.362 202.202C123.718 201.521 123.396 200.662 123.396 199.626C123.396 198.599 123.718 197.75 124.362 197.078ZM135.356 197.456H133.732V203H132.374V197.456H131.128V196.266H132.374V195.132C132.374 194.413 132.584 193.849 133.004 193.438C133.424 193.027 133.951 192.822 134.586 192.822C134.987 192.822 135.248 192.869 135.37 192.962V194.138C135.23 194.082 135.038 194.054 134.796 194.054C134.506 194.054 134.254 194.143 134.04 194.32C133.834 194.488 133.732 194.782 133.732 195.202V196.266H135.356V197.456ZM141.568 203H140.266V196.266H141.526V197.162C141.732 196.807 142.021 196.537 142.394 196.35C142.768 196.163 143.16 196.07 143.57 196.07C144.009 196.07 144.41 196.177 144.774 196.392C145.138 196.607 145.409 196.924 145.586 197.344C146.053 196.495 146.804 196.07 147.84 196.07C148.484 196.07 149.03 196.289 149.478 196.728C149.936 197.167 150.164 197.801 150.164 198.632V203H148.862V198.772C148.862 198.305 148.741 197.932 148.498 197.652C148.265 197.372 147.91 197.232 147.434 197.232C146.977 197.232 146.604 197.395 146.314 197.722C146.025 198.039 145.88 198.441 145.88 198.926V203H144.564V198.772C144.564 198.305 144.443 197.932 144.2 197.652C143.967 197.372 143.612 197.232 143.136 197.232C142.67 197.232 142.292 197.391 142.002 197.708C141.713 198.025 141.568 198.436 141.568 198.94V203ZM151.85 201.194C151.85 200.615 152.037 200.153 152.41 199.808C152.784 199.453 153.278 199.234 153.894 199.15L155.714 198.884C156.06 198.837 156.232 198.669 156.232 198.38C156.232 198.025 156.111 197.736 155.868 197.512C155.626 197.288 155.262 197.176 154.776 197.176C154.328 197.176 153.974 197.302 153.712 197.554C153.451 197.797 153.297 198.123 153.25 198.534L151.99 198.24C152.056 197.596 152.35 197.073 152.872 196.672C153.395 196.261 154.02 196.056 154.748 196.056C155.7 196.056 156.405 196.289 156.862 196.756C157.32 197.213 157.548 197.801 157.548 198.52V201.894C157.548 202.295 157.576 202.664 157.632 203H156.344C156.298 202.72 156.274 202.417 156.274 202.09C156.088 202.389 155.812 202.65 155.448 202.874C155.094 203.098 154.646 203.21 154.104 203.21C153.442 203.21 152.9 203.014 152.48 202.622C152.06 202.221 151.85 201.745 151.85 201.194ZM154.286 202.104C154.874 202.104 155.346 201.945 155.7 201.628C156.055 201.311 156.232 200.807 156.232 200.116V199.808L154.174 200.116C153.876 200.163 153.638 200.27 153.46 200.438C153.283 200.606 153.194 200.835 153.194 201.124C153.194 201.385 153.292 201.614 153.488 201.81C153.694 202.006 153.96 202.104 154.286 202.104ZM160.915 199.108V203H159.599V196.266H160.887V197.232C161.335 196.457 162.025 196.07 162.959 196.07C163.733 196.07 164.326 196.317 164.737 196.812C165.157 197.307 165.367 197.946 165.367 198.73V203H164.051V198.954C164.051 197.825 163.528 197.26 162.483 197.26C161.988 197.26 161.601 197.437 161.321 197.792C161.05 198.137 160.915 198.576 160.915 199.108ZM167.04 201.194C167.04 200.615 167.227 200.153 167.6 199.808C167.973 199.453 168.468 199.234 169.084 199.15L170.904 198.884C171.249 198.837 171.422 198.669 171.422 198.38C171.422 198.025 171.301 197.736 171.058 197.512C170.815 197.288 170.451 197.176 169.966 197.176C169.518 197.176 169.163 197.302 168.902 197.554C168.641 197.797 168.487 198.123 168.44 198.534L167.18 198.24C167.245 197.596 167.539 197.073 168.062 196.672C168.585 196.261 169.21 196.056 169.938 196.056C170.89 196.056 171.595 196.289 172.052 196.756C172.509 197.213 172.738 197.801 172.738 198.52V201.894C172.738 202.295 172.766 202.664 172.822 203H171.534C171.487 202.72 171.464 202.417 171.464 202.09C171.277 202.389 171.002 202.65 170.638 202.874C170.283 203.098 169.835 203.21 169.294 203.21C168.631 203.21 168.09 203.014 167.67 202.622C167.25 202.221 167.04 201.745 167.04 201.194ZM169.476 202.104C170.064 202.104 170.535 201.945 170.89 201.628C171.245 201.311 171.422 200.807 171.422 200.116V199.808L169.364 200.116C169.065 200.163 168.827 200.27 168.65 200.438C168.473 200.606 168.384 200.835 168.384 201.124C168.384 201.385 168.482 201.614 168.678 201.81C168.883 202.006 169.149 202.104 169.476 202.104ZM174.298 203.364L175.572 203.07C175.619 203.546 175.81 203.938 176.146 204.246C176.482 204.563 176.902 204.722 177.406 204.722C178.778 204.722 179.464 203.994 179.464 202.538V201.572C179.296 201.899 179.03 202.165 178.666 202.37C178.311 202.575 177.891 202.678 177.406 202.678C176.51 202.678 175.768 202.375 175.18 201.768C174.601 201.152 174.312 200.368 174.312 199.416C174.312 198.492 174.601 197.717 175.18 197.092C175.759 196.457 176.501 196.14 177.406 196.14C178.433 196.14 179.123 196.495 179.478 197.204V196.266H180.78V202.496C180.78 202.944 180.719 203.359 180.598 203.742C180.486 204.134 180.304 204.493 180.052 204.82C179.8 205.147 179.445 205.403 178.988 205.59C178.54 205.777 178.013 205.87 177.406 205.87C176.575 205.87 175.871 205.632 175.292 205.156C174.713 204.689 174.382 204.092 174.298 203.364ZM177.602 201.572C178.171 201.572 178.633 201.376 178.988 200.984C179.343 200.583 179.52 200.06 179.52 199.416C179.52 198.772 179.343 198.254 178.988 197.862C178.633 197.461 178.171 197.26 177.602 197.26C177.023 197.26 176.552 197.456 176.188 197.848C175.833 198.24 175.656 198.763 175.656 199.416C175.656 200.079 175.829 200.606 176.174 200.998C176.529 201.381 177.005 201.572 177.602 201.572ZM184.184 203H182.882V196.266H184.184V203ZM182.854 194.39C182.676 194.203 182.588 193.979 182.588 193.718C182.588 193.457 182.676 193.233 182.854 193.046C183.04 192.859 183.264 192.766 183.526 192.766C183.787 192.766 184.011 192.859 184.198 193.046C184.384 193.223 184.478 193.447 184.478 193.718C184.478 193.979 184.384 194.203 184.198 194.39C184.011 194.567 183.787 194.656 183.526 194.656C183.264 194.656 183.04 194.567 182.854 194.39ZM187.739 199.108V203H186.423V196.266H187.711V197.232C188.159 196.457 188.849 196.07 189.783 196.07C190.557 196.07 191.15 196.317 191.561 196.812C191.981 197.307 192.191 197.946 192.191 198.73V203H190.875V198.954C190.875 197.825 190.352 197.26 189.307 197.26C188.812 197.26 188.425 197.437 188.145 197.792C187.874 198.137 187.739 198.576 187.739 199.108ZM193.794 203.364L195.068 203.07C195.115 203.546 195.306 203.938 195.642 204.246C195.978 204.563 196.398 204.722 196.902 204.722C198.274 204.722 198.96 203.994 198.96 202.538V201.572C198.792 201.899 198.526 202.165 198.162 202.37C197.807 202.575 197.387 202.678 196.902 202.678C196.006 202.678 195.264 202.375 194.676 201.768C194.097 201.152 193.808 200.368 193.808 199.416C193.808 198.492 194.097 197.717 194.676 197.092C195.255 196.457 195.997 196.14 196.902 196.14C197.929 196.14 198.619 196.495 198.974 197.204V196.266H200.276V202.496C200.276 202.944 200.215 203.359 200.094 203.742C199.982 204.134 199.8 204.493 199.548 204.82C199.296 205.147 198.941 205.403 198.484 205.59C198.036 205.777 197.509 205.87 196.902 205.87C196.071 205.87 195.367 205.632 194.788 205.156C194.209 204.689 193.878 204.092 193.794 203.364ZM197.098 201.572C197.667 201.572 198.129 201.376 198.484 200.984C198.839 200.583 199.016 200.06 199.016 199.416C199.016 198.772 198.839 198.254 198.484 197.862C198.129 197.461 197.667 197.26 197.098 197.26C196.519 197.26 196.048 197.456 195.684 197.848C195.329 198.24 195.152 198.763 195.152 199.416C195.152 200.079 195.325 200.606 195.67 200.998C196.025 201.381 196.501 201.572 197.098 201.572ZM35.948 217.274C35.3787 217.274 34.8933 217.479 34.492 217.89C34.1 218.301 33.904 218.879 33.904 219.626C33.904 220.363 34.1 220.942 34.492 221.362C34.8933 221.782 35.3833 221.992 35.962 221.992C36.522 221.992 36.9467 221.852 37.236 221.572C37.5347 221.292 37.7353 220.97 37.838 220.606L39 221.11C38.8133 221.67 38.4587 222.16 37.936 222.58C37.4227 223 36.7647 223.21 35.962 223.21C34.982 223.21 34.17 222.869 33.526 222.188C32.882 221.507 32.56 220.653 32.56 219.626C32.56 218.581 32.882 217.727 33.526 217.064C34.17 216.392 34.9773 216.056 35.948 216.056C36.7693 216.056 37.432 216.266 37.936 216.686C38.4493 217.106 38.7853 217.61 38.944 218.198L37.754 218.702C37.6513 218.31 37.4553 217.974 37.166 217.694C36.8767 217.414 36.4707 217.274 35.948 217.274ZM41.8615 221.404C42.2721 221.824 42.7715 222.034 43.3595 222.034C43.9475 222.034 44.4421 221.824 44.8435 221.404C45.2541 220.975 45.4595 220.382 45.4595 219.626C45.4595 218.879 45.2541 218.296 44.8435 217.876C44.4421 217.447 43.9475 217.232 43.3595 217.232C42.7715 217.232 42.2721 217.447 41.8615 217.876C41.4601 218.296 41.2595 218.879 41.2595 219.626C41.2595 220.382 41.4601 220.975 41.8615 221.404ZM40.8815 217.078C41.5348 216.397 42.3608 216.056 43.3595 216.056C44.3581 216.056 45.1795 216.397 45.8235 217.078C46.4768 217.75 46.8035 218.599 46.8035 219.626C46.8035 220.662 46.4815 221.521 45.8375 222.202C45.1935 222.874 44.3675 223.21 43.3595 223.21C42.3515 223.21 41.5255 222.874 40.8815 222.202C40.2375 221.521 39.9155 220.662 39.9155 219.626C39.9155 218.599 40.2375 217.75 40.8815 217.078ZM49.7892 223H48.4872V216.266H49.7472V217.162C49.9525 216.807 50.2419 216.537 50.6152 216.35C50.9885 216.163 51.3805 216.07 51.7912 216.07C52.2299 216.07 52.6312 216.177 52.9952 216.392C53.3592 216.607 53.6299 216.924 53.8072 217.344C54.2739 216.495 55.0252 216.07 56.0612 216.07C56.7052 216.07 57.2512 216.289 57.6992 216.728C58.1565 217.167 58.3852 217.801 58.3852 218.632V223H57.0832V218.772C57.0832 218.305 56.9619 217.932 56.7192 217.652C56.4859 217.372 56.1312 217.232 55.6552 217.232C55.1979 217.232 54.8245 217.395 54.5352 217.722C54.2459 218.039 54.1012 218.441 54.1012 218.926V223H52.7852V218.772C52.7852 218.305 52.6639 217.932 52.4212 217.652C52.1879 217.372 51.8332 217.232 51.3572 217.232C50.8905 217.232 50.5125 217.391 50.2232 217.708C49.9339 218.025 49.7892 218.436 49.7892 218.94V223ZM61.7931 225.66H60.4911V216.266H61.7651V217.316C61.9611 216.961 62.2551 216.672 62.6471 216.448C63.0391 216.224 63.4964 216.112 64.0191 216.112C64.9898 216.112 65.7458 216.443 66.2871 217.106C66.8378 217.769 67.1131 218.609 67.1131 219.626C67.1131 220.653 66.8284 221.502 66.2591 222.174C65.6991 222.846 64.9384 223.182 63.9771 223.182C63.4824 223.182 63.0438 223.079 62.6611 222.874C62.2784 222.669 61.9891 222.407 61.7931 222.09V225.66ZM65.7691 219.626C65.7691 218.945 65.5871 218.385 65.2231 217.946C64.8684 217.498 64.3878 217.274 63.7811 217.274C63.1838 217.274 62.6984 217.498 62.3251 217.946C61.9611 218.385 61.7791 218.945 61.7791 219.626C61.7791 220.326 61.9611 220.9 62.3251 221.348C62.6984 221.787 63.1838 222.006 63.7811 222.006C64.3784 222.006 64.8591 221.787 65.2231 221.348C65.5871 220.9 65.7691 220.326 65.7691 219.626ZM70.1059 223H68.7899V212.864H70.1059V223ZM73.1986 218.94H76.8806C76.8619 218.436 76.6939 218.025 76.3766 217.708C76.0593 217.381 75.6113 217.218 75.0326 217.218C74.5099 217.218 74.0806 217.391 73.7446 217.736C73.4086 218.072 73.2266 218.473 73.1986 218.94ZM77.0766 220.69L78.2106 221.082C78.0146 221.707 77.6506 222.221 77.1186 222.622C76.5866 223.014 75.9426 223.21 75.1866 223.21C74.2439 223.21 73.4413 222.888 72.7786 222.244C72.1253 221.591 71.7986 220.713 71.7986 219.612C71.7986 218.585 72.1159 217.736 72.7506 217.064C73.3853 216.392 74.1413 216.056 75.0186 216.056C76.0359 216.056 76.8293 216.378 77.3986 217.022C77.9679 217.657 78.2526 218.511 78.2526 219.584C78.2526 219.752 78.2433 219.892 78.2246 220.004H73.1566C73.1659 220.601 73.3619 221.091 73.7446 221.474C74.1366 221.857 74.6173 222.048 75.1866 222.048C76.1479 222.048 76.7779 221.595 77.0766 220.69ZM78.8841 223L81.3901 219.57L78.9681 216.266H80.5641L82.2161 218.632L83.8401 216.266H85.3941L83.0001 219.57C83.1401 219.747 83.5555 220.317 84.2461 221.278C84.9368 222.239 85.3475 222.813 85.4781 223H83.8961L82.1601 220.522L80.4521 223H78.8841ZM91.5431 225.66H90.2411V216.266H91.5151V217.316C91.7111 216.961 92.0051 216.672 92.3971 216.448C92.7891 216.224 93.2464 216.112 93.7691 216.112C94.7398 216.112 95.4958 216.443 96.0371 217.106C96.5878 217.769 96.8631 218.609 96.8631 219.626C96.8631 220.653 96.5784 221.502 96.0091 222.174C95.4491 222.846 94.6884 223.182 93.7271 223.182C93.2324 223.182 92.7938 223.079 92.4111 222.874C92.0284 222.669 91.7391 222.407 91.5431 222.09V225.66ZM95.5191 219.626C95.5191 218.945 95.3371 218.385 94.9731 217.946C94.6184 217.498 94.1378 217.274 93.5311 217.274C92.9338 217.274 92.4484 217.498 92.0751 217.946C91.7111 218.385 91.5291 218.945 91.5291 219.626C91.5291 220.326 91.7111 220.9 92.0751 221.348C92.4484 221.787 92.9338 222.006 93.5311 222.006C94.1284 222.006 94.6091 221.787 94.9731 221.348C95.3371 220.9 95.5191 220.326 95.5191 219.626ZM98.1199 221.194C98.1199 220.615 98.3066 220.153 98.6799 219.808C99.0533 219.453 99.5479 219.234 100.164 219.15L101.984 218.884C102.329 218.837 102.502 218.669 102.502 218.38C102.502 218.025 102.381 217.736 102.138 217.512C101.895 217.288 101.531 217.176 101.046 217.176C100.598 217.176 100.243 217.302 99.9819 217.554C99.7206 217.797 99.5666 218.123 99.5199 218.534L98.2599 218.24C98.3253 217.596 98.6193 217.073 99.1419 216.672C99.6646 216.261 100.29 216.056 101.018 216.056C101.97 216.056 102.675 216.289 103.132 216.756C103.589 217.213 103.818 217.801 103.818 218.52V221.894C103.818 222.295 103.846 222.664 103.902 223H102.614C102.567 222.72 102.544 222.417 102.544 222.09C102.357 222.389 102.082 222.65 101.718 222.874C101.363 223.098 100.915 223.21 100.374 223.21C99.7113 223.21 99.1699 223.014 98.7499 222.622C98.3299 222.221 98.1199 221.745 98.1199 221.194ZM100.556 222.104C101.144 222.104 101.615 221.945 101.97 221.628C102.325 221.311 102.502 220.807 102.502 220.116V219.808L100.444 220.116C100.145 220.163 99.9073 220.27 99.7299 220.438C99.5526 220.606 99.4639 220.835 99.4639 221.124C99.4639 221.385 99.5619 221.614 99.7579 221.81C99.9633 222.006 100.229 222.104 100.556 222.104ZM107.411 225.814H105.969L107.649 222.258L104.751 216.266H106.263L108.363 220.914L110.379 216.266H111.793L107.411 225.814ZM116.797 216.196V217.596C116.601 217.568 116.41 217.554 116.223 217.554C114.991 217.554 114.375 218.245 114.375 219.626V223H113.059V216.266H114.347V217.442C114.758 216.583 115.43 216.154 116.363 216.154C116.513 216.154 116.657 216.168 116.797 216.196ZM119.518 221.404C119.928 221.824 120.428 222.034 121.016 222.034C121.604 222.034 122.098 221.824 122.5 221.404C122.91 220.975 123.116 220.382 123.116 219.626C123.116 218.879 122.91 218.296 122.5 217.876C122.098 217.447 121.604 217.232 121.016 217.232C120.428 217.232 119.928 217.447 119.518 217.876C119.116 218.296 118.916 218.879 118.916 219.626C118.916 220.382 119.116 220.975 119.518 221.404ZM118.538 217.078C119.191 216.397 120.017 216.056 121.016 216.056C122.014 216.056 122.836 216.397 123.48 217.078C124.133 217.75 124.46 218.599 124.46 219.626C124.46 220.662 124.138 221.521 123.494 222.202C122.85 222.874 122.024 223.21 121.016 223.21C120.008 223.21 119.182 222.874 118.538 222.202C117.894 221.521 117.572 220.662 117.572 219.626C117.572 218.599 117.894 217.75 118.538 217.078ZM127.459 223H126.143V212.864H127.459V223ZM131.014 223H129.698V212.864H131.014V223ZM132.623 221.25L133.813 220.83C133.859 221.194 134.018 221.497 134.289 221.74C134.559 221.973 134.923 222.09 135.381 222.09C135.735 222.09 136.015 222.006 136.221 221.838C136.426 221.661 136.529 221.446 136.529 221.194C136.529 220.746 136.239 220.457 135.661 220.326L134.513 220.074C133.99 219.962 133.579 219.738 133.281 219.402C132.982 219.066 132.833 218.66 132.833 218.184C132.833 217.605 133.066 217.106 133.533 216.686C134.009 216.266 134.573 216.056 135.227 216.056C135.656 216.056 136.039 216.121 136.375 216.252C136.711 216.373 136.972 216.537 137.159 216.742C137.345 216.947 137.485 217.139 137.579 217.316C137.672 217.493 137.742 217.675 137.789 217.862L136.627 218.296C136.608 218.184 136.575 218.077 136.529 217.974C136.482 217.862 136.407 217.741 136.305 217.61C136.211 217.479 136.071 217.377 135.885 217.302C135.698 217.218 135.479 217.176 135.227 217.176C134.9 217.176 134.629 217.265 134.415 217.442C134.209 217.619 134.107 217.829 134.107 218.072C134.107 218.501 134.363 218.772 134.877 218.884L135.969 219.122C136.566 219.253 137.023 219.495 137.341 219.85C137.667 220.195 137.831 220.62 137.831 221.124C137.831 221.656 137.611 222.137 137.173 222.566C136.743 222.995 136.141 223.21 135.367 223.21C134.536 223.21 133.887 223.005 133.421 222.594C132.954 222.174 132.688 221.726 132.623 221.25ZM146.471 217.456H144.847V223H143.489V217.456H142.243V216.266H143.489V215.132C143.489 214.413 143.699 213.849 144.119 213.438C144.539 213.027 145.066 212.822 145.701 212.822C146.102 212.822 146.364 212.869 146.485 212.962V214.138C146.345 214.082 146.154 214.054 145.911 214.054C145.622 214.054 145.37 214.143 145.155 214.32C144.95 214.488 144.847 214.782 144.847 215.202V216.266H146.471V217.456ZM148.994 221.404C149.405 221.824 149.904 222.034 150.492 222.034C151.08 222.034 151.575 221.824 151.976 221.404C152.387 220.975 152.592 220.382 152.592 219.626C152.592 218.879 152.387 218.296 151.976 217.876C151.575 217.447 151.08 217.232 150.492 217.232C149.904 217.232 149.405 217.447 148.994 217.876C148.593 218.296 148.392 218.879 148.392 219.626C148.392 220.382 148.593 220.975 148.994 221.404ZM148.014 217.078C148.668 216.397 149.494 216.056 150.492 216.056C151.491 216.056 152.312 216.397 152.956 217.078C153.61 217.75 153.936 218.599 153.936 219.626C153.936 220.662 153.614 221.521 152.97 222.202C152.326 222.874 151.5 223.21 150.492 223.21C149.484 223.21 148.658 222.874 148.014 222.202C147.37 221.521 147.048 220.662 147.048 219.626C147.048 218.599 147.37 217.75 148.014 217.078ZM159.358 216.196V217.596C159.162 217.568 158.971 217.554 158.784 217.554C157.552 217.554 156.936 218.245 156.936 219.626V223H155.62V216.266H156.908V217.442C157.319 216.583 157.991 216.154 158.924 216.154C159.073 216.154 159.218 216.168 159.358 216.196ZM34.506 241.404C34.9167 241.824 35.416 242.034 36.004 242.034C36.592 242.034 37.0867 241.824 37.488 241.404C37.8987 240.975 38.104 240.382 38.104 239.626C38.104 238.879 37.8987 238.296 37.488 237.876C37.0867 237.447 36.592 237.232 36.004 237.232C35.416 237.232 34.9167 237.447 34.506 237.876C34.1047 238.296 33.904 238.879 33.904 239.626C33.904 240.382 34.1047 240.975 34.506 241.404ZM33.526 237.078C34.1793 236.397 35.0053 236.056 36.004 236.056C37.0027 236.056 37.824 236.397 38.468 237.078C39.1213 237.75 39.448 238.599 39.448 239.626C39.448 240.662 39.126 241.521 38.482 242.202C37.838 242.874 37.012 243.21 36.004 243.21C34.996 243.21 34.17 242.874 33.526 242.202C32.882 241.521 32.56 240.662 32.56 239.626C32.56 238.599 32.882 237.75 33.526 237.078ZM44.8697 236.196V237.596C44.6737 237.568 44.4824 237.554 44.2957 237.554C43.0637 237.554 42.4477 238.245 42.4477 239.626V243H41.1317V236.266H42.4197V237.442C42.8304 236.583 43.5024 236.154 44.4357 236.154C44.5851 236.154 44.7297 236.168 44.8697 236.196ZM45.714 243.364L46.988 243.07C47.0347 243.546 47.226 243.938 47.562 244.246C47.898 244.563 48.318 244.722 48.822 244.722C50.194 244.722 50.88 243.994 50.88 242.538V241.572C50.712 241.899 50.446 242.165 50.082 242.37C49.7273 242.575 49.3073 242.678 48.822 242.678C47.926 242.678 47.184 242.375 46.596 241.768C46.0173 241.152 45.728 240.368 45.728 239.416C45.728 238.492 46.0173 237.717 46.596 237.092C47.1747 236.457 47.9167 236.14 48.822 236.14C49.8487 236.14 50.5393 236.495 50.894 237.204V236.266H52.196V242.496C52.196 242.944 52.1353 243.359 52.014 243.742C51.902 244.134 51.72 244.493 51.468 244.82C51.216 245.147 50.8613 245.403 50.404 245.59C49.956 245.777 49.4287 245.87 48.822 245.87C47.9913 245.87 47.2867 245.632 46.708 245.156C46.1293 244.689 45.798 244.092 45.714 243.364ZM49.018 241.572C49.5873 241.572 50.0493 241.376 50.404 240.984C50.7587 240.583 50.936 240.06 50.936 239.416C50.936 238.772 50.7587 238.254 50.404 237.862C50.0493 237.461 49.5873 237.26 49.018 237.26C48.4393 237.26 47.968 237.456 47.604 237.848C47.2493 238.24 47.072 238.763 47.072 239.416C47.072 240.079 47.2447 240.606 47.59 240.998C47.9447 241.381 48.4207 241.572 49.018 241.572ZM53.8094 241.194C53.8094 240.615 53.996 240.153 54.3694 239.808C54.7427 239.453 55.2374 239.234 55.8534 239.15L57.6734 238.884C58.0187 238.837 58.1914 238.669 58.1914 238.38C58.1914 238.025 58.07 237.736 57.8274 237.512C57.5847 237.288 57.2207 237.176 56.7354 237.176C56.2874 237.176 55.9327 237.302 55.6714 237.554C55.41 237.797 55.256 238.123 55.2094 238.534L53.9494 238.24C54.0147 237.596 54.3087 237.073 54.8314 236.672C55.354 236.261 55.9794 236.056 56.7074 236.056C57.6594 236.056 58.364 236.289 58.8214 236.756C59.2787 237.213 59.5074 237.801 59.5074 238.52V241.894C59.5074 242.295 59.5354 242.664 59.5914 243H58.3034C58.2567 242.72 58.2334 242.417 58.2334 242.09C58.0467 242.389 57.7714 242.65 57.4074 242.874C57.0527 243.098 56.6047 243.21 56.0634 243.21C55.4007 243.21 54.8594 243.014 54.4394 242.622C54.0194 242.221 53.8094 241.745 53.8094 241.194ZM56.2454 242.104C56.8334 242.104 57.3047 241.945 57.6594 241.628C58.014 241.311 58.1914 240.807 58.1914 240.116V239.808L56.1334 240.116C55.8347 240.163 55.5967 240.27 55.4194 240.438C55.242 240.606 55.1534 240.835 55.1534 241.124C55.1534 241.385 55.2514 241.614 55.4474 241.81C55.6527 242.006 55.9187 242.104 56.2454 242.104ZM62.8735 239.108V243H61.5575V236.266H62.8455V237.232C63.2935 236.457 63.9842 236.07 64.9175 236.07C65.6922 236.07 66.2848 236.317 66.6955 236.812C67.1155 237.307 67.3255 237.946 67.3255 238.73V243H66.0095V238.954C66.0095 237.825 65.4868 237.26 64.4415 237.26C63.9468 237.26 63.5595 237.437 63.2795 237.792C63.0088 238.137 62.8735 238.576 62.8735 239.108ZM70.7208 243H69.4188V236.266H70.7208V243ZM69.3908 234.39C69.2135 234.203 69.1248 233.979 69.1248 233.718C69.1248 233.457 69.2135 233.233 69.3908 233.046C69.5775 232.859 69.8015 232.766 70.0628 232.766C70.3242 232.766 70.5482 232.859 70.7348 233.046C70.9215 233.223 71.0148 233.447 71.0148 233.718C71.0148 233.979 70.9215 234.203 70.7348 234.39C70.5482 234.567 70.3242 234.656 70.0628 234.656C69.8015 234.656 69.5775 234.567 69.3908 234.39ZM72.3298 241.25L73.5198 240.83C73.5665 241.194 73.7252 241.497 73.9958 241.74C74.2665 241.973 74.6305 242.09 75.0878 242.09C75.4425 242.09 75.7225 242.006 75.9278 241.838C76.1332 241.661 76.2358 241.446 76.2358 241.194C76.2358 240.746 75.9465 240.457 75.3678 240.326L74.2198 240.074C73.6972 239.962 73.2865 239.738 72.9878 239.402C72.6892 239.066 72.5398 238.66 72.5398 238.184C72.5398 237.605 72.7732 237.106 73.2398 236.686C73.7158 236.266 74.2805 236.056 74.9338 236.056C75.3632 236.056 75.7458 236.121 76.0818 236.252C76.4178 236.373 76.6792 236.537 76.8658 236.742C77.0525 236.947 77.1925 237.139 77.2858 237.316C77.3792 237.493 77.4492 237.675 77.4958 237.862L76.3338 238.296C76.3152 238.184 76.2825 238.077 76.2358 237.974C76.1892 237.862 76.1145 237.741 76.0118 237.61C75.9185 237.479 75.7785 237.377 75.5918 237.302C75.4052 237.218 75.1858 237.176 74.9338 237.176C74.6072 237.176 74.3365 237.265 74.1218 237.442C73.9165 237.619 73.8138 237.829 73.8138 238.072C73.8138 238.501 74.0705 238.772 74.5838 238.884L75.6758 239.122C76.2732 239.253 76.7305 239.495 77.0478 239.85C77.3745 240.195 77.5378 240.62 77.5378 241.124C77.5378 241.656 77.3185 242.137 76.8798 242.566C76.4505 242.995 75.8485 243.21 75.0738 243.21C74.2432 243.21 73.5945 243.005 73.1278 242.594C72.6612 242.174 72.3952 241.726 72.3298 241.25ZM78.7332 241.194C78.7332 240.615 78.9199 240.153 79.2932 239.808C79.6665 239.453 80.1612 239.234 80.7772 239.15L82.5972 238.884C82.9425 238.837 83.1152 238.669 83.1152 238.38C83.1152 238.025 82.9939 237.736 82.7512 237.512C82.5085 237.288 82.1445 237.176 81.6592 237.176C81.2112 237.176 80.8565 237.302 80.5952 237.554C80.3339 237.797 80.1799 238.123 80.1332 238.534L78.8732 238.24C78.9385 237.596 79.2325 237.073 79.7552 236.672C80.2779 236.261 80.9032 236.056 81.6312 236.056C82.5832 236.056 83.2879 236.289 83.7452 236.756C84.2025 237.213 84.4312 237.801 84.4312 238.52V241.894C84.4312 242.295 84.4592 242.664 84.5152 243H83.2272C83.1805 242.72 83.1572 242.417 83.1572 242.09C82.9705 242.389 82.6952 242.65 82.3312 242.874C81.9765 243.098 81.5285 243.21 80.9872 243.21C80.3245 243.21 79.7832 243.014 79.3632 242.622C78.9432 242.221 78.7332 241.745 78.7332 241.194ZM81.1692 242.104C81.7572 242.104 82.2285 241.945 82.5832 241.628C82.9379 241.311 83.1152 240.807 83.1152 240.116V239.808L81.0572 240.116C80.7585 240.163 80.5205 240.27 80.3432 240.438C80.1659 240.606 80.0772 240.835 80.0772 241.124C80.0772 241.385 80.1752 241.614 80.3712 241.81C80.5765 242.006 80.8425 242.104 81.1692 242.104ZM88.2453 234.138V236.266H89.7013V237.456H88.2453V240.956C88.2453 241.273 88.3153 241.507 88.4553 241.656C88.6047 241.805 88.8473 241.88 89.1833 241.88C89.3793 241.88 89.552 241.861 89.7013 241.824V242.944C89.4773 243.028 89.1787 243.07 88.8053 243.07C88.2267 243.07 87.7693 242.902 87.4333 242.566C87.0973 242.23 86.9293 241.759 86.9293 241.152V237.456H85.6413V236.266H86.0053C86.3507 236.266 86.6073 236.173 86.7753 235.986C86.9527 235.79 87.0413 235.538 87.0413 235.23V234.138H88.2453ZM92.7599 243H91.4579V236.266H92.7599V243ZM91.4299 234.39C91.2526 234.203 91.1639 233.979 91.1639 233.718C91.1639 233.457 91.2526 233.233 91.4299 233.046C91.6166 232.859 91.8406 232.766 92.1019 232.766C92.3632 232.766 92.5872 232.859 92.7739 233.046C92.9606 233.223 93.0539 233.447 93.0539 233.718C93.0539 233.979 92.9606 234.203 92.7739 234.39C92.5872 234.567 92.3632 234.656 92.1019 234.656C91.8406 234.656 91.6166 234.567 91.4299 234.39ZM96.3849 241.404C96.7956 241.824 97.2949 242.034 97.8829 242.034C98.4709 242.034 98.9656 241.824 99.3669 241.404C99.7776 240.975 99.9829 240.382 99.9829 239.626C99.9829 238.879 99.7776 238.296 99.3669 237.876C98.9656 237.447 98.4709 237.232 97.8829 237.232C97.2949 237.232 96.7956 237.447 96.3849 237.876C95.9836 238.296 95.7829 238.879 95.7829 239.626C95.7829 240.382 95.9836 240.975 96.3849 241.404ZM95.4049 237.078C96.0582 236.397 96.8842 236.056 97.8829 236.056C98.8816 236.056 99.7029 236.397 100.347 237.078C101 237.75 101.327 238.599 101.327 239.626C101.327 240.662 101.005 241.521 100.361 242.202C99.7169 242.874 98.8909 243.21 97.8829 243.21C96.8749 243.21 96.0489 242.874 95.4049 242.202C94.7609 241.521 94.4389 240.662 94.4389 239.626C94.4389 238.599 94.7609 237.75 95.4049 237.078ZM104.327 239.108V243H103.011V236.266H104.299V237.232C104.747 236.457 105.437 236.07 106.371 236.07C107.145 236.07 107.738 236.317 108.149 236.812C108.569 237.307 108.779 237.946 108.779 238.73V243H107.463V238.954C107.463 237.825 106.94 237.26 105.895 237.26C105.4 237.26 105.013 237.437 104.733 237.792C104.462 238.137 104.327 238.576 104.327 239.108ZM110.242 241.25L111.432 240.83C111.479 241.194 111.637 241.497 111.908 241.74C112.179 241.973 112.543 242.09 113 242.09C113.355 242.09 113.635 242.006 113.84 241.838C114.045 241.661 114.148 241.446 114.148 241.194C114.148 240.746 113.859 240.457 113.28 240.326L112.132 240.074C111.609 239.962 111.199 239.738 110.9 239.402C110.601 239.066 110.452 238.66 110.452 238.184C110.452 237.605 110.685 237.106 111.152 236.686C111.628 236.266 112.193 236.056 112.846 236.056C113.275 236.056 113.658 236.121 113.994 236.252C114.33 236.373 114.591 236.537 114.778 236.742C114.965 236.947 115.105 237.139 115.198 237.316C115.291 237.493 115.361 237.675 115.408 237.862L114.246 238.296C114.227 238.184 114.195 238.077 114.148 237.974C114.101 237.862 114.027 237.741 113.924 237.61C113.831 237.479 113.691 237.377 113.504 237.302C113.317 237.218 113.098 237.176 112.846 237.176C112.519 237.176 112.249 237.265 112.034 237.442C111.829 237.619 111.726 237.829 111.726 238.072C111.726 238.501 111.983 238.772 112.496 238.884L113.588 239.122C114.185 239.253 114.643 239.495 114.96 239.85C115.287 240.195 115.45 240.62 115.45 241.124C115.45 241.656 115.231 242.137 114.792 242.566C114.363 242.995 113.761 243.21 112.986 243.21C112.155 243.21 111.507 243.005 111.04 242.594C110.573 242.174 110.307 241.726 110.242 241.25ZM122.088 241.404C122.499 241.824 122.998 242.034 123.586 242.034C124.174 242.034 124.669 241.824 125.07 241.404C125.481 240.975 125.686 240.382 125.686 239.626C125.686 238.879 125.481 238.296 125.07 237.876C124.669 237.447 124.174 237.232 123.586 237.232C122.998 237.232 122.499 237.447 122.088 237.876C121.687 238.296 121.486 238.879 121.486 239.626C121.486 240.382 121.687 240.975 122.088 241.404ZM121.108 237.078C121.761 236.397 122.587 236.056 123.586 236.056C124.585 236.056 125.406 236.397 126.05 237.078C126.703 237.75 127.03 238.599 127.03 239.626C127.03 240.662 126.708 241.521 126.064 242.202C125.42 242.874 124.594 243.21 123.586 243.21C122.578 243.21 121.752 242.874 121.108 242.202C120.464 241.521 120.142 240.662 120.142 239.626C120.142 238.599 120.464 237.75 121.108 237.078ZM132.102 237.456H130.478V243H129.12V237.456H127.874V236.266H129.12V235.132C129.12 234.413 129.33 233.849 129.75 233.438C130.17 233.027 130.697 232.822 131.332 232.822C131.733 232.822 131.994 232.869 132.116 232.962V234.138C131.976 234.082 131.784 234.054 131.542 234.054C131.252 234.054 131 234.143 130.786 234.32C130.58 234.488 130.478 234.782 130.478 235.202V236.266H132.102V237.456ZM136.593 241.194C136.593 240.615 136.779 240.153 137.153 239.808C137.526 239.453 138.021 239.234 138.637 239.15L140.457 238.884C140.802 238.837 140.975 238.669 140.975 238.38C140.975 238.025 140.853 237.736 140.611 237.512C140.368 237.288 140.004 237.176 139.519 237.176C139.071 237.176 138.716 237.302 138.455 237.554C138.193 237.797 138.039 238.123 137.993 238.534L136.733 238.24C136.798 237.596 137.092 237.073 137.615 236.672C138.137 236.261 138.763 236.056 139.491 236.056C140.443 236.056 141.147 236.289 141.605 236.756C142.062 237.213 142.291 237.801 142.291 238.52V241.894C142.291 242.295 142.319 242.664 142.375 243H141.087C141.04 242.72 141.017 242.417 141.017 242.09C140.83 242.389 140.555 242.65 140.191 242.874C139.836 243.098 139.388 243.21 138.847 243.21C138.184 243.21 137.643 243.014 137.223 242.622C136.803 242.221 136.593 241.745 136.593 241.194ZM139.029 242.104C139.617 242.104 140.088 241.945 140.443 241.628C140.797 241.311 140.975 240.807 140.975 240.116V239.808L138.917 240.116C138.618 240.163 138.38 240.27 138.203 240.438C138.025 240.606 137.937 240.835 137.937 241.124C137.937 241.385 138.035 241.614 138.231 241.81C138.436 242.006 138.702 242.104 139.029 242.104ZM145.657 243H144.341V232.864H145.657V243ZM149.211 243H147.895V232.864H149.211V243ZM154.32 241.25L155.51 240.83C155.557 241.194 155.715 241.497 155.986 241.74C156.257 241.973 156.621 242.09 157.078 242.09C157.433 242.09 157.713 242.006 157.918 241.838C158.123 241.661 158.226 241.446 158.226 241.194C158.226 240.746 157.937 240.457 157.358 240.326L156.21 240.074C155.687 239.962 155.277 239.738 154.978 239.402C154.679 239.066 154.53 238.66 154.53 238.184C154.53 237.605 154.763 237.106 155.23 236.686C155.706 236.266 156.271 236.056 156.924 236.056C157.353 236.056 157.736 236.121 158.072 236.252C158.408 236.373 158.669 236.537 158.856 236.742C159.043 236.947 159.183 237.139 159.276 237.316C159.369 237.493 159.439 237.675 159.486 237.862L158.324 238.296C158.305 238.184 158.273 238.077 158.226 237.974C158.179 237.862 158.105 237.741 158.002 237.61C157.909 237.479 157.769 237.377 157.582 237.302C157.395 237.218 157.176 237.176 156.924 237.176C156.597 237.176 156.327 237.265 156.112 237.442C155.907 237.619 155.804 237.829 155.804 238.072C155.804 238.501 156.061 238.772 156.574 238.884L157.666 239.122C158.263 239.253 158.721 239.495 159.038 239.85C159.365 240.195 159.528 240.62 159.528 241.124C159.528 241.656 159.309 242.137 158.87 242.566C158.441 242.995 157.839 243.21 157.064 243.21C156.233 243.21 155.585 243.005 155.118 242.594C154.651 242.174 154.385 241.726 154.32 241.25ZM162.582 243H161.28V236.266H162.582V243ZM161.252 234.39C161.075 234.203 160.986 233.979 160.986 233.718C160.986 233.457 161.075 233.233 161.252 233.046C161.439 232.859 161.663 232.766 161.924 232.766C162.185 232.766 162.409 232.859 162.596 233.046C162.783 233.223 162.876 233.447 162.876 233.718C162.876 233.979 162.783 234.203 162.596 234.39C162.409 234.567 162.185 234.656 161.924 234.656C161.663 234.656 161.439 234.567 161.252 234.39ZM169.665 243H164.261V241.852L167.957 237.456H164.317V236.266H169.595V237.414L165.899 241.81H169.665V243ZM172.197 238.94H175.879C175.86 238.436 175.692 238.025 175.375 237.708C175.057 237.381 174.609 237.218 174.031 237.218C173.508 237.218 173.079 237.391 172.743 237.736C172.407 238.072 172.225 238.473 172.197 238.94ZM176.075 240.69L177.209 241.082C177.013 241.707 176.649 242.221 176.117 242.622C175.585 243.014 174.941 243.21 174.185 243.21C173.242 243.21 172.439 242.888 171.777 242.244C171.123 241.591 170.797 240.713 170.797 239.612C170.797 238.585 171.114 237.736 171.749 237.064C172.383 236.392 173.139 236.056 174.017 236.056C175.034 236.056 175.827 236.378 176.397 237.022C176.966 237.657 177.251 238.511 177.251 239.584C177.251 239.752 177.241 239.892 177.223 240.004H172.155C172.164 240.601 172.36 241.091 172.743 241.474C173.135 241.857 173.615 242.048 174.185 242.048C175.146 242.048 175.776 241.595 176.075 240.69ZM178.301 241.25L179.491 240.83C179.537 241.194 179.696 241.497 179.967 241.74C180.237 241.973 180.601 242.09 181.059 242.09C181.413 242.09 181.693 242.006 181.899 241.838C182.104 241.661 182.207 241.446 182.207 241.194C182.207 240.746 181.917 240.457 181.339 240.326L180.191 240.074C179.668 239.962 179.257 239.738 178.959 239.402C178.66 239.066 178.511 238.66 178.511 238.184C178.511 237.605 178.744 237.106 179.211 236.686C179.687 236.266 180.251 236.056 180.905 236.056C181.334 236.056 181.717 236.121 182.053 236.252C182.389 236.373 182.65 236.537 182.837 236.742C183.023 236.947 183.163 237.139 183.257 237.316C183.35 237.493 183.42 237.675 183.467 237.862L182.305 238.296C182.286 238.184 182.253 238.077 182.207 237.974C182.16 237.862 182.085 237.741 181.983 237.61C181.889 237.479 181.749 237.377 181.563 237.302C181.376 237.218 181.157 237.176 180.905 237.176C180.578 237.176 180.307 237.265 180.093 237.442C179.887 237.619 179.785 237.829 179.785 238.072C179.785 238.501 180.041 238.772 180.555 238.884L181.647 239.122C182.244 239.253 182.701 239.495 183.019 239.85C183.345 240.195 183.509 240.62 183.509 241.124C183.509 241.656 183.289 242.137 182.851 242.566C182.421 242.995 181.819 243.21 181.045 243.21C180.214 243.21 179.565 243.005 179.099 242.594C178.632 242.174 178.366 241.726 178.301 241.25ZM185.401 242.79C185.214 242.603 185.121 242.375 185.121 242.104C185.121 241.833 185.214 241.605 185.401 241.418C185.587 241.222 185.816 241.124 186.087 241.124C186.357 241.124 186.586 241.222 186.773 241.418C186.969 241.605 187.067 241.833 187.067 242.104C187.067 242.375 186.969 242.603 186.773 242.79C186.586 242.977 186.357 243.07 186.087 243.07C185.816 243.07 185.587 242.977 185.401 242.79Z" fill="#344563"/>
</svg>
