<svg width="264" height="281" viewBox="0 0 264 281" fill="none" xmlns="http://www.w3.org/2000/svg">
<rect width="264" height="281" rx="16" fill="white"/>
<circle cx="64" cy="64" r="32" fill="#0052CC"/>
<path d="M64.947 79.1436H63.6627C63.548 79.1436 63.438 79.098 63.3569 79.0169C63.2758 78.9358 63.2303 78.8258 63.2303 78.7111C63.2303 78.5964 63.2758 78.4864 63.3569 78.4053C63.438 78.3242 63.548 78.2787 63.6627 78.2787H64.947C65.0617 78.2787 65.1717 78.3242 65.2528 78.4053C65.3339 78.4864 65.3795 78.5964 65.3795 78.7111C65.3795 78.8258 65.3339 78.9358 65.2528 79.0169C65.1717 79.098 65.0617 79.1436 64.947 79.1436Z" fill="white"/>
<path d="M56.3546 79.144H50.6465C50.4034 79.1438 50.1704 79.0471 49.9985 78.8753C49.8266 78.7034 49.73 78.4703 49.7297 78.2273V54.1191C49.73 53.8761 49.8266 53.643 49.9985 53.4712C50.1704 53.2993 50.4034 53.2026 50.6465 53.2024H54.4778C54.5925 53.2024 54.7025 53.248 54.7836 53.329C54.8647 53.4101 54.9103 53.5201 54.9103 53.6348C54.9103 53.7495 54.8647 53.8595 54.7836 53.9406C54.7025 54.0217 54.5925 54.0673 54.4778 54.0673H50.6465C50.6397 54.0672 50.6329 54.0685 50.6266 54.0711C50.6202 54.0737 50.6145 54.0775 50.6097 54.0823C50.6048 54.0872 50.601 54.0929 50.5984 54.0992C50.5958 54.1055 50.5945 54.1123 50.5946 54.1191V78.2273C50.5945 78.2341 50.5958 78.2409 50.5984 78.2472C50.601 78.2535 50.6048 78.2593 50.6097 78.2641C50.6145 78.2689 50.6202 78.2727 50.6266 78.2753C50.6329 78.2779 50.6397 78.2792 50.6465 78.2791H56.3546C56.4693 78.2791 56.5793 78.3247 56.6604 78.4058C56.7415 78.4869 56.787 78.5969 56.787 78.7116C56.787 78.8263 56.7415 78.9363 56.6604 79.0174C56.5793 79.0985 56.4693 79.144 56.3546 79.144Z" fill="white"/>
<path d="M60.6357 79.1436H59.3816C59.267 79.1436 59.157 79.098 59.0759 79.0169C58.9948 78.9358 58.9492 78.8258 58.9492 78.7111C58.9492 78.5964 58.9948 78.4864 59.0759 78.4053C59.157 78.3242 59.267 78.2787 59.3816 78.2787H60.6357C60.7504 78.2787 60.8604 78.3242 60.9415 78.4053C61.0226 78.4864 61.0681 78.5964 61.0681 78.7111C61.0681 78.8258 61.0226 78.9358 60.9415 79.0169C60.8604 79.098 60.7504 79.1436 60.6357 79.1436Z" fill="white"/>
<path d="M69.5697 79.144H67.974C67.8594 79.144 67.7494 79.0985 67.6683 79.0174C67.5872 78.9363 67.5416 78.8263 67.5416 78.7116C67.5416 78.5969 67.5872 78.4869 67.6683 78.4058C67.7494 78.3247 67.8594 78.2791 67.974 78.2791H69.5697C69.5766 78.2792 69.5833 78.2779 69.5897 78.2753C69.596 78.2727 69.6017 78.2689 69.6065 78.2641C69.6114 78.2593 69.6152 78.2535 69.6178 78.2472C69.6204 78.2409 69.6217 78.2341 69.6216 78.2273V54.1191C69.6217 54.1123 69.6204 54.1055 69.6178 54.0992C69.6152 54.0929 69.6114 54.0872 69.6065 54.0823C69.6017 54.0775 69.596 54.0737 69.5897 54.0711C69.5833 54.0685 69.5766 54.0672 69.5697 54.0673H65.7384C65.6237 54.0673 65.5137 54.0217 65.4326 53.9406C65.3515 53.8595 65.3059 53.7495 65.3059 53.6348C65.3059 53.5201 65.3515 53.4101 65.4326 53.329C65.5137 53.248 65.6237 53.2024 65.7384 53.2024H69.5697C69.8128 53.2026 70.0458 53.2993 70.2177 53.4712C70.3896 53.643 70.4863 53.8761 70.4865 54.1191V78.2273C70.4863 78.4703 70.3896 78.7034 70.2177 78.8753C70.0458 79.0471 69.8128 79.1438 69.5697 79.144Z" fill="white"/>
<path d="M65.7384 55.3622H54.4779C54.3632 55.3622 54.2532 55.3167 54.1721 55.2356C54.091 55.1545 54.0454 55.0445 54.0454 54.9298V52.3568C54.0454 52.2421 54.091 52.1321 54.1721 52.051C54.2532 51.9699 54.3632 51.9244 54.4779 51.9244H56.8217C56.8805 51.0932 57.2521 50.3153 57.8618 49.7473C58.4714 49.1793 59.2736 48.8635 60.1068 48.8635C60.9401 48.8635 61.7423 49.1793 62.3519 49.7473C62.9616 50.3153 63.3332 51.0932 63.392 51.9244H65.7384C65.8531 51.9244 65.9631 51.9699 66.0442 52.051C66.1253 52.1321 66.1708 52.2421 66.1708 52.3568V54.9298C66.1708 55.0445 66.1253 55.1545 66.0442 55.2356C65.9631 55.3167 65.8531 55.3622 65.7384 55.3622ZM54.9103 54.4974H65.306V52.7892H62.9665C62.8518 52.7892 62.7418 52.7437 62.6607 52.6626C62.5796 52.5815 62.5341 52.4715 62.5341 52.3568V52.1536C62.5341 51.5096 62.2783 50.892 61.8229 50.4366C61.3676 49.9813 60.75 49.7255 60.106 49.7255C59.462 49.7255 58.8444 49.9813 58.389 50.4366C57.9337 50.892 57.6779 51.5096 57.6779 52.1536V52.3568C57.6779 52.4715 57.6323 52.5815 57.5512 52.6626C57.4701 52.7437 57.3601 52.7892 57.2454 52.7892H54.9103V54.4974Z" fill="white"/>
<path d="M67.4755 60.7643H58.8268C58.7121 60.7643 58.6021 60.7187 58.521 60.6376C58.4399 60.5565 58.3944 60.4465 58.3944 60.3318C58.3944 60.2172 58.4399 60.1072 58.521 60.0261C58.6021 59.945 58.7121 59.8994 58.8268 59.8994H67.4755C67.5902 59.8994 67.7002 59.945 67.7812 60.0261C67.8623 60.1072 67.9079 60.2172 67.9079 60.3318C67.9079 60.4465 67.8623 60.5565 67.7812 60.6376C67.7002 60.7187 67.5902 60.7643 67.4755 60.7643Z" fill="white"/>
<path d="M67.4755 65.3062H58.8268C58.7121 65.3062 58.6021 65.2606 58.521 65.1795C58.4399 65.0984 58.3944 64.9884 58.3944 64.8737C58.3944 64.759 58.4399 64.649 58.521 64.5679C58.6021 64.4868 58.7121 64.4413 58.8268 64.4413H67.4755C67.5902 64.4413 67.7002 64.4868 67.7812 64.5679C67.8623 64.649 67.9079 64.759 67.9079 64.8737C67.9079 64.9884 67.8623 65.0984 67.7812 65.1795C67.7002 65.2606 67.5902 65.3062 67.4755 65.3062Z" fill="white"/>
<path d="M67.4755 69.8474H58.8268C58.7121 69.8474 58.6021 69.8019 58.521 69.7208C58.4399 69.6397 58.3944 69.5297 58.3944 69.415C58.3944 69.3003 58.4399 69.1903 58.521 69.1092C58.6021 69.0281 58.7121 68.9825 58.8268 68.9825H67.4755C67.5902 68.9825 67.7002 69.0281 67.7812 69.1092C67.8623 69.1903 67.9079 69.3003 67.9079 69.415C67.9079 69.5297 67.8623 69.6397 67.7812 69.7208C67.7002 69.8019 67.5902 69.8474 67.4755 69.8474Z" fill="white"/>
<path d="M67.4755 74.3892H58.8268C58.7121 74.3892 58.6021 74.3437 58.521 74.2626C58.4399 74.1815 58.3944 74.0715 58.3944 73.9568C58.3944 73.8421 58.4399 73.7321 58.521 73.651C58.6021 73.5699 58.7121 73.5244 58.8268 73.5244H67.4755C67.5902 73.5244 67.7002 73.5699 67.7812 73.651C67.8623 73.7321 67.9079 73.8421 67.9079 73.9568C67.9079 74.0715 67.8623 74.1815 67.7812 74.2626C67.7002 74.3437 67.5902 74.3892 67.4755 74.3892Z" fill="white"/>
<path d="M53.674 61.9724C53.5593 61.9723 53.4493 61.9268 53.3682 61.8457L52.4351 60.9125C52.3938 60.8726 52.3608 60.8249 52.3381 60.7721C52.3155 60.7193 52.3036 60.6626 52.3031 60.6052C52.3026 60.5478 52.3135 60.4908 52.3352 60.4377C52.357 60.3845 52.3891 60.3362 52.4297 60.2956C52.4703 60.255 52.5186 60.2229 52.5717 60.2012C52.6249 60.1794 52.6818 60.1685 52.7392 60.169C52.7966 60.1695 52.8534 60.1814 52.9061 60.2041C52.9589 60.2268 53.0066 60.2597 53.0465 60.301L53.674 60.928L55.8015 58.8009C55.8831 58.7221 55.9923 58.6785 56.1057 58.6795C56.2191 58.6805 56.3276 58.726 56.4077 58.8062C56.4879 58.8863 56.5334 58.9948 56.5344 59.1082C56.5354 59.2216 56.4918 59.3308 56.413 59.4124L53.9797 61.8457C53.8986 61.9268 53.7887 61.9723 53.674 61.9724Z" fill="white"/>
<path d="M53.6739 66.6636C53.5593 66.6636 53.4493 66.618 53.3682 66.5369L52.435 65.6037C52.3623 65.5211 52.3238 65.4139 52.3274 65.3039C52.331 65.1939 52.3764 65.0894 52.4544 65.0117C52.5324 64.934 52.637 64.889 52.747 64.8858C52.857 64.8826 52.9641 64.9214 53.0465 64.9944L53.6739 65.6219L55.8015 63.4943C55.8831 63.4155 55.9923 63.372 56.1057 63.3729C56.2191 63.3739 56.3275 63.4194 56.4077 63.4996C56.4879 63.5798 56.5334 63.6882 56.5343 63.8016C56.5353 63.915 56.4917 64.0242 56.413 64.1058L53.9797 66.5391C53.8982 66.6194 53.7883 66.6641 53.6739 66.6636Z" fill="white"/>
<path d="M53.674 70.923C53.6172 70.9232 53.5609 70.912 53.5084 70.8903C53.4559 70.8685 53.4083 70.8366 53.3682 70.7963L52.435 69.8631C52.3563 69.7816 52.3127 69.6723 52.3137 69.5589C52.3147 69.4456 52.3601 69.3371 52.4403 69.2569C52.5205 69.1767 52.629 69.1313 52.7423 69.1303C52.8557 69.1293 52.9649 69.1729 53.0465 69.2517L53.674 69.8813L55.8015 67.7537C55.8831 67.6749 55.9923 67.6314 56.1057 67.6323C56.2191 67.6333 56.3275 67.6788 56.4077 67.759C56.4879 67.8392 56.5334 67.9476 56.5344 68.061C56.5353 68.1744 56.4918 68.2836 56.413 68.3652L53.9797 70.7985C53.9395 70.8384 53.8917 70.8699 53.8393 70.8913C53.7868 70.9127 53.7306 70.9234 53.674 70.923Z" fill="white"/>
<path d="M53.674 75.6141C53.6172 75.6142 53.5609 75.6031 53.5084 75.5814C53.4559 75.5596 53.4083 75.5277 53.3682 75.4874L52.435 74.5546C52.3563 74.4731 52.3127 74.3638 52.3137 74.2504C52.3147 74.1371 52.3601 74.0286 52.4403 73.9484C52.5205 73.8682 52.629 73.8228 52.7423 73.8218C52.8557 73.8208 52.9649 73.8644 53.0465 73.9432L53.674 74.5702L55.8015 72.443C55.8831 72.3643 55.9923 72.3207 56.1057 72.3217C56.2191 72.3227 56.3275 72.3681 56.4077 72.4483C56.4879 72.5285 56.5334 72.6369 56.5344 72.7503C56.5353 72.8637 56.4918 72.9729 56.413 73.0545L53.9797 75.4874C53.9396 75.5277 53.892 75.5596 53.8395 75.5814C53.787 75.6031 53.7308 75.6142 53.674 75.6141Z" fill="white"/>
<path d="M77.8379 74.4176H73.063C72.9483 74.4176 72.8383 74.3721 72.7572 74.291C72.6761 74.2099 72.6305 74.0999 72.6305 73.9852V58.4825C72.6308 58.2275 72.7322 57.983 72.9125 57.8027C73.0928 57.6224 73.3373 57.521 73.5923 57.5208H77.3086C77.5636 57.521 77.8081 57.6224 77.9884 57.8027C78.1687 57.983 78.2701 58.2275 78.2703 58.4825V73.9852C78.2703 74.0999 78.2247 74.2099 78.1437 74.291C78.0626 74.3721 77.9526 74.4176 77.8379 74.4176ZM73.4954 73.5528H77.4054V58.4825C77.4054 58.4568 77.3952 58.4322 77.3771 58.414C77.3589 58.3958 77.3343 58.3856 77.3086 58.3856H73.5923C73.5666 58.3856 73.5419 58.3958 73.5238 58.414C73.5056 58.4322 73.4954 58.4568 73.4954 58.4825V73.5528Z" fill="white"/>
<path d="M75.4504 79.1461C75.3705 79.146 75.2921 79.1238 75.224 79.0819C75.1559 79.04 75.1007 78.98 75.0647 78.9086L72.6768 74.1804C72.6435 74.1145 72.6276 74.0411 72.6307 73.9673C72.6338 73.8935 72.6557 73.8217 72.6945 73.7588C72.7332 73.6958 72.7874 73.6439 72.8519 73.6079C72.9164 73.5718 72.9891 73.5529 73.063 73.553H77.8379C77.9118 73.5529 77.9844 73.5718 78.0489 73.6079C78.1134 73.6439 78.1676 73.6958 78.2064 73.7588C78.2451 73.8217 78.267 73.8935 78.2701 73.9673C78.2732 74.0411 78.2574 74.1145 78.224 74.1804L75.8366 78.9086C75.8005 78.9801 75.7453 79.0401 75.6771 79.082C75.6089 79.1239 75.5304 79.1461 75.4504 79.1461ZM73.7639 74.4178L75.4504 77.7545L77.1369 74.4178H73.7639Z" fill="white"/>
<path d="M77.8379 62.8003H73.063C72.9483 62.8003 72.8383 62.7547 72.7572 62.6736C72.6761 62.5925 72.6305 62.4825 72.6305 62.3679C72.6305 62.2532 72.6761 62.1432 72.7572 62.0621C72.8383 61.981 72.9483 61.9354 73.063 61.9354H77.8379C77.9526 61.9354 78.0626 61.981 78.1437 62.0621C78.2247 62.1432 78.2703 62.2532 78.2703 62.3679C78.2703 62.4825 78.2247 62.5925 78.1437 62.6736C78.0626 62.7547 77.9526 62.8003 77.8379 62.8003Z" fill="white"/>
<path d="M75.4504 74.4176C75.3357 74.4176 75.2257 74.372 75.1446 74.2909C75.0635 74.2098 75.018 74.0998 75.018 73.9851V62.3679C75.018 62.2532 75.0635 62.1432 75.1446 62.0621C75.2257 61.981 75.3357 61.9354 75.4504 61.9354C75.5651 61.9354 75.6751 61.981 75.7562 62.0621C75.8373 62.1432 75.8829 62.2532 75.8829 62.3679V73.9851C75.8829 74.0998 75.8373 74.2098 75.7562 74.2909C75.6751 74.372 75.5651 74.4176 75.4504 74.4176Z" fill="white"/>
<path d="M42.344 153L39.008 146.448H37.28V153H33.944V135.984H40.592C42.224 135.984 43.536 136.48 44.528 137.472C45.52 138.464 46.016 139.712 46.016 141.216C46.016 142.4 45.688 143.424 45.032 144.288C44.392 145.136 43.512 145.72 42.392 146.04L46.04 153H42.344ZM37.28 143.592H39.968C40.8 143.592 41.448 143.376 41.912 142.944C42.392 142.512 42.632 141.944 42.632 141.24C42.632 140.52 42.392 139.944 41.912 139.512C41.448 139.08 40.8 138.864 39.968 138.864H37.28V143.592ZM59.6 153H48.944V135.984H59.6V139.104H52.256V142.992H58.904V145.944H52.256V149.88H59.6V153ZM75.2024 148.632L79.6424 135.984H83.1464L76.8344 153H73.4264L67.1384 135.984H70.7624L75.2024 148.632ZM86.7001 149.568C87.2921 150.16 88.0041 150.456 88.8361 150.456C89.6681 150.456 90.3721 150.16 90.9481 149.568C91.5401 148.976 91.8361 148.152 91.8361 147.096C91.8361 146.04 91.5401 145.216 90.9481 144.624C90.3721 144.032 89.6681 143.736 88.8361 143.736C88.0041 143.736 87.2921 144.032 86.7001 144.624C86.1241 145.216 85.8361 146.04 85.8361 147.096C85.8361 148.152 86.1241 148.976 86.7001 149.568ZM84.3961 142.608C85.5801 141.424 87.0601 140.832 88.8361 140.832C90.6121 140.832 92.0841 141.424 93.2521 142.608C94.4361 143.792 95.0281 145.288 95.0281 147.096C95.0281 148.904 94.4361 150.4 93.2521 151.584C92.0841 152.768 90.6121 153.36 88.8361 153.36C87.0601 153.36 85.5801 152.768 84.3961 151.584C83.2281 150.4 82.6441 148.904 82.6441 147.096C82.6441 145.288 83.2281 143.792 84.3961 142.608ZM105.229 153C105.165 152.68 105.133 152.256 105.133 151.728C104.829 152.256 104.373 152.656 103.765 152.928C103.173 153.184 102.541 153.312 101.869 153.312C100.477 153.312 99.3809 152.872 98.5809 151.992C97.7809 151.096 97.3809 149.984 97.3809 148.656V141.192H100.573V148.008C100.573 148.712 100.757 149.288 101.125 149.736C101.493 150.168 102.029 150.384 102.733 150.384C103.421 150.384 103.965 150.176 104.365 149.76C104.765 149.328 104.965 148.76 104.965 148.056V141.192H108.157V150.864C108.157 151.616 108.197 152.328 108.277 153H105.229ZM116.821 143.784C115.973 143.784 115.261 144.08 114.685 144.672C114.109 145.264 113.821 146.072 113.821 147.096C113.821 148.12 114.109 148.936 114.685 149.544C115.277 150.136 115.997 150.432 116.845 150.432C117.597 150.432 118.197 150.24 118.645 149.856C119.093 149.456 119.397 148.984 119.557 148.44L122.365 149.376C122.076 150.464 121.453 151.4 120.493 152.184C119.533 152.968 118.317 153.36 116.845 153.36C115.085 153.36 113.605 152.768 112.405 151.584C111.221 150.384 110.629 148.888 110.629 147.096C110.629 145.288 111.213 143.792 112.381 142.608C113.565 141.424 115.021 140.832 116.749 140.832C118.253 140.832 119.485 141.224 120.445 142.008C121.405 142.776 122.021 143.712 122.293 144.816L119.437 145.776C119.053 144.448 118.181 143.784 116.821 143.784ZM127.904 146.064V153H124.712V135.624H127.904V142.176C128.624 141.312 129.688 140.88 131.096 140.88C132.536 140.88 133.624 141.32 134.36 142.2C135.112 143.064 135.488 144.184 135.488 145.56V153H132.296V146.112C132.296 145.408 132.112 144.84 131.744 144.408C131.392 143.976 130.848 143.76 130.112 143.76C129.456 143.76 128.928 143.976 128.528 144.408C128.144 144.84 127.936 145.392 127.904 146.064ZM141.055 145.752H146.335C146.303 145.096 146.063 144.544 145.615 144.096C145.183 143.648 144.543 143.424 143.695 143.424C142.927 143.424 142.303 143.664 141.823 144.144C141.343 144.624 141.087 145.16 141.055 145.752ZM146.647 148.824L149.311 149.616C148.991 150.704 148.359 151.6 147.415 152.304C146.487 153.008 145.327 153.36 143.935 153.36C142.239 153.36 140.799 152.792 139.615 151.656C138.431 150.504 137.839 148.968 137.839 147.048C137.839 145.224 138.415 143.736 139.567 142.584C140.719 141.416 142.079 140.832 143.647 140.832C145.471 140.832 146.895 141.376 147.919 142.464C148.959 143.552 149.479 145.048 149.479 146.952C149.479 147.08 149.471 147.224 149.455 147.384C149.455 147.544 149.455 147.672 149.455 147.768L149.431 147.936H140.983C141.015 148.704 141.319 149.344 141.895 149.856C142.471 150.368 143.159 150.624 143.959 150.624C145.319 150.624 146.215 150.024 146.647 148.824ZM159.193 141.144V144.36C158.873 144.296 158.553 144.264 158.233 144.264C157.321 144.264 156.585 144.528 156.025 145.056C155.465 145.568 155.185 146.416 155.185 147.6V153H151.993V141.192H155.089V142.944C155.665 141.712 156.785 141.096 158.449 141.096C158.625 141.096 158.873 141.112 159.193 141.144ZM160.501 149.712L163.237 149.112C163.269 149.624 163.469 150.056 163.837 150.408C164.221 150.744 164.741 150.912 165.397 150.912C165.893 150.912 166.277 150.8 166.549 150.576C166.821 150.352 166.957 150.072 166.957 149.736C166.957 149.144 166.533 148.76 165.685 148.584L164.125 148.224C163.021 147.984 162.189 147.552 161.629 146.928C161.085 146.304 160.813 145.56 160.813 144.696C160.813 143.624 161.229 142.712 162.061 141.96C162.909 141.208 163.965 140.832 165.229 140.832C166.029 140.832 166.733 140.952 167.341 141.192C167.949 141.416 168.421 141.712 168.757 142.08C169.093 142.432 169.349 142.792 169.525 143.16C169.701 143.528 169.813 143.888 169.861 144.24L167.197 144.84C167.133 144.424 166.941 144.056 166.621 143.736C166.317 143.416 165.861 143.256 165.253 143.256C164.837 143.256 164.477 143.368 164.173 143.592C163.885 143.816 163.741 144.096 163.741 144.432C163.741 145.008 164.101 145.36 164.821 145.488L166.501 145.848C167.637 146.088 168.501 146.528 169.093 147.168C169.701 147.808 170.005 148.576 170.005 149.472C170.005 150.528 169.605 151.44 168.805 152.208C168.005 152.976 166.877 153.36 165.421 153.36C164.589 153.36 163.845 153.24 163.189 153C162.533 152.744 162.021 152.424 161.653 152.04C161.301 151.64 161.029 151.248 160.837 150.864C160.661 150.464 160.549 150.08 160.501 149.712Z" fill="#091E42"/>
<path d="M40.148 174.348H36.83V183H35.458V174.348H32.14V173.074H40.148V174.348ZM44.3092 176.196V177.596C44.1132 177.568 43.9218 177.554 43.7352 177.554C42.5032 177.554 41.8872 178.245 41.8872 179.626V183H40.5712V176.266H41.8592V177.442C42.2698 176.583 42.9418 176.154 43.8752 176.154C44.0245 176.154 44.1692 176.168 44.3092 176.196ZM45.2918 181.194C45.2918 180.615 45.4785 180.153 45.8518 179.808C46.2251 179.453 46.7198 179.234 47.3358 179.15L49.1558 178.884C49.5011 178.837 49.6738 178.669 49.6738 178.38C49.6738 178.025 49.5525 177.736 49.3098 177.512C49.0671 177.288 48.7031 177.176 48.2178 177.176C47.7698 177.176 47.4151 177.302 47.1538 177.554C46.8925 177.797 46.7385 178.123 46.6918 178.534L45.4318 178.24C45.4971 177.596 45.7911 177.073 46.3138 176.672C46.8365 176.261 47.4618 176.056 48.1898 176.056C49.1418 176.056 49.8465 176.289 50.3038 176.756C50.7611 177.213 50.9898 177.801 50.9898 178.52V181.894C50.9898 182.295 51.0178 182.664 51.0738 183H49.7858C49.7391 182.72 49.7158 182.417 49.7158 182.09C49.5291 182.389 49.2538 182.65 48.8898 182.874C48.5351 183.098 48.0871 183.21 47.5458 183.21C46.8831 183.21 46.3418 183.014 45.9218 182.622C45.5018 182.221 45.2918 181.745 45.2918 181.194ZM47.7278 182.104C48.3158 182.104 48.7871 181.945 49.1418 181.628C49.4965 181.311 49.6738 180.807 49.6738 180.116V179.808L47.6158 180.116C47.3171 180.163 47.0791 180.27 46.9018 180.438C46.7245 180.606 46.6358 180.835 46.6358 181.124C46.6358 181.385 46.7338 181.614 46.9298 181.81C47.1351 182.006 47.4011 182.104 47.7278 182.104ZM55.8679 177.274C55.2986 177.274 54.8133 177.479 54.4119 177.89C54.0199 178.301 53.8239 178.879 53.8239 179.626C53.8239 180.363 54.0199 180.942 54.4119 181.362C54.8133 181.782 55.3033 181.992 55.8819 181.992C56.4419 181.992 56.8666 181.852 57.1559 181.572C57.4546 181.292 57.6553 180.97 57.7579 180.606L58.9199 181.11C58.7333 181.67 58.3786 182.16 57.8559 182.58C57.3426 183 56.6846 183.21 55.8819 183.21C54.9019 183.21 54.0899 182.869 53.4459 182.188C52.8019 181.507 52.4799 180.653 52.4799 179.626C52.4799 178.581 52.8019 177.727 53.4459 177.064C54.0899 176.392 54.8973 176.056 55.8679 176.056C56.6893 176.056 57.3519 176.266 57.8559 176.686C58.3693 177.106 58.7053 177.61 58.8639 178.198L57.6739 178.702C57.5713 178.31 57.3753 177.974 57.0859 177.694C56.7966 177.414 56.3906 177.274 55.8679 177.274ZM66.4978 176.266L63.6278 179.108L66.5538 183H64.9018L62.7038 180.032L61.7658 180.97V183H60.4638V172.864H61.7658V179.248L64.6778 176.266H66.4978ZM70.8992 181.194C70.8992 180.615 71.0859 180.153 71.4592 179.808C71.8326 179.453 72.3272 179.234 72.9432 179.15L74.7632 178.884C75.1086 178.837 75.2812 178.669 75.2812 178.38C75.2812 178.025 75.1599 177.736 74.9172 177.512C74.6746 177.288 74.3106 177.176 73.8252 177.176C73.3772 177.176 73.0226 177.302 72.7612 177.554C72.4999 177.797 72.3459 178.123 72.2992 178.534L71.0392 178.24C71.1046 177.596 71.3986 177.073 71.9212 176.672C72.4439 176.261 73.0692 176.056 73.7972 176.056C74.7492 176.056 75.4539 176.289 75.9112 176.756C76.3686 177.213 76.5972 177.801 76.5972 178.52V181.894C76.5972 182.295 76.6252 182.664 76.6812 183H75.3932C75.3466 182.72 75.3232 182.417 75.3232 182.09C75.1366 182.389 74.8612 182.65 74.4972 182.874C74.1426 183.098 73.6946 183.21 73.1532 183.21C72.4906 183.21 71.9492 183.014 71.5292 182.622C71.1092 182.221 70.8992 181.745 70.8992 181.194ZM73.3352 182.104C73.9232 182.104 74.3946 181.945 74.7492 181.628C75.1039 181.311 75.2812 180.807 75.2812 180.116V179.808L73.2232 180.116C72.9246 180.163 72.6866 180.27 72.5092 180.438C72.3319 180.606 72.2432 180.835 72.2432 181.124C72.2432 181.385 72.3412 181.614 72.5372 181.81C72.7426 182.006 73.0086 182.104 73.3352 182.104ZM79.9633 179.108V183H78.6473V176.266H79.9353V177.232C80.3833 176.457 81.074 176.07 82.0073 176.07C82.782 176.07 83.3747 176.317 83.7853 176.812C84.2053 177.307 84.4153 177.946 84.4153 178.73V183H83.0993V178.954C83.0993 177.825 82.5767 177.26 81.5313 177.26C81.0367 177.26 80.6493 177.437 80.3693 177.792C80.0987 178.137 79.9633 178.576 79.9633 179.108ZM87.2927 179.612C87.2927 180.321 87.4653 180.9 87.8107 181.348C88.1653 181.796 88.6507 182.02 89.2667 182.02C89.8547 182.02 90.326 181.791 90.6807 181.334C91.0353 180.877 91.2127 180.293 91.2127 179.584C91.2127 178.884 91.04 178.319 90.6947 177.89C90.3493 177.461 89.878 177.246 89.2807 177.246C88.6833 177.246 88.2027 177.465 87.8387 177.904C87.4747 178.343 87.2927 178.912 87.2927 179.612ZM91.2267 182.09V181.978C91.0493 182.323 90.7787 182.613 90.4147 182.846C90.06 183.07 89.6353 183.182 89.1407 183.182C88.1793 183.182 87.4047 182.846 86.8167 182.174C86.238 181.493 85.9487 180.639 85.9487 179.612C85.9487 178.632 86.2473 177.801 86.8447 177.12C87.442 176.429 88.2073 176.084 89.1407 176.084C89.6913 176.084 90.1393 176.196 90.4847 176.42C90.83 176.635 91.068 176.901 91.1987 177.218V172.864H92.5007V181.754C92.5007 182.211 92.524 182.627 92.5707 183H91.2967C91.25 182.739 91.2267 182.435 91.2267 182.09ZM99.5411 183H98.2391V176.266H99.4991V177.162C99.7045 176.807 99.9938 176.537 100.367 176.35C100.74 176.163 101.132 176.07 101.543 176.07C101.982 176.07 102.383 176.177 102.747 176.392C103.111 176.607 103.382 176.924 103.559 177.344C104.026 176.495 104.777 176.07 105.813 176.07C106.457 176.07 107.003 176.289 107.451 176.728C107.908 177.167 108.137 177.801 108.137 178.632V183H106.835V178.772C106.835 178.305 106.714 177.932 106.471 177.652C106.238 177.372 105.883 177.232 105.407 177.232C104.95 177.232 104.576 177.395 104.287 177.722C103.998 178.039 103.853 178.441 103.853 178.926V183H102.537V178.772C102.537 178.305 102.416 177.932 102.173 177.652C101.94 177.372 101.585 177.232 101.109 177.232C100.642 177.232 100.264 177.391 99.9751 177.708C99.6858 178.025 99.5411 178.436 99.5411 178.94V183ZM109.823 181.194C109.823 180.615 110.01 180.153 110.383 179.808C110.756 179.453 111.251 179.234 111.867 179.15L113.687 178.884C114.032 178.837 114.205 178.669 114.205 178.38C114.205 178.025 114.084 177.736 113.841 177.512C113.598 177.288 113.234 177.176 112.749 177.176C112.301 177.176 111.946 177.302 111.685 177.554C111.424 177.797 111.27 178.123 111.223 178.534L109.963 178.24C110.028 177.596 110.322 177.073 110.845 176.672C111.368 176.261 111.993 176.056 112.721 176.056C113.673 176.056 114.378 176.289 114.835 176.756C115.292 177.213 115.521 177.801 115.521 178.52V181.894C115.521 182.295 115.549 182.664 115.605 183H114.317C114.27 182.72 114.247 182.417 114.247 182.09C114.06 182.389 113.785 182.65 113.421 182.874C113.066 183.098 112.618 183.21 112.077 183.21C111.414 183.21 110.873 183.014 110.453 182.622C110.033 182.221 109.823 181.745 109.823 181.194ZM112.259 182.104C112.847 182.104 113.318 181.945 113.673 181.628C114.028 181.311 114.205 180.807 114.205 180.116V179.808L112.147 180.116C111.848 180.163 111.61 180.27 111.433 180.438C111.256 180.606 111.167 180.835 111.167 181.124C111.167 181.385 111.265 181.614 111.461 181.81C111.666 182.006 111.932 182.104 112.259 182.104ZM118.887 179.108V183H117.571V176.266H118.859V177.232C119.307 176.457 119.998 176.07 120.931 176.07C121.706 176.07 122.299 176.317 122.709 176.812C123.129 177.307 123.339 177.946 123.339 178.73V183H122.023V178.954C122.023 177.825 121.501 177.26 120.455 177.26C119.961 177.26 119.573 177.437 119.293 177.792C119.023 178.137 118.887 178.576 118.887 179.108ZM125.013 181.194C125.013 180.615 125.199 180.153 125.573 179.808C125.946 179.453 126.441 179.234 127.057 179.15L128.877 178.884C129.222 178.837 129.395 178.669 129.395 178.38C129.395 178.025 129.273 177.736 129.031 177.512C128.788 177.288 128.424 177.176 127.939 177.176C127.491 177.176 127.136 177.302 126.875 177.554C126.613 177.797 126.459 178.123 126.413 178.534L125.153 178.24C125.218 177.596 125.512 177.073 126.035 176.672C126.557 176.261 127.183 176.056 127.91 176.056C128.863 176.056 129.567 176.289 130.025 176.756C130.482 177.213 130.711 177.801 130.711 178.52V181.894C130.711 182.295 130.739 182.664 130.795 183H129.507C129.46 182.72 129.437 182.417 129.437 182.09C129.25 182.389 128.975 182.65 128.611 182.874C128.256 183.098 127.808 183.21 127.267 183.21C126.604 183.21 126.063 183.014 125.643 182.622C125.223 182.221 125.013 181.745 125.013 181.194ZM127.449 182.104C128.037 182.104 128.508 181.945 128.863 181.628C129.217 181.311 129.395 180.807 129.395 180.116V179.808L127.337 180.116C127.038 180.163 126.8 180.27 126.623 180.438C126.445 180.606 126.357 180.835 126.357 181.124C126.357 181.385 126.455 181.614 126.651 181.81C126.856 182.006 127.122 182.104 127.449 182.104ZM132.271 183.364L133.545 183.07C133.591 183.546 133.783 183.938 134.119 184.246C134.455 184.563 134.875 184.722 135.379 184.722C136.751 184.722 137.437 183.994 137.437 182.538V181.572C137.269 181.899 137.003 182.165 136.639 182.37C136.284 182.575 135.864 182.678 135.379 182.678C134.483 182.678 133.741 182.375 133.153 181.768C132.574 181.152 132.285 180.368 132.285 179.416C132.285 178.492 132.574 177.717 133.153 177.092C133.731 176.457 134.473 176.14 135.379 176.14C136.405 176.14 137.096 176.495 137.451 177.204V176.266H138.753V182.496C138.753 182.944 138.692 183.359 138.571 183.742C138.459 184.134 138.277 184.493 138.025 184.82C137.773 185.147 137.418 185.403 136.961 185.59C136.513 185.777 135.985 185.87 135.379 185.87C134.548 185.87 133.843 185.632 133.265 185.156C132.686 184.689 132.355 184.092 132.271 183.364ZM135.575 181.572C136.144 181.572 136.606 181.376 136.961 180.984C137.315 180.583 137.493 180.06 137.493 179.416C137.493 178.772 137.315 178.254 136.961 177.862C136.606 177.461 136.144 177.26 135.575 177.26C134.996 177.26 134.525 177.456 134.161 177.848C133.806 178.24 133.629 178.763 133.629 179.416C133.629 180.079 133.801 180.606 134.147 180.998C134.501 181.381 134.977 181.572 135.575 181.572ZM141.708 178.94H145.39C145.372 178.436 145.204 178.025 144.886 177.708C144.569 177.381 144.121 177.218 143.542 177.218C143.02 177.218 142.59 177.391 142.254 177.736C141.918 178.072 141.736 178.473 141.708 178.94ZM145.586 180.69L146.72 181.082C146.524 181.707 146.16 182.221 145.628 182.622C145.096 183.014 144.452 183.21 143.696 183.21C142.754 183.21 141.951 182.888 141.288 182.244C140.635 181.591 140.308 180.713 140.308 179.612C140.308 178.585 140.626 177.736 141.26 177.064C141.895 176.392 142.651 176.056 143.528 176.056C144.546 176.056 145.339 176.378 145.908 177.022C146.478 177.657 146.762 178.511 146.762 179.584C146.762 179.752 146.753 179.892 146.734 180.004H141.666C141.676 180.601 141.872 181.091 142.254 181.474C142.646 181.857 143.127 182.048 143.696 182.048C144.658 182.048 145.288 181.595 145.586 180.69ZM152.796 178.94H156.478C156.46 178.436 156.292 178.025 155.974 177.708C155.657 177.381 155.209 177.218 154.63 177.218C154.108 177.218 153.678 177.391 153.342 177.736C153.006 178.072 152.824 178.473 152.796 178.94ZM156.674 180.69L157.808 181.082C157.612 181.707 157.248 182.221 156.716 182.622C156.184 183.014 155.54 183.21 154.784 183.21C153.842 183.21 153.039 182.888 152.376 182.244C151.723 181.591 151.396 180.713 151.396 179.612C151.396 178.585 151.714 177.736 152.348 177.064C152.983 176.392 153.739 176.056 154.616 176.056C155.634 176.056 156.427 176.378 156.996 177.022C157.566 177.657 157.85 178.511 157.85 179.584C157.85 179.752 157.841 179.892 157.822 180.004H152.754C152.764 180.601 152.96 181.091 153.342 181.474C153.734 181.857 154.215 182.048 154.784 182.048C155.746 182.048 156.376 181.595 156.674 180.69ZM158.482 183L160.988 179.57L158.566 176.266H160.162L161.814 178.632L163.438 176.266H164.992L162.598 179.57C162.738 179.747 163.153 180.317 163.844 181.278C164.534 182.239 164.945 182.813 165.076 183H163.494L161.758 180.522L160.05 183H158.482ZM167.641 185.66H166.339V176.266H167.613V177.316C167.809 176.961 168.103 176.672 168.495 176.448C168.887 176.224 169.344 176.112 169.867 176.112C170.837 176.112 171.593 176.443 172.135 177.106C172.685 177.769 172.961 178.609 172.961 179.626C172.961 180.653 172.676 181.502 172.107 182.174C171.547 182.846 170.786 183.182 169.825 183.182C169.33 183.182 168.891 183.079 168.509 182.874C168.126 182.669 167.837 182.407 167.641 182.09V185.66ZM171.617 179.626C171.617 178.945 171.435 178.385 171.071 177.946C170.716 177.498 170.235 177.274 169.629 177.274C169.031 177.274 168.546 177.498 168.173 177.946C167.809 178.385 167.627 178.945 167.627 179.626C167.627 180.326 167.809 180.9 168.173 181.348C168.546 181.787 169.031 182.006 169.629 182.006C170.226 182.006 170.707 181.787 171.071 181.348C171.435 180.9 171.617 180.326 171.617 179.626ZM175.492 178.94H179.174C179.155 178.436 178.987 178.025 178.67 177.708C178.352 177.381 177.904 177.218 177.326 177.218C176.803 177.218 176.374 177.391 176.038 177.736C175.702 178.072 175.52 178.473 175.492 178.94ZM179.37 180.69L180.504 181.082C180.308 181.707 179.944 182.221 179.412 182.622C178.88 183.014 178.236 183.21 177.48 183.21C176.537 183.21 175.734 182.888 175.072 182.244C174.418 181.591 174.092 180.713 174.092 179.612C174.092 178.585 174.409 177.736 175.044 177.064C175.678 176.392 176.434 176.056 177.312 176.056C178.329 176.056 179.122 176.378 179.692 177.022C180.261 177.657 180.546 178.511 180.546 179.584C180.546 179.752 180.536 179.892 180.518 180.004H175.45C175.459 180.601 175.655 181.091 176.038 181.474C176.43 181.857 176.91 182.048 177.48 182.048C178.441 182.048 179.071 181.595 179.37 180.69ZM183.541 179.108V183H182.225V176.266H183.513V177.232C183.961 176.457 184.652 176.07 185.585 176.07C186.36 176.07 186.953 176.317 187.363 176.812C187.783 177.307 187.993 177.946 187.993 178.73V183H186.677V178.954C186.677 177.825 186.155 177.26 185.109 177.26C184.615 177.26 184.227 177.437 183.947 177.792C183.677 178.137 183.541 178.576 183.541 179.108ZM190.871 179.612C190.871 180.321 191.043 180.9 191.389 181.348C191.743 181.796 192.229 182.02 192.845 182.02C193.433 182.02 193.904 181.791 194.259 181.334C194.613 180.877 194.791 180.293 194.791 179.584C194.791 178.884 194.618 178.319 194.273 177.89C193.927 177.461 193.456 177.246 192.859 177.246C192.261 177.246 191.781 177.465 191.417 177.904C191.053 178.343 190.871 178.912 190.871 179.612ZM194.805 182.09V181.978C194.627 182.323 194.357 182.613 193.993 182.846C193.638 183.07 193.213 183.182 192.719 183.182C191.757 183.182 190.983 182.846 190.395 182.174C189.816 181.493 189.527 180.639 189.527 179.612C189.527 178.632 189.825 177.801 190.423 177.12C191.02 176.429 191.785 176.084 192.719 176.084C193.269 176.084 193.717 176.196 194.063 176.42C194.408 176.635 194.646 176.901 194.777 177.218V172.864H196.079V181.754C196.079 182.211 196.102 182.627 196.149 183H194.875C194.828 182.739 194.805 182.435 194.805 182.09ZM199.619 183H198.317V176.266H199.619V183ZM198.289 174.39C198.112 174.203 198.023 173.979 198.023 173.718C198.023 173.457 198.112 173.233 198.289 173.046C198.476 172.859 198.7 172.766 198.961 172.766C199.223 172.766 199.447 172.859 199.633 173.046C199.82 173.223 199.913 173.447 199.913 173.718C199.913 173.979 199.82 174.203 199.633 174.39C199.447 174.567 199.223 174.656 198.961 174.656C198.7 174.656 198.476 174.567 198.289 174.39ZM203.622 174.138V176.266H205.078V177.456H203.622V180.956C203.622 181.273 203.692 181.507 203.832 181.656C203.982 181.805 204.224 181.88 204.56 181.88C204.756 181.88 204.929 181.861 205.078 181.824V182.944C204.854 183.028 204.556 183.07 204.182 183.07C203.604 183.07 203.146 182.902 202.81 182.566C202.474 182.23 202.306 181.759 202.306 181.152V177.456H201.018V176.266H201.382C201.728 176.266 201.984 176.173 202.152 175.986C202.33 175.79 202.418 175.538 202.418 175.23V174.138H203.622ZM211.273 182.188C211.096 182.524 210.825 182.781 210.461 182.958C210.097 183.126 209.705 183.21 209.285 183.21C208.52 183.21 207.908 182.958 207.451 182.454C206.994 181.941 206.765 181.292 206.765 180.508V176.266H208.081V180.312C208.081 180.816 208.202 181.231 208.445 181.558C208.697 181.885 209.084 182.048 209.607 182.048C210.13 182.048 210.526 181.894 210.797 181.586C211.068 181.269 211.203 180.849 211.203 180.326V176.266H212.519V181.754C212.519 182.193 212.542 182.608 212.589 183H211.329C211.292 182.795 211.273 182.524 211.273 182.188ZM218.503 176.196V177.596C218.307 177.568 218.115 177.554 217.929 177.554C216.697 177.554 216.081 178.245 216.081 179.626V183H214.765V176.266H216.053V177.442C216.463 176.583 217.135 176.154 218.069 176.154C218.218 176.154 218.363 176.168 218.503 176.196ZM220.691 178.94H224.373C224.354 178.436 224.186 178.025 223.869 177.708C223.551 177.381 223.103 177.218 222.525 177.218C222.002 177.218 221.573 177.391 221.237 177.736C220.901 178.072 220.719 178.473 220.691 178.94ZM224.569 180.69L225.703 181.082C225.507 181.707 225.143 182.221 224.611 182.622C224.079 183.014 223.435 183.21 222.679 183.21C221.736 183.21 220.933 182.888 220.271 182.244C219.617 181.591 219.291 180.713 219.291 179.612C219.291 178.585 219.608 177.736 220.243 177.064C220.877 176.392 221.633 176.056 222.511 176.056C223.528 176.056 224.321 176.378 224.891 177.022C225.46 177.657 225.745 178.511 225.745 179.584C225.745 179.752 225.735 179.892 225.717 180.004H220.649C220.658 180.601 220.854 181.091 221.237 181.474C221.629 181.857 222.109 182.048 222.679 182.048C223.64 182.048 224.27 181.595 224.569 180.69ZM36.508 197.456H34.884V203H33.526V197.456H32.28V196.266H33.526V195.132C33.526 194.413 33.736 193.849 34.156 193.438C34.576 193.027 35.1033 192.822 35.738 192.822C36.1393 192.822 36.4007 192.869 36.522 192.962V194.138C36.382 194.082 36.1907 194.054 35.948 194.054C35.6587 194.054 35.4067 194.143 35.192 194.32C34.9867 194.488 34.884 194.782 34.884 195.202V196.266H36.508V197.456ZM39.0314 201.404C39.4421 201.824 39.9414 202.034 40.5294 202.034C41.1174 202.034 41.6121 201.824 42.0134 201.404C42.4241 200.975 42.6294 200.382 42.6294 199.626C42.6294 198.879 42.4241 198.296 42.0134 197.876C41.6121 197.447 41.1174 197.232 40.5294 197.232C39.9414 197.232 39.4421 197.447 39.0314 197.876C38.6301 198.296 38.4294 198.879 38.4294 199.626C38.4294 200.382 38.6301 200.975 39.0314 201.404ZM38.0514 197.078C38.7047 196.397 39.5307 196.056 40.5294 196.056C41.5281 196.056 42.3494 196.397 42.9934 197.078C43.6467 197.75 43.9734 198.599 43.9734 199.626C43.9734 200.662 43.6514 201.521 43.0074 202.202C42.3634 202.874 41.5374 203.21 40.5294 203.21C39.5214 203.21 38.6954 202.874 38.0514 202.202C37.4074 201.521 37.0854 200.662 37.0854 199.626C37.0854 198.599 37.4074 197.75 38.0514 197.078ZM49.3951 196.196V197.596C49.1991 197.568 49.0078 197.554 48.8211 197.554C47.5891 197.554 46.9731 198.245 46.9731 199.626V203H45.6571V196.266H46.9451V197.442C47.3558 196.583 48.0278 196.154 48.9611 196.154C49.1104 196.154 49.2551 196.168 49.3951 196.196ZM55.5997 203H54.2977V196.266H55.5577V197.162C55.7631 196.807 56.0524 196.537 56.4257 196.35C56.7991 196.163 57.1911 196.07 57.6017 196.07C58.0404 196.07 58.4417 196.177 58.8057 196.392C59.1697 196.607 59.4404 196.924 59.6177 197.344C60.0844 196.495 60.8357 196.07 61.8717 196.07C62.5157 196.07 63.0617 196.289 63.5097 196.728C63.9671 197.167 64.1957 197.801 64.1957 198.632V203H62.8937V198.772C62.8937 198.305 62.7724 197.932 62.5297 197.652C62.2964 197.372 61.9417 197.232 61.4657 197.232C61.0084 197.232 60.6351 197.395 60.3457 197.722C60.0564 198.039 59.9117 198.441 59.9117 198.926V203H58.5957V198.772C58.5957 198.305 58.4744 197.932 58.2317 197.652C57.9984 197.372 57.6437 197.232 57.1677 197.232C56.7011 197.232 56.3231 197.391 56.0337 197.708C55.7444 198.025 55.5997 198.436 55.5997 198.94V203ZM70.6029 202.188C70.4256 202.524 70.1549 202.781 69.7909 202.958C69.4269 203.126 69.0349 203.21 68.6149 203.21C67.8496 203.21 67.2383 202.958 66.7809 202.454C66.3236 201.941 66.0949 201.292 66.0949 200.508V196.266H67.4109V200.312C67.4109 200.816 67.5323 201.231 67.7749 201.558C68.0269 201.885 68.4143 202.048 68.9369 202.048C69.4596 202.048 69.8563 201.894 70.1269 201.586C70.3976 201.269 70.5329 200.849 70.5329 200.326V196.266H71.8489V201.754C71.8489 202.193 71.8723 202.608 71.9189 203H70.6589C70.6216 202.795 70.6029 202.524 70.6029 202.188ZM75.4106 203H74.0946V192.864H75.4106V203ZM79.4133 194.138V196.266H80.8693V197.456H79.4133V200.956C79.4133 201.273 79.4833 201.507 79.6233 201.656C79.7726 201.805 80.0153 201.88 80.3513 201.88C80.5473 201.88 80.72 201.861 80.8693 201.824V202.944C80.6453 203.028 80.3466 203.07 79.9733 203.07C79.3946 203.07 78.9373 202.902 78.6013 202.566C78.2653 202.23 78.0973 201.759 78.0973 201.152V197.456H76.8093V196.266H77.1733C77.5186 196.266 77.7753 196.173 77.9433 195.986C78.1206 195.79 78.2093 195.538 78.2093 195.23V194.138H79.4133ZM83.9279 203H82.6259V196.266H83.9279V203ZM82.5979 194.39C82.4205 194.203 82.3319 193.979 82.3319 193.718C82.3319 193.457 82.4205 193.233 82.5979 193.046C82.7845 192.859 83.0085 192.766 83.2699 192.766C83.5312 192.766 83.7552 192.859 83.9419 193.046C84.1285 193.223 84.2219 193.447 84.2219 193.718C84.2219 193.979 84.1285 194.203 83.9419 194.39C83.7552 194.567 83.5312 194.656 83.2699 194.656C83.0085 194.656 82.7845 194.567 82.5979 194.39ZM87.4689 205.66H86.1669V196.266H87.4409V197.316C87.6369 196.961 87.9309 196.672 88.3229 196.448C88.7149 196.224 89.1722 196.112 89.6949 196.112C90.6655 196.112 91.4215 196.443 91.9629 197.106C92.5135 197.769 92.7889 198.609 92.7889 199.626C92.7889 200.653 92.5042 201.502 91.9349 202.174C91.3749 202.846 90.6142 203.182 89.6529 203.182C89.1582 203.182 88.7195 203.079 88.3369 202.874C87.9542 202.669 87.6649 202.407 87.4689 202.09V205.66ZM91.4449 199.626C91.4449 198.945 91.2629 198.385 90.8989 197.946C90.5442 197.498 90.0635 197.274 89.4569 197.274C88.8595 197.274 88.3742 197.498 88.0009 197.946C87.6369 198.385 87.4549 198.945 87.4549 199.626C87.4549 200.326 87.6369 200.9 88.0009 201.348C88.3742 201.787 88.8595 202.006 89.4569 202.006C90.0542 202.006 90.5349 201.787 90.8989 201.348C91.2629 200.9 91.4449 200.326 91.4449 199.626ZM95.7817 203H94.4657V192.864H95.7817V203ZM98.8744 198.94H102.556C102.538 198.436 102.37 198.025 102.052 197.708C101.735 197.381 101.287 197.218 100.708 197.218C100.186 197.218 99.7564 197.391 99.4204 197.736C99.0844 198.072 98.9024 198.473 98.8744 198.94ZM102.752 200.69L103.886 201.082C103.69 201.707 103.326 202.221 102.794 202.622C102.262 203.014 101.618 203.21 100.862 203.21C99.9197 203.21 99.1171 202.888 98.4544 202.244C97.8011 201.591 97.4744 200.713 97.4744 199.612C97.4744 198.585 97.7917 197.736 98.4264 197.064C99.0611 196.392 99.8171 196.056 100.694 196.056C101.712 196.056 102.505 196.378 103.074 197.022C103.644 197.657 103.928 198.511 103.928 199.584C103.928 199.752 103.919 199.892 103.9 200.004H98.8324C98.8417 200.601 99.0377 201.091 99.4204 201.474C99.8124 201.857 100.293 202.048 100.862 202.048C101.824 202.048 102.454 201.595 102.752 200.69ZM110.872 194.138V196.266H112.328V197.456H110.872V200.956C110.872 201.273 110.942 201.507 111.082 201.656C111.232 201.805 111.474 201.88 111.81 201.88C112.006 201.88 112.179 201.861 112.328 201.824V202.944C112.104 203.028 111.806 203.07 111.432 203.07C110.854 203.07 110.396 202.902 110.06 202.566C109.724 202.23 109.556 201.759 109.556 201.152V197.456H108.268V196.266H108.632C108.978 196.266 109.234 196.173 109.402 195.986C109.58 195.79 109.668 195.538 109.668 195.23V194.138H110.872ZM114.87 198.94H118.552C118.534 198.436 118.366 198.025 118.048 197.708C117.731 197.381 117.283 197.218 116.704 197.218C116.182 197.218 115.752 197.391 115.416 197.736C115.08 198.072 114.898 198.473 114.87 198.94ZM118.748 200.69L119.882 201.082C119.686 201.707 119.322 202.221 118.79 202.622C118.258 203.014 117.614 203.21 116.858 203.21C115.916 203.21 115.113 202.888 114.45 202.244C113.797 201.591 113.47 200.713 113.47 199.612C113.47 198.585 113.788 197.736 114.422 197.064C115.057 196.392 115.813 196.056 116.69 196.056C117.708 196.056 118.501 196.378 119.07 197.022C119.64 197.657 119.924 198.511 119.924 199.584C119.924 199.752 119.915 199.892 119.896 200.004H114.828C114.838 200.601 115.034 201.091 115.416 201.474C115.808 201.857 116.289 202.048 116.858 202.048C117.82 202.048 118.45 201.595 118.748 200.69ZM121.184 201.194C121.184 200.615 121.371 200.153 121.744 199.808C122.118 199.453 122.612 199.234 123.228 199.15L125.048 198.884C125.394 198.837 125.566 198.669 125.566 198.38C125.566 198.025 125.445 197.736 125.202 197.512C124.96 197.288 124.596 197.176 124.11 197.176C123.662 197.176 123.308 197.302 123.046 197.554C122.785 197.797 122.631 198.123 122.584 198.534L121.324 198.24C121.39 197.596 121.684 197.073 122.206 196.672C122.729 196.261 123.354 196.056 124.082 196.056C125.034 196.056 125.739 196.289 126.196 196.756C126.654 197.213 126.882 197.801 126.882 198.52V201.894C126.882 202.295 126.91 202.664 126.966 203H125.678C125.632 202.72 125.608 202.417 125.608 202.09C125.422 202.389 125.146 202.65 124.782 202.874C124.428 203.098 123.98 203.21 123.438 203.21C122.776 203.21 122.234 203.014 121.814 202.622C121.394 202.221 121.184 201.745 121.184 201.194ZM123.62 202.104C124.208 202.104 124.68 201.945 125.034 201.628C125.389 201.311 125.566 200.807 125.566 200.116V199.808L123.508 200.116C123.21 200.163 122.972 200.27 122.794 200.438C122.617 200.606 122.528 200.835 122.528 201.124C122.528 201.385 122.626 201.614 122.822 201.81C123.028 202.006 123.294 202.104 123.62 202.104ZM130.235 203H128.933V196.266H130.193V197.162C130.398 196.807 130.687 196.537 131.061 196.35C131.434 196.163 131.826 196.07 132.237 196.07C132.675 196.07 133.077 196.177 133.441 196.392C133.805 196.607 134.075 196.924 134.253 197.344C134.719 196.495 135.471 196.07 136.507 196.07C137.151 196.07 137.697 196.289 138.145 196.728C138.602 197.167 138.831 197.801 138.831 198.632V203H137.529V198.772C137.529 198.305 137.407 197.932 137.165 197.652C136.931 197.372 136.577 197.232 136.101 197.232C135.643 197.232 135.27 197.395 134.981 197.722C134.691 198.039 134.547 198.441 134.547 198.926V203H133.231V198.772C133.231 198.305 133.109 197.932 132.867 197.652C132.633 197.372 132.279 197.232 131.803 197.232C131.336 197.232 130.958 197.391 130.669 197.708C130.379 198.025 130.235 198.436 130.235 198.94V203ZM140.306 201.25L141.496 200.83C141.543 201.194 141.702 201.497 141.972 201.74C142.243 201.973 142.607 202.09 143.064 202.09C143.419 202.09 143.699 202.006 143.904 201.838C144.11 201.661 144.212 201.446 144.212 201.194C144.212 200.746 143.923 200.457 143.344 200.326L142.196 200.074C141.674 199.962 141.263 199.738 140.964 199.402C140.666 199.066 140.516 198.66 140.516 198.184C140.516 197.605 140.75 197.106 141.216 196.686C141.692 196.266 142.257 196.056 142.91 196.056C143.34 196.056 143.722 196.121 144.058 196.252C144.394 196.373 144.656 196.537 144.842 196.742C145.029 196.947 145.169 197.139 145.262 197.316C145.356 197.493 145.426 197.675 145.472 197.862L144.31 198.296C144.292 198.184 144.259 198.077 144.212 197.974C144.166 197.862 144.091 197.741 143.988 197.61C143.895 197.479 143.755 197.377 143.568 197.302C143.382 197.218 143.162 197.176 142.91 197.176C142.584 197.176 142.313 197.265 142.098 197.442C141.893 197.619 141.79 197.829 141.79 198.072C141.79 198.501 142.047 198.772 142.56 198.884L143.652 199.122C144.25 199.253 144.707 199.495 145.024 199.85C145.351 200.195 145.514 200.62 145.514 201.124C145.514 201.656 145.295 202.137 144.856 202.566C144.427 202.995 143.825 203.21 143.05 203.21C142.22 203.21 141.571 203.005 141.104 202.594C140.638 202.174 140.372 201.726 140.306 201.25ZM150.346 201.194C150.346 200.615 150.533 200.153 150.906 199.808C151.28 199.453 151.774 199.234 152.39 199.15L154.21 198.884C154.556 198.837 154.728 198.669 154.728 198.38C154.728 198.025 154.607 197.736 154.364 197.512C154.122 197.288 153.758 197.176 153.272 197.176C152.824 197.176 152.47 197.302 152.208 197.554C151.947 197.797 151.793 198.123 151.746 198.534L150.486 198.24C150.552 197.596 150.846 197.073 151.368 196.672C151.891 196.261 152.516 196.056 153.244 196.056C154.196 196.056 154.901 196.289 155.358 196.756C155.816 197.213 156.044 197.801 156.044 198.52V201.894C156.044 202.295 156.072 202.664 156.128 203H154.84C154.794 202.72 154.77 202.417 154.77 202.09C154.584 202.389 154.308 202.65 153.944 202.874C153.59 203.098 153.142 203.21 152.6 203.21C151.938 203.21 151.396 203.014 150.976 202.622C150.556 202.221 150.346 201.745 150.346 201.194ZM152.782 202.104C153.37 202.104 153.842 201.945 154.196 201.628C154.551 201.311 154.728 200.807 154.728 200.116V199.808L152.67 200.116C152.372 200.163 152.134 200.27 151.956 200.438C151.779 200.606 151.69 200.835 151.69 201.124C151.69 201.385 151.788 201.614 151.984 201.81C152.19 202.006 152.456 202.104 152.782 202.104ZM160.923 197.274C160.353 197.274 159.868 197.479 159.467 197.89C159.075 198.301 158.879 198.879 158.879 199.626C158.879 200.363 159.075 200.942 159.467 201.362C159.868 201.782 160.358 201.992 160.937 201.992C161.497 201.992 161.921 201.852 162.211 201.572C162.509 201.292 162.71 200.97 162.813 200.606L163.975 201.11C163.788 201.67 163.433 202.16 162.911 202.58C162.397 203 161.739 203.21 160.937 203.21C159.957 203.21 159.145 202.869 158.501 202.188C157.857 201.507 157.535 200.653 157.535 199.626C157.535 198.581 157.857 197.727 158.501 197.064C159.145 196.392 159.952 196.056 160.923 196.056C161.744 196.056 162.407 196.266 162.911 196.686C163.424 197.106 163.76 197.61 163.919 198.198L162.729 198.702C162.626 198.31 162.43 197.974 162.141 197.694C161.851 197.414 161.445 197.274 160.923 197.274ZM169.256 196.196V197.596C169.06 197.568 168.869 197.554 168.682 197.554C167.45 197.554 166.834 198.245 166.834 199.626V203H165.518V196.266H166.806V197.442C167.217 196.583 167.889 196.154 168.822 196.154C168.972 196.154 169.116 196.168 169.256 196.196ZM171.977 201.404C172.387 201.824 172.887 202.034 173.475 202.034C174.063 202.034 174.557 201.824 174.959 201.404C175.369 200.975 175.575 200.382 175.575 199.626C175.575 198.879 175.369 198.296 174.959 197.876C174.557 197.447 174.063 197.232 173.475 197.232C172.887 197.232 172.387 197.447 171.977 197.876C171.575 198.296 171.375 198.879 171.375 199.626C171.375 200.382 171.575 200.975 171.977 201.404ZM170.997 197.078C171.65 196.397 172.476 196.056 173.475 196.056C174.473 196.056 175.295 196.397 175.939 197.078C176.592 197.75 176.919 198.599 176.919 199.626C176.919 200.662 176.597 201.521 175.953 202.202C175.309 202.874 174.483 203.21 173.475 203.21C172.467 203.21 171.641 202.874 170.997 202.202C170.353 201.521 170.031 200.662 170.031 199.626C170.031 198.599 170.353 197.75 170.997 197.078ZM177.972 201.25L179.162 200.83C179.209 201.194 179.368 201.497 179.638 201.74C179.909 201.973 180.273 202.09 180.73 202.09C181.085 202.09 181.365 202.006 181.57 201.838C181.776 201.661 181.878 201.446 181.878 201.194C181.878 200.746 181.589 200.457 181.01 200.326L179.862 200.074C179.34 199.962 178.929 199.738 178.63 199.402C178.332 199.066 178.182 198.66 178.182 198.184C178.182 197.605 178.416 197.106 178.882 196.686C179.358 196.266 179.923 196.056 180.576 196.056C181.006 196.056 181.388 196.121 181.724 196.252C182.06 196.373 182.322 196.537 182.508 196.742C182.695 196.947 182.835 197.139 182.928 197.316C183.022 197.493 183.092 197.675 183.138 197.862L181.976 198.296C181.958 198.184 181.925 198.077 181.878 197.974C181.832 197.862 181.757 197.741 181.654 197.61C181.561 197.479 181.421 197.377 181.234 197.302C181.048 197.218 180.828 197.176 180.576 197.176C180.25 197.176 179.979 197.265 179.764 197.442C179.559 197.619 179.456 197.829 179.456 198.072C179.456 198.501 179.713 198.772 180.226 198.884L181.318 199.122C181.916 199.253 182.373 199.495 182.69 199.85C183.017 200.195 183.18 200.62 183.18 201.124C183.18 201.656 182.961 202.137 182.522 202.566C182.093 202.995 181.491 203.21 180.716 203.21C179.886 203.21 179.237 203.005 178.77 202.594C178.304 202.174 178.038 201.726 177.972 201.25ZM184.303 201.25L185.493 200.83C185.539 201.194 185.698 201.497 185.969 201.74C186.239 201.973 186.603 202.09 187.061 202.09C187.415 202.09 187.695 202.006 187.901 201.838C188.106 201.661 188.209 201.446 188.209 201.194C188.209 200.746 187.919 200.457 187.341 200.326L186.193 200.074C185.67 199.962 185.259 199.738 184.961 199.402C184.662 199.066 184.513 198.66 184.513 198.184C184.513 197.605 184.746 197.106 185.213 196.686C185.689 196.266 186.253 196.056 186.907 196.056C187.336 196.056 187.719 196.121 188.055 196.252C188.391 196.373 188.652 196.537 188.839 196.742C189.025 196.947 189.165 197.139 189.259 197.316C189.352 197.493 189.422 197.675 189.469 197.862L188.307 198.296C188.288 198.184 188.255 198.077 188.209 197.974C188.162 197.862 188.087 197.741 187.985 197.61C187.891 197.479 187.751 197.377 187.565 197.302C187.378 197.218 187.159 197.176 186.907 197.176C186.58 197.176 186.309 197.265 186.095 197.442C185.889 197.619 185.787 197.829 185.787 198.072C185.787 198.501 186.043 198.772 186.557 198.884L187.649 199.122C188.246 199.253 188.703 199.495 189.021 199.85C189.347 200.195 189.511 200.62 189.511 201.124C189.511 201.656 189.291 202.137 188.853 202.566C188.423 202.995 187.821 203.21 187.047 203.21C186.216 203.21 185.567 203.005 185.101 202.594C184.634 202.174 184.368 201.726 184.303 201.25ZM196.443 205.814H195.001L196.681 202.258L193.783 196.266H195.295L197.395 200.914L199.411 196.266H200.825L196.443 205.814ZM203.203 201.404C203.614 201.824 204.113 202.034 204.701 202.034C205.289 202.034 205.784 201.824 206.185 201.404C206.596 200.975 206.801 200.382 206.801 199.626C206.801 198.879 206.596 198.296 206.185 197.876C205.784 197.447 205.289 197.232 204.701 197.232C204.113 197.232 203.614 197.447 203.203 197.876C202.802 198.296 202.601 198.879 202.601 199.626C202.601 200.382 202.802 200.975 203.203 201.404ZM202.223 197.078C202.877 196.397 203.703 196.056 204.701 196.056C205.7 196.056 206.521 196.397 207.165 197.078C207.819 197.75 208.145 198.599 208.145 199.626C208.145 200.662 207.823 201.521 207.179 202.202C206.535 202.874 205.709 203.21 204.701 203.21C203.693 203.21 202.867 202.874 202.223 202.202C201.579 201.521 201.257 200.662 201.257 199.626C201.257 198.599 201.579 197.75 202.223 197.078ZM214.199 202.188C214.021 202.524 213.751 202.781 213.387 202.958C213.023 203.126 212.631 203.21 212.211 203.21C211.445 203.21 210.834 202.958 210.377 202.454C209.919 201.941 209.691 201.292 209.691 200.508V196.266H211.007V200.312C211.007 200.816 211.128 201.231 211.371 201.558C211.623 201.885 212.01 202.048 212.533 202.048C213.055 202.048 213.452 201.894 213.723 201.586C213.993 201.269 214.129 200.849 214.129 200.326V196.266H215.445V201.754C215.445 202.193 215.468 202.608 215.515 203H214.255C214.217 202.795 214.199 202.524 214.199 202.188ZM221.428 196.196V197.596C221.232 197.568 221.041 197.554 220.854 197.554C219.622 197.554 219.006 198.245 219.006 199.626V203H217.69V196.266H218.978V197.442C219.389 196.583 220.061 196.154 220.994 196.154C221.144 196.154 221.288 196.168 221.428 196.196ZM34.506 221.404C34.9167 221.824 35.416 222.034 36.004 222.034C36.592 222.034 37.0867 221.824 37.488 221.404C37.8987 220.975 38.104 220.382 38.104 219.626C38.104 218.879 37.8987 218.296 37.488 217.876C37.0867 217.447 36.592 217.232 36.004 217.232C35.416 217.232 34.9167 217.447 34.506 217.876C34.1047 218.296 33.904 218.879 33.904 219.626C33.904 220.382 34.1047 220.975 34.506 221.404ZM33.526 217.078C34.1793 216.397 35.0053 216.056 36.004 216.056C37.0027 216.056 37.824 216.397 38.468 217.078C39.1213 217.75 39.448 218.599 39.448 219.626C39.448 220.662 39.126 221.521 38.482 222.202C37.838 222.874 37.012 223.21 36.004 223.21C34.996 223.21 34.17 222.874 33.526 222.202C32.882 221.521 32.56 220.662 32.56 219.626C32.56 218.599 32.882 217.75 33.526 217.078ZM44.8697 216.196V217.596C44.6737 217.568 44.4824 217.554 44.2957 217.554C43.0637 217.554 42.4477 218.245 42.4477 219.626V223H41.1317V216.266H42.4197V217.442C42.8304 216.583 43.5024 216.154 44.4357 216.154C44.5851 216.154 44.7297 216.168 44.8697 216.196ZM45.714 223.364L46.988 223.07C47.0347 223.546 47.226 223.938 47.562 224.246C47.898 224.563 48.318 224.722 48.822 224.722C50.194 224.722 50.88 223.994 50.88 222.538V221.572C50.712 221.899 50.446 222.165 50.082 222.37C49.7273 222.575 49.3073 222.678 48.822 222.678C47.926 222.678 47.184 222.375 46.596 221.768C46.0173 221.152 45.728 220.368 45.728 219.416C45.728 218.492 46.0173 217.717 46.596 217.092C47.1747 216.457 47.9167 216.14 48.822 216.14C49.8487 216.14 50.5393 216.495 50.894 217.204V216.266H52.196V222.496C52.196 222.944 52.1353 223.359 52.014 223.742C51.902 224.134 51.72 224.493 51.468 224.82C51.216 225.147 50.8613 225.403 50.404 225.59C49.956 225.777 49.4287 225.87 48.822 225.87C47.9913 225.87 47.2867 225.632 46.708 225.156C46.1293 224.689 45.798 224.092 45.714 223.364ZM49.018 221.572C49.5873 221.572 50.0493 221.376 50.404 220.984C50.7587 220.583 50.936 220.06 50.936 219.416C50.936 218.772 50.7587 218.254 50.404 217.862C50.0493 217.461 49.5873 217.26 49.018 217.26C48.4393 217.26 47.968 217.456 47.604 217.848C47.2493 218.24 47.072 218.763 47.072 219.416C47.072 220.079 47.2447 220.606 47.59 220.998C47.9447 221.381 48.4207 221.572 49.018 221.572ZM53.8094 221.194C53.8094 220.615 53.996 220.153 54.3694 219.808C54.7427 219.453 55.2374 219.234 55.8534 219.15L57.6734 218.884C58.0187 218.837 58.1914 218.669 58.1914 218.38C58.1914 218.025 58.07 217.736 57.8274 217.512C57.5847 217.288 57.2207 217.176 56.7354 217.176C56.2874 217.176 55.9327 217.302 55.6714 217.554C55.41 217.797 55.256 218.123 55.2094 218.534L53.9494 218.24C54.0147 217.596 54.3087 217.073 54.8314 216.672C55.354 216.261 55.9794 216.056 56.7074 216.056C57.6594 216.056 58.364 216.289 58.8214 216.756C59.2787 217.213 59.5074 217.801 59.5074 218.52V221.894C59.5074 222.295 59.5354 222.664 59.5914 223H58.3034C58.2567 222.72 58.2334 222.417 58.2334 222.09C58.0467 222.389 57.7714 222.65 57.4074 222.874C57.0527 223.098 56.6047 223.21 56.0634 223.21C55.4007 223.21 54.8594 223.014 54.4394 222.622C54.0194 222.221 53.8094 221.745 53.8094 221.194ZM56.2454 222.104C56.8334 222.104 57.3047 221.945 57.6594 221.628C58.014 221.311 58.1914 220.807 58.1914 220.116V219.808L56.1334 220.116C55.8347 220.163 55.5967 220.27 55.4194 220.438C55.242 220.606 55.1534 220.835 55.1534 221.124C55.1534 221.385 55.2514 221.614 55.4474 221.81C55.6527 222.006 55.9187 222.104 56.2454 222.104ZM62.8735 219.108V223H61.5575V216.266H62.8455V217.232C63.2935 216.457 63.9842 216.07 64.9175 216.07C65.6922 216.07 66.2848 216.317 66.6955 216.812C67.1155 217.307 67.3255 217.946 67.3255 218.73V223H66.0095V218.954C66.0095 217.825 65.4868 217.26 64.4415 217.26C63.9468 217.26 63.5595 217.437 63.2795 217.792C63.0088 218.137 62.8735 218.576 62.8735 219.108ZM70.7208 223H69.4188V216.266H70.7208V223ZM69.3908 214.39C69.2135 214.203 69.1248 213.979 69.1248 213.718C69.1248 213.457 69.2135 213.233 69.3908 213.046C69.5775 212.859 69.8015 212.766 70.0628 212.766C70.3242 212.766 70.5482 212.859 70.7348 213.046C70.9215 213.223 71.0148 213.447 71.0148 213.718C71.0148 213.979 70.9215 214.203 70.7348 214.39C70.5482 214.567 70.3242 214.656 70.0628 214.656C69.8015 214.656 69.5775 214.567 69.3908 214.39ZM72.3298 221.25L73.5198 220.83C73.5665 221.194 73.7252 221.497 73.9958 221.74C74.2665 221.973 74.6305 222.09 75.0878 222.09C75.4425 222.09 75.7225 222.006 75.9278 221.838C76.1332 221.661 76.2358 221.446 76.2358 221.194C76.2358 220.746 75.9465 220.457 75.3678 220.326L74.2198 220.074C73.6972 219.962 73.2865 219.738 72.9878 219.402C72.6892 219.066 72.5398 218.66 72.5398 218.184C72.5398 217.605 72.7732 217.106 73.2398 216.686C73.7158 216.266 74.2805 216.056 74.9338 216.056C75.3632 216.056 75.7458 216.121 76.0818 216.252C76.4178 216.373 76.6792 216.537 76.8658 216.742C77.0525 216.947 77.1925 217.139 77.2858 217.316C77.3792 217.493 77.4492 217.675 77.4958 217.862L76.3338 218.296C76.3152 218.184 76.2825 218.077 76.2358 217.974C76.1892 217.862 76.1145 217.741 76.0118 217.61C75.9185 217.479 75.7785 217.377 75.5918 217.302C75.4052 217.218 75.1858 217.176 74.9338 217.176C74.6072 217.176 74.3365 217.265 74.1218 217.442C73.9165 217.619 73.8138 217.829 73.8138 218.072C73.8138 218.501 74.0705 218.772 74.5838 218.884L75.6758 219.122C76.2732 219.253 76.7305 219.495 77.0478 219.85C77.3745 220.195 77.5378 220.62 77.5378 221.124C77.5378 221.656 77.3185 222.137 76.8798 222.566C76.4505 222.995 75.8485 223.21 75.0738 223.21C74.2432 223.21 73.5945 223.005 73.1278 222.594C72.6612 222.174 72.3952 221.726 72.3298 221.25ZM78.7332 221.194C78.7332 220.615 78.9199 220.153 79.2932 219.808C79.6665 219.453 80.1612 219.234 80.7772 219.15L82.5972 218.884C82.9425 218.837 83.1152 218.669 83.1152 218.38C83.1152 218.025 82.9939 217.736 82.7512 217.512C82.5085 217.288 82.1445 217.176 81.6592 217.176C81.2112 217.176 80.8565 217.302 80.5952 217.554C80.3339 217.797 80.1799 218.123 80.1332 218.534L78.8732 218.24C78.9385 217.596 79.2325 217.073 79.7552 216.672C80.2779 216.261 80.9032 216.056 81.6312 216.056C82.5832 216.056 83.2879 216.289 83.7452 216.756C84.2025 217.213 84.4312 217.801 84.4312 218.52V221.894C84.4312 222.295 84.4592 222.664 84.5152 223H83.2272C83.1805 222.72 83.1572 222.417 83.1572 222.09C82.9705 222.389 82.6952 222.65 82.3312 222.874C81.9765 223.098 81.5285 223.21 80.9872 223.21C80.3245 223.21 79.7832 223.014 79.3632 222.622C78.9432 222.221 78.7332 221.745 78.7332 221.194ZM81.1692 222.104C81.7572 222.104 82.2285 221.945 82.5832 221.628C82.9379 221.311 83.1152 220.807 83.1152 220.116V219.808L81.0572 220.116C80.7585 220.163 80.5205 220.27 80.3432 220.438C80.1659 220.606 80.0772 220.835 80.0772 221.124C80.0772 221.385 80.1752 221.614 80.3712 221.81C80.5765 222.006 80.8425 222.104 81.1692 222.104ZM88.2453 214.138V216.266H89.7013V217.456H88.2453V220.956C88.2453 221.273 88.3153 221.507 88.4553 221.656C88.6047 221.805 88.8473 221.88 89.1833 221.88C89.3793 221.88 89.552 221.861 89.7013 221.824V222.944C89.4773 223.028 89.1787 223.07 88.8053 223.07C88.2267 223.07 87.7693 222.902 87.4333 222.566C87.0973 222.23 86.9293 221.759 86.9293 221.152V217.456H85.6413V216.266H86.0053C86.3507 216.266 86.6073 216.173 86.7753 215.986C86.9527 215.79 87.0413 215.538 87.0413 215.23V214.138H88.2453ZM92.7599 223H91.4579V216.266H92.7599V223ZM91.4299 214.39C91.2526 214.203 91.1639 213.979 91.1639 213.718C91.1639 213.457 91.2526 213.233 91.4299 213.046C91.6166 212.859 91.8406 212.766 92.1019 212.766C92.3632 212.766 92.5872 212.859 92.7739 213.046C92.9606 213.223 93.0539 213.447 93.0539 213.718C93.0539 213.979 92.9606 214.203 92.7739 214.39C92.5872 214.567 92.3632 214.656 92.1019 214.656C91.8406 214.656 91.6166 214.567 91.4299 214.39ZM96.3849 221.404C96.7956 221.824 97.2949 222.034 97.8829 222.034C98.4709 222.034 98.9656 221.824 99.3669 221.404C99.7776 220.975 99.9829 220.382 99.9829 219.626C99.9829 218.879 99.7776 218.296 99.3669 217.876C98.9656 217.447 98.4709 217.232 97.8829 217.232C97.2949 217.232 96.7956 217.447 96.3849 217.876C95.9836 218.296 95.7829 218.879 95.7829 219.626C95.7829 220.382 95.9836 220.975 96.3849 221.404ZM95.4049 217.078C96.0582 216.397 96.8842 216.056 97.8829 216.056C98.8816 216.056 99.7029 216.397 100.347 217.078C101 217.75 101.327 218.599 101.327 219.626C101.327 220.662 101.005 221.521 100.361 222.202C99.7169 222.874 98.8909 223.21 97.8829 223.21C96.8749 223.21 96.0489 222.874 95.4049 222.202C94.7609 221.521 94.4389 220.662 94.4389 219.626C94.4389 218.599 94.7609 217.75 95.4049 217.078ZM104.327 219.108V223H103.011V216.266H104.299V217.232C104.747 216.457 105.437 216.07 106.371 216.07C107.145 216.07 107.738 216.317 108.149 216.812C108.569 217.307 108.779 217.946 108.779 218.73V223H107.463V218.954C107.463 217.825 106.94 217.26 105.895 217.26C105.4 217.26 105.013 217.437 104.733 217.792C104.462 218.137 104.327 218.576 104.327 219.108ZM118.81 222.188C118.633 222.524 118.362 222.781 117.998 222.958C117.634 223.126 117.242 223.21 116.822 223.21C116.057 223.21 115.445 222.958 114.988 222.454C114.531 221.941 114.302 221.292 114.302 220.508V216.266H115.618V220.312C115.618 220.816 115.739 221.231 115.982 221.558C116.234 221.885 116.621 222.048 117.144 222.048C117.667 222.048 118.063 221.894 118.334 221.586C118.605 221.269 118.74 220.849 118.74 220.326V216.266H120.056V221.754C120.056 222.193 120.079 222.608 120.126 223H118.866C118.829 222.795 118.81 222.524 118.81 222.188ZM121.672 221.25L122.862 220.83C122.908 221.194 123.067 221.497 123.338 221.74C123.608 221.973 123.972 222.09 124.43 222.09C124.784 222.09 125.064 222.006 125.27 221.838C125.475 221.661 125.578 221.446 125.578 221.194C125.578 220.746 125.288 220.457 124.71 220.326L123.562 220.074C123.039 219.962 122.628 219.738 122.33 219.402C122.031 219.066 121.882 218.66 121.882 218.184C121.882 217.605 122.115 217.106 122.582 216.686C123.058 216.266 123.622 216.056 124.276 216.056C124.705 216.056 125.088 216.121 125.424 216.252C125.76 216.373 126.021 216.537 126.208 216.742C126.394 216.947 126.534 217.139 126.628 217.316C126.721 217.493 126.791 217.675 126.838 217.862L125.676 218.296C125.657 218.184 125.624 218.077 125.578 217.974C125.531 217.862 125.456 217.741 125.354 217.61C125.26 217.479 125.12 217.377 124.934 217.302C124.747 217.218 124.528 217.176 124.276 217.176C123.949 217.176 123.678 217.265 123.464 217.442C123.258 217.619 123.156 217.829 123.156 218.072C123.156 218.501 123.412 218.772 123.926 218.884L125.018 219.122C125.615 219.253 126.072 219.495 126.39 219.85C126.716 220.195 126.88 220.62 126.88 221.124C126.88 221.656 126.66 222.137 126.222 222.566C125.792 222.995 125.19 223.21 124.416 223.21C123.585 223.21 122.936 223.005 122.47 222.594C122.003 222.174 121.737 221.726 121.672 221.25ZM129.934 223H128.632V216.266H129.934V223ZM128.604 214.39C128.426 214.203 128.338 213.979 128.338 213.718C128.338 213.457 128.426 213.233 128.604 213.046C128.79 212.859 129.014 212.766 129.276 212.766C129.537 212.766 129.761 212.859 129.948 213.046C130.134 213.223 130.228 213.447 130.228 213.718C130.228 213.979 130.134 214.203 129.948 214.39C129.761 214.567 129.537 214.656 129.276 214.656C129.014 214.656 128.79 214.567 128.604 214.39ZM133.489 219.108V223H132.173V216.266H133.461V217.232C133.909 216.457 134.599 216.07 135.533 216.07C136.307 216.07 136.9 216.317 137.311 216.812C137.731 217.307 137.941 217.946 137.941 218.73V223H136.625V218.954C136.625 217.825 136.102 217.26 135.057 217.26C134.562 217.26 134.175 217.437 133.895 217.792C133.624 218.137 133.489 218.576 133.489 219.108ZM139.544 223.364L140.818 223.07C140.865 223.546 141.056 223.938 141.392 224.246C141.728 224.563 142.148 224.722 142.652 224.722C144.024 224.722 144.71 223.994 144.71 222.538V221.572C144.542 221.899 144.276 222.165 143.912 222.37C143.557 222.575 143.137 222.678 142.652 222.678C141.756 222.678 141.014 222.375 140.426 221.768C139.847 221.152 139.558 220.368 139.558 219.416C139.558 218.492 139.847 217.717 140.426 217.092C141.005 216.457 141.747 216.14 142.652 216.14C143.679 216.14 144.369 216.495 144.724 217.204V216.266H146.026V222.496C146.026 222.944 145.965 223.359 145.844 223.742C145.732 224.134 145.55 224.493 145.298 224.82C145.046 225.147 144.691 225.403 144.234 225.59C143.786 225.777 143.259 225.87 142.652 225.87C141.821 225.87 141.117 225.632 140.538 225.156C139.959 224.689 139.628 224.092 139.544 223.364ZM142.848 221.572C143.417 221.572 143.879 221.376 144.234 220.984C144.589 220.583 144.766 220.06 144.766 219.416C144.766 218.772 144.589 218.254 144.234 217.862C143.879 217.461 143.417 217.26 142.848 217.26C142.269 217.26 141.798 217.456 141.434 217.848C141.079 218.24 140.902 218.763 140.902 219.416C140.902 220.079 141.075 220.606 141.42 220.998C141.775 221.381 142.251 221.572 142.848 221.572ZM156.906 223L154.638 218.94H153.154V223H151.768V213.074H155.506C156.42 213.074 157.153 213.359 157.704 213.928C158.264 214.488 158.544 215.188 158.544 216.028C158.544 216.747 158.329 217.363 157.9 217.876C157.47 218.38 156.882 218.702 156.136 218.842L158.502 223H156.906ZM153.154 217.708H155.254C155.814 217.708 156.266 217.559 156.612 217.26C156.957 216.952 157.13 216.541 157.13 216.028C157.13 215.505 156.957 215.09 156.612 214.782C156.266 214.465 155.814 214.306 155.254 214.306H153.154V217.708ZM160.876 218.94H164.558C164.54 218.436 164.372 218.025 164.054 217.708C163.737 217.381 163.289 217.218 162.71 217.218C162.188 217.218 161.758 217.391 161.422 217.736C161.086 218.072 160.904 218.473 160.876 218.94ZM164.754 220.69L165.888 221.082C165.692 221.707 165.328 222.221 164.796 222.622C164.264 223.014 163.62 223.21 162.864 223.21C161.922 223.21 161.119 222.888 160.456 222.244C159.803 221.591 159.476 220.713 159.476 219.612C159.476 218.585 159.794 217.736 160.428 217.064C161.063 216.392 161.819 216.056 162.696 216.056C163.714 216.056 164.507 216.378 165.076 217.022C165.646 217.657 165.93 218.511 165.93 219.584C165.93 219.752 165.921 219.892 165.902 220.004H160.834C160.844 220.601 161.04 221.091 161.422 221.474C161.814 221.857 162.295 222.048 162.864 222.048C163.826 222.048 164.456 221.595 164.754 220.69ZM166.98 221.25L168.17 220.83C168.217 221.194 168.376 221.497 168.646 221.74C168.917 221.973 169.281 222.09 169.738 222.09C170.093 222.09 170.373 222.006 170.578 221.838C170.784 221.661 170.886 221.446 170.886 221.194C170.886 220.746 170.597 220.457 170.018 220.326L168.87 220.074C168.348 219.962 167.937 219.738 167.638 219.402C167.34 219.066 167.19 218.66 167.19 218.184C167.19 217.605 167.424 217.106 167.89 216.686C168.366 216.266 168.931 216.056 169.584 216.056C170.014 216.056 170.396 216.121 170.732 216.252C171.068 216.373 171.33 216.537 171.516 216.742C171.703 216.947 171.843 217.139 171.936 217.316C172.03 217.493 172.1 217.675 172.146 217.862L170.984 218.296C170.966 218.184 170.933 218.077 170.886 217.974C170.84 217.862 170.765 217.741 170.662 217.61C170.569 217.479 170.429 217.377 170.242 217.302C170.056 217.218 169.836 217.176 169.584 217.176C169.258 217.176 168.987 217.265 168.772 217.442C168.567 217.619 168.464 217.829 168.464 218.072C168.464 218.501 168.721 218.772 169.234 218.884L170.326 219.122C170.924 219.253 171.381 219.495 171.698 219.85C172.025 220.195 172.188 220.62 172.188 221.124C172.188 221.656 171.969 222.137 171.53 222.566C171.101 222.995 170.499 223.21 169.724 223.21C168.894 223.21 168.245 223.005 167.778 222.594C167.312 222.174 167.046 221.726 166.98 221.25ZM175.258 221.404C175.669 221.824 176.168 222.034 176.756 222.034C177.344 222.034 177.839 221.824 178.24 221.404C178.651 220.975 178.856 220.382 178.856 219.626C178.856 218.879 178.651 218.296 178.24 217.876C177.839 217.447 177.344 217.232 176.756 217.232C176.168 217.232 175.669 217.447 175.258 217.876C174.857 218.296 174.656 218.879 174.656 219.626C174.656 220.382 174.857 220.975 175.258 221.404ZM174.278 217.078C174.931 216.397 175.757 216.056 176.756 216.056C177.755 216.056 178.576 216.397 179.22 217.078C179.873 217.75 180.2 218.599 180.2 219.626C180.2 220.662 179.878 221.521 179.234 222.202C178.59 222.874 177.764 223.21 176.756 223.21C175.748 223.21 174.922 222.874 174.278 222.202C173.634 221.521 173.312 220.662 173.312 219.626C173.312 218.599 173.634 217.75 174.278 217.078ZM186.253 222.188C186.076 222.524 185.805 222.781 185.441 222.958C185.077 223.126 184.685 223.21 184.265 223.21C183.5 223.21 182.889 222.958 182.431 222.454C181.974 221.941 181.745 221.292 181.745 220.508V216.266H183.061V220.312C183.061 220.816 183.183 221.231 183.425 221.558C183.677 221.885 184.065 222.048 184.587 222.048C185.11 222.048 185.507 221.894 185.777 221.586C186.048 221.269 186.183 220.849 186.183 220.326V216.266H187.499V221.754C187.499 222.193 187.523 222.608 187.569 223H186.309C186.272 222.795 186.253 222.524 186.253 222.188ZM193.483 216.196V217.596C193.287 217.568 193.096 217.554 192.909 217.554C191.677 217.554 191.061 218.245 191.061 219.626V223H189.745V216.266H191.033V217.442C191.444 216.583 192.116 216.154 193.049 216.154C193.198 216.154 193.343 216.168 193.483 216.196ZM197.645 217.274C197.076 217.274 196.591 217.479 196.189 217.89C195.797 218.301 195.601 218.879 195.601 219.626C195.601 220.363 195.797 220.942 196.189 221.362C196.591 221.782 197.081 221.992 197.659 221.992C198.219 221.992 198.644 221.852 198.933 221.572C199.232 221.292 199.433 220.97 199.535 220.606L200.697 221.11C200.511 221.67 200.156 222.16 199.633 222.58C199.12 223 198.462 223.21 197.659 223.21C196.679 223.21 195.867 222.869 195.223 222.188C194.579 221.507 194.257 220.653 194.257 219.626C194.257 218.581 194.579 217.727 195.223 217.064C195.867 216.392 196.675 216.056 197.645 216.056C198.467 216.056 199.129 216.266 199.633 216.686C200.147 217.106 200.483 217.61 200.641 218.198L199.451 218.702C199.349 218.31 199.153 217.974 198.863 217.694C198.574 217.414 198.168 217.274 197.645 217.274ZM203.027 218.94H206.709C206.69 218.436 206.522 218.025 206.205 217.708C205.887 217.381 205.439 217.218 204.861 217.218C204.338 217.218 203.909 217.391 203.573 217.736C203.237 218.072 203.055 218.473 203.027 218.94ZM206.905 220.69L208.039 221.082C207.843 221.707 207.479 222.221 206.947 222.622C206.415 223.014 205.771 223.21 205.015 223.21C204.072 223.21 203.269 222.888 202.607 222.244C201.953 221.591 201.627 220.713 201.627 219.612C201.627 218.585 201.944 217.736 202.579 217.064C203.213 216.392 203.969 216.056 204.847 216.056C205.864 216.056 206.657 216.378 207.227 217.022C207.796 217.657 208.081 218.511 208.081 219.584C208.081 219.752 208.071 219.892 208.053 220.004H202.985C202.994 220.601 203.19 221.091 203.573 221.474C203.965 221.857 204.445 222.048 205.015 222.048C205.976 222.048 206.606 221.595 206.905 220.69ZM39.294 243H33.26V233.074H39.294V234.348H34.632V237.4H38.86V238.688H34.632V241.726H39.294V243ZM41.7653 239.612C41.7653 240.321 41.938 240.9 42.2833 241.348C42.638 241.796 43.1233 242.02 43.7393 242.02C44.3273 242.02 44.7987 241.791 45.1533 241.334C45.508 240.877 45.6853 240.293 45.6853 239.584C45.6853 238.884 45.5127 238.319 45.1673 237.89C44.822 237.461 44.3507 237.246 43.7533 237.246C43.156 237.246 42.6753 237.465 42.3113 237.904C41.9473 238.343 41.7653 238.912 41.7653 239.612ZM45.6993 242.09V241.978C45.522 242.323 45.2513 242.613 44.8873 242.846C44.5327 243.07 44.108 243.182 43.6133 243.182C42.652 243.182 41.8773 242.846 41.2893 242.174C40.7107 241.493 40.4213 240.639 40.4213 239.612C40.4213 238.632 40.72 237.801 41.3173 237.12C41.9147 236.429 42.68 236.084 43.6133 236.084C44.164 236.084 44.612 236.196 44.9573 236.42C45.3027 236.635 45.5407 236.901 45.6713 237.218V232.864H46.9733V241.754C46.9733 242.211 46.9967 242.627 47.0433 243H45.7693C45.7227 242.739 45.6993 242.435 45.6993 242.09ZM48.7218 243.364L49.9958 243.07C50.0425 243.546 50.2338 243.938 50.5698 244.246C50.9058 244.563 51.3258 244.722 51.8298 244.722C53.2018 244.722 53.8878 243.994 53.8878 242.538V241.572C53.7198 241.899 53.4538 242.165 53.0898 242.37C52.7351 242.575 52.3151 242.678 51.8298 242.678C50.9338 242.678 50.1918 242.375 49.6038 241.768C49.0251 241.152 48.7358 240.368 48.7358 239.416C48.7358 238.492 49.0251 237.717 49.6038 237.092C50.1825 236.457 50.9245 236.14 51.8298 236.14C52.8565 236.14 53.5471 236.495 53.9018 237.204V236.266H55.2038V242.496C55.2038 242.944 55.1431 243.359 55.0218 243.742C54.9098 244.134 54.7278 244.493 54.4758 244.82C54.2238 245.147 53.8691 245.403 53.4118 245.59C52.9638 245.777 52.4365 245.87 51.8298 245.87C50.9991 245.87 50.2945 245.632 49.7158 245.156C49.1371 244.689 48.8058 244.092 48.7218 243.364ZM52.0258 241.572C52.5951 241.572 53.0571 241.376 53.4118 240.984C53.7665 240.583 53.9438 240.06 53.9438 239.416C53.9438 238.772 53.7665 238.254 53.4118 237.862C53.0571 237.461 52.5951 237.26 52.0258 237.26C51.4471 237.26 50.9758 237.456 50.6118 237.848C50.2571 238.24 50.0798 238.763 50.0798 239.416C50.0798 240.079 50.2525 240.606 50.5978 240.998C50.9525 241.381 51.4285 241.572 52.0258 241.572ZM58.1595 238.94H61.8415C61.8229 238.436 61.6549 238.025 61.3375 237.708C61.0202 237.381 60.5722 237.218 59.9935 237.218C59.4709 237.218 59.0415 237.391 58.7055 237.736C58.3695 238.072 58.1875 238.473 58.1595 238.94ZM62.0375 240.69L63.1715 241.082C62.9755 241.707 62.6115 242.221 62.0795 242.622C61.5475 243.014 60.9035 243.21 60.1475 243.21C59.2049 243.21 58.4022 242.888 57.7395 242.244C57.0862 241.591 56.7595 240.713 56.7595 239.612C56.7595 238.585 57.0769 237.736 57.7115 237.064C58.3462 236.392 59.1022 236.056 59.9795 236.056C60.9969 236.056 61.7902 236.378 62.3595 237.022C62.9289 237.657 63.2135 238.511 63.2135 239.584C63.2135 239.752 63.2042 239.892 63.1855 240.004H58.1175C58.1269 240.601 58.3229 241.091 58.7055 241.474C59.0975 241.857 59.5782 242.048 60.1475 242.048C61.1089 242.048 61.7389 241.595 62.0375 240.69ZM71.8654 241.236L74.8894 233.074H76.3314L72.5094 243H71.1514L67.4134 233.074H68.8694L71.8654 241.236ZM78.215 241.404C78.6257 241.824 79.125 242.034 79.713 242.034C80.301 242.034 80.7957 241.824 81.197 241.404C81.6077 240.975 81.813 240.382 81.813 239.626C81.813 238.879 81.6077 238.296 81.197 237.876C80.7957 237.447 80.301 237.232 79.713 237.232C79.125 237.232 78.6257 237.447 78.215 237.876C77.8137 238.296 77.613 238.879 77.613 239.626C77.613 240.382 77.8137 240.975 78.215 241.404ZM77.235 237.078C77.8883 236.397 78.7143 236.056 79.713 236.056C80.7117 236.056 81.533 236.397 82.177 237.078C82.8303 237.75 83.157 238.599 83.157 239.626C83.157 240.662 82.835 241.521 82.191 242.202C81.547 242.874 80.721 243.21 79.713 243.21C78.705 243.21 77.879 242.874 77.235 242.202C76.591 241.521 76.269 240.662 76.269 239.626C76.269 238.599 76.591 237.75 77.235 237.078ZM89.2103 242.188C89.033 242.524 88.7623 242.781 88.3983 242.958C88.0343 243.126 87.6423 243.21 87.2223 243.21C86.457 243.21 85.8457 242.958 85.3883 242.454C84.931 241.941 84.7023 241.292 84.7023 240.508V236.266H86.0183V240.312C86.0183 240.816 86.1397 241.231 86.3823 241.558C86.6343 241.885 87.0217 242.048 87.5443 242.048C88.067 242.048 88.4637 241.894 88.7343 241.586C89.005 241.269 89.1403 240.849 89.1403 240.326V236.266H90.4563V241.754C90.4563 242.193 90.4797 242.608 90.5263 243H89.2663C89.229 242.795 89.2103 242.524 89.2103 242.188ZM95.4617 237.274C94.8923 237.274 94.407 237.479 94.0057 237.89C93.6137 238.301 93.4177 238.879 93.4177 239.626C93.4177 240.363 93.6137 240.942 94.0057 241.362C94.407 241.782 94.897 241.992 95.4757 241.992C96.0357 241.992 96.4603 241.852 96.7497 241.572C97.0483 241.292 97.249 240.97 97.3517 240.606L98.5137 241.11C98.327 241.67 97.9723 242.16 97.4497 242.58C96.9363 243 96.2783 243.21 95.4757 243.21C94.4957 243.21 93.6837 242.869 93.0397 242.188C92.3957 241.507 92.0737 240.653 92.0737 239.626C92.0737 238.581 92.3957 237.727 93.0397 237.064C93.6837 236.392 94.491 236.056 95.4617 236.056C96.283 236.056 96.9457 236.266 97.4497 236.686C97.963 237.106 98.299 237.61 98.4577 238.198L97.2677 238.702C97.165 238.31 96.969 237.974 96.6797 237.694C96.3903 237.414 95.9843 237.274 95.4617 237.274ZM101.374 239.038V243H100.058V232.864H101.374V237.05C101.822 236.397 102.503 236.07 103.418 236.07C104.192 236.07 104.785 236.317 105.196 236.812C105.616 237.307 105.826 237.946 105.826 238.73V243H104.51V238.954C104.51 237.825 103.987 237.26 102.942 237.26C102.456 237.26 102.078 237.428 101.808 237.764C101.537 238.091 101.392 238.515 101.374 239.038ZM108.773 238.94H112.455C112.436 238.436 112.268 238.025 111.951 237.708C111.633 237.381 111.185 237.218 110.607 237.218C110.084 237.218 109.655 237.391 109.319 237.736C108.983 238.072 108.801 238.473 108.773 238.94ZM112.651 240.69L113.785 241.082C113.589 241.707 113.225 242.221 112.693 242.622C112.161 243.014 111.517 243.21 110.761 243.21C109.818 243.21 109.015 242.888 108.353 242.244C107.699 241.591 107.373 240.713 107.373 239.612C107.373 238.585 107.69 237.736 108.325 237.064C108.959 236.392 109.715 236.056 110.593 236.056C111.61 236.056 112.403 236.378 112.973 237.022C113.542 237.657 113.827 238.511 113.827 239.584C113.827 239.752 113.817 239.892 113.799 240.004H108.731C108.74 240.601 108.936 241.091 109.319 241.474C109.711 241.857 110.191 242.048 110.761 242.048C111.722 242.048 112.352 241.595 112.651 240.69ZM119.245 236.196V237.596C119.049 237.568 118.857 237.554 118.671 237.554C117.439 237.554 116.823 238.245 116.823 239.626V243H115.507V236.266H116.795V237.442C117.205 236.583 117.877 236.154 118.811 236.154C118.96 236.154 119.105 236.168 119.245 236.196ZM120.017 241.25L121.207 240.83C121.254 241.194 121.413 241.497 121.683 241.74C121.954 241.973 122.318 242.09 122.775 242.09C123.13 242.09 123.41 242.006 123.615 241.838C123.821 241.661 123.923 241.446 123.923 241.194C123.923 240.746 123.634 240.457 123.055 240.326L121.907 240.074C121.385 239.962 120.974 239.738 120.675 239.402C120.377 239.066 120.227 238.66 120.227 238.184C120.227 237.605 120.461 237.106 120.927 236.686C121.403 236.266 121.968 236.056 122.621 236.056C123.051 236.056 123.433 236.121 123.769 236.252C124.105 236.373 124.367 236.537 124.553 236.742C124.74 236.947 124.88 237.139 124.973 237.316C125.067 237.493 125.137 237.675 125.183 237.862L124.021 238.296C124.003 238.184 123.97 238.077 123.923 237.974C123.877 237.862 123.802 237.741 123.699 237.61C123.606 237.479 123.466 237.377 123.279 237.302C123.093 237.218 122.873 237.176 122.621 237.176C122.295 237.176 122.024 237.265 121.809 237.442C121.604 237.619 121.501 237.829 121.501 238.072C121.501 238.501 121.758 238.772 122.271 238.884L123.363 239.122C123.961 239.253 124.418 239.495 124.735 239.85C125.062 240.195 125.225 240.62 125.225 241.124C125.225 241.656 125.006 242.137 124.567 242.566C124.138 242.995 123.536 243.21 122.761 243.21C121.931 243.21 121.282 243.005 120.815 242.594C120.349 242.174 120.083 241.726 120.017 241.25Z" fill="#344563"/>
</svg>
