<svg width="266" height="281" viewBox="0 0 266 281" fill="none" xmlns="http://www.w3.org/2000/svg">
<circle cx="64" cy="64" r="32" fill="#FF8B00"/>
<g clip-path="url(#clip0_1_521)">
<path d="M79.7469 49.6147C79.6153 49.5463 79.4637 49.5471 79.3348 49.6062C79.3348 49.6057 79.2957 49.6247 79.2933 49.6262L52.612 65.2386C52.4292 65.3458 52.3408 65.5621 52.3962 65.7667C52.4516 65.9713 52.6374 66.1134 52.8493 66.1134H60.6606L65.016 69.7333C65.0194 69.7362 65.0236 69.7381 65.0273 69.7411C65.0429 69.7533 65.059 69.7647 65.0763 69.775C65.0849 69.7801 65.0937 69.7845 65.1025 69.7889C65.1105 69.7931 65.1176 69.7977 65.1256 69.8014C65.1337 69.8048 65.1418 69.8075 65.1498 69.8106C65.1549 69.8124 65.1598 69.8146 65.165 69.8163C65.1864 69.8236 65.2084 69.8292 65.2306 69.8334C65.2355 69.8343 65.2406 69.8351 65.2455 69.8358C65.269 69.8392 65.2921 69.8417 65.3156 69.8417H65.3158C65.3317 69.8417 65.3473 69.8407 65.3629 69.8392C65.3678 69.8387 65.3727 69.8377 65.3776 69.837C65.3883 69.8358 65.3988 69.8341 65.4093 69.8319C65.4152 69.8307 65.4211 69.8292 65.4269 69.828C65.4362 69.8255 65.4457 69.8231 65.455 69.8202C65.4611 69.8182 65.4672 69.8163 65.4733 69.8141C65.4823 69.8109 65.4909 69.8075 65.4997 69.8038C65.5058 69.8011 65.5116 69.7987 65.5177 69.796C65.5268 69.7916 65.5358 69.7865 65.5448 69.7816C65.5497 69.7789 65.5548 69.7765 65.5597 69.7735C65.5729 69.7655 65.5858 69.7567 65.5983 69.7474C65.6024 69.7442 65.6064 69.7406 65.6105 69.7372C65.6173 69.7315 65.6244 69.7262 65.6313 69.7203L69.6161 66.1132H76.0353C76.255 66.1132 76.4454 65.9608 76.4933 65.7465L79.9886 50.1337C80.035 49.926 79.9359 49.7131 79.7469 49.6147V49.6147ZM60.6601 65.1744H54.581L74.9037 53.2824L60.6601 65.1744ZM65.7853 68.3141V66.1134H68.2169L65.7853 68.3141ZM75.659 65.1744H66.3781L68.7589 62.5595C68.9335 62.3678 68.9196 62.0709 68.7279 61.8964C68.5363 61.7218 68.2394 61.7355 68.0648 61.9274L64.9689 65.3278C64.9672 65.3295 64.966 65.3317 64.9643 65.3334C64.9372 65.3641 64.9142 65.3983 64.8959 65.4352C64.894 65.4391 64.892 65.4427 64.8903 65.4467C64.8734 65.483 64.8612 65.5218 64.8539 65.5624C64.8532 65.567 64.8525 65.5719 64.8517 65.5768C64.8495 65.5929 64.8481 65.6093 64.8473 65.6259C64.8471 65.63 64.8468 65.6344 64.8468 65.6385C64.8468 65.6405 64.8466 65.6422 64.8466 65.6439V68.3717L61.5636 65.6429L74.5629 54.7902L69.329 60.539C69.1544 60.7306 69.1683 61.0275 69.36 61.202C69.5516 61.3766 69.8488 61.3627 70.0231 61.171L78.6854 51.6567L75.659 65.1744Z" fill="#FAFBFC"/>
<path d="M51.491 57.7574H53.4524C53.7114 57.7574 53.9216 57.5472 53.9216 57.288C53.9216 57.0287 53.7114 56.8185 53.4524 56.8185H51.491C51.1057 56.8185 50.7922 56.505 50.7922 56.1195C50.7922 55.7343 51.1057 55.4205 51.491 55.4205H52.1775C52.3401 55.4205 52.491 55.3365 52.5767 55.1984C52.6621 55.0602 52.6702 54.8878 52.5979 54.7423C52.4851 54.5153 52.4277 54.2711 52.4277 54.0165C52.4277 53.1156 53.1606 52.3827 54.0615 52.3827C54.9624 52.3827 55.6951 53.1156 55.6951 54.0165C55.6951 54.2711 55.6379 54.5153 55.5251 54.7423C55.4526 54.8878 55.4607 55.0602 55.5464 55.1984C55.6321 55.3365 55.783 55.4205 55.9453 55.4205H56.7097C56.969 55.4205 57.1792 55.2106 57.1792 54.9513C57.1792 54.351 57.6675 53.8627 58.2676 53.8627C58.8643 53.8627 59.3503 54.3453 59.356 54.9408C59.3557 54.9474 59.3555 54.9537 59.3555 54.9589C59.3535 55.1957 59.5283 55.3969 59.7629 55.4281C60.1084 55.474 60.3687 55.7714 60.3687 56.1195C60.3687 56.505 60.0552 56.8185 59.6697 56.8185H55.3301C55.0708 56.8185 54.8606 57.0287 54.8606 57.288C54.8606 57.5472 55.0708 57.7574 55.3301 57.7574H59.6697C60.5728 57.7574 61.3076 57.0228 61.3076 56.1195C61.3076 55.4352 60.8789 54.8346 60.2634 54.5944C60.0945 53.6461 59.2639 52.924 58.2678 52.924C57.5911 52.924 56.9907 53.2572 56.6221 53.7682C56.4968 52.4657 55.3962 51.444 54.0615 51.444C52.6428 51.444 51.489 52.598 51.489 54.0165C51.489 54.1742 51.5029 54.3297 51.5308 54.4818H51.491C50.5879 54.4818 49.853 55.2164 49.853 56.1195C49.853 57.0228 50.5879 57.7574 51.491 57.7574Z" fill="#FAFBFC"/>
<path d="M77.3275 75.8544C77.1664 75.1237 76.5136 74.5753 75.735 74.5753C75.2868 74.5753 74.88 74.7572 74.5851 75.0511C74.3766 74.1476 73.5658 73.4723 72.6 73.4723C71.477 73.4723 70.5631 74.3861 70.5631 75.5092C70.5631 75.5873 70.5675 75.6644 70.5761 75.7408C69.8874 75.796 69.3439 76.3741 69.3439 77.0768C69.3439 77.8158 69.9452 78.4171 70.6842 78.4171H76.7802C77.5192 78.4171 78.1205 77.8158 78.1205 77.0768C78.1205 76.5397 77.798 76.0658 77.3275 75.8544V75.8544ZM76.7802 77.4781H70.6842C70.4628 77.4781 70.2829 77.298 70.2829 77.0768C70.2829 76.8553 70.4628 76.6754 70.6842 76.6754H71.196C71.3583 76.6754 71.5094 76.5912 71.5949 76.4532C71.6806 76.3151 71.6886 76.1425 71.6161 75.9969C71.5404 75.8444 71.5019 75.6803 71.5019 75.5092C71.5019 74.9037 71.9945 74.4113 72.6 74.4113C73.2055 74.4113 73.6982 74.9037 73.6982 75.5092C73.6982 75.6803 73.6596 75.8444 73.5839 75.9969C73.5114 76.1425 73.5194 76.3151 73.6051 76.4532C73.6908 76.5912 73.8417 76.6754 74.0041 76.6754H74.5739C74.8332 76.6754 75.0434 76.4652 75.0434 76.2059C75.0434 75.8246 75.3537 75.5143 75.735 75.5143C76.1132 75.5143 76.4215 75.8195 76.4267 76.1967C76.4264 76.203 76.4262 76.2091 76.4262 76.2145C76.4262 76.4498 76.6005 76.6488 76.8336 76.6798C77.0319 76.7062 77.1815 76.8768 77.1815 77.0768C77.1815 77.298 77.0014 77.4781 76.7802 77.4781Z" fill="#FAFBFC"/>
<path d="M55.9836 71.4727C55.8225 70.742 55.1697 70.1939 54.3914 70.1939C53.9429 70.1939 53.5361 70.3755 53.2412 70.6695C53.0327 69.7661 52.2219 69.0906 51.2561 69.0906C50.1331 69.0906 49.2192 70.0047 49.2192 71.1277C49.2192 71.2056 49.2236 71.283 49.2322 71.3592C48.5435 71.4146 48 71.9927 48 72.6951C48 73.4344 48.6013 74.0354 49.3403 74.0354H55.4363C56.1753 74.0354 56.7766 73.4344 56.7766 72.6951C56.7766 72.1582 56.4541 71.6841 55.9836 71.4727ZM55.4363 73.0967H49.3403C49.1189 73.0967 48.939 72.9165 48.939 72.6951C48.939 72.4739 49.1189 72.2937 49.3403 72.2937H49.8521C50.0144 72.2937 50.1655 72.2097 50.251 72.0716C50.3367 71.9334 50.3447 71.761 50.2722 71.6153C50.1965 71.4629 50.158 71.2989 50.158 71.1277C50.158 70.5222 50.6506 70.0296 51.2561 70.0296C51.8616 70.0296 52.3542 70.5222 52.3542 71.1277C52.3542 71.2989 52.3157 71.4629 52.24 71.6153C52.1675 71.761 52.1755 71.9334 52.2612 72.0716C52.3469 72.2097 52.4978 72.2937 52.6602 72.2937H53.23C53.4893 72.2937 53.6995 72.0838 53.6995 71.8242C53.6995 71.4429 54.0098 71.1326 54.3911 71.1326C54.7695 71.1326 55.0776 71.438 55.0828 71.815C55.0825 71.8213 55.0823 71.8277 55.0823 71.8328C55.0823 72.0681 55.2566 72.2671 55.4897 72.2984C55.688 72.3245 55.8376 72.4951 55.8376 72.6951C55.8376 72.9165 55.6577 73.0967 55.4363 73.0967V73.0967Z" fill="#FAFBFC"/>
</g>
<path d="M46.472 139.128H41.096V153H37.76V139.128H32.384V135.984H46.472V139.128ZM54.029 141.144V144.36C53.709 144.296 53.389 144.264 53.069 144.264C52.157 144.264 51.421 144.528 50.861 145.056C50.301 145.568 50.021 146.416 50.021 147.6V153H46.829V141.192H49.925V142.944C50.501 141.712 51.621 141.096 53.285 141.096C53.461 141.096 53.709 141.112 54.029 141.144ZM55.6246 149.784C55.6246 148.776 55.9526 147.968 56.6086 147.36C57.2646 146.752 58.1126 146.368 59.1526 146.208L62.0566 145.776C62.6486 145.696 62.9446 145.416 62.9446 144.936C62.9446 144.488 62.7686 144.12 62.4166 143.832C62.0806 143.544 61.5926 143.4 60.9526 143.4C60.2806 143.4 59.7446 143.584 59.3446 143.952C58.9606 144.32 58.7446 144.776 58.6966 145.32L55.8646 144.72C55.9766 143.696 56.4806 142.792 57.3766 142.008C58.2726 141.224 59.4566 140.832 60.9286 140.832C62.6886 140.832 63.9846 141.256 64.8166 142.104C65.6486 142.936 66.0646 144.008 66.0646 145.32V151.128C66.0646 151.832 66.1126 152.456 66.2086 153H63.2806C63.2006 152.648 63.1606 152.176 63.1606 151.584C62.4086 152.752 61.2486 153.336 59.6806 153.336C58.4646 153.336 57.4806 152.984 56.7286 152.28C55.9926 151.576 55.6246 150.744 55.6246 149.784ZM60.3526 150.96C61.1046 150.96 61.7206 150.752 62.2006 150.336C62.6966 149.904 62.9446 149.2 62.9446 148.224V147.696L60.2806 148.104C59.3046 148.248 58.8166 148.744 58.8166 149.592C58.8166 149.976 58.9526 150.304 59.2246 150.576C59.4966 150.832 59.8726 150.96 60.3526 150.96ZM80.2072 141.192L75.6232 153H72.4312L67.6072 141.192H71.1112L74.0392 149.112L76.8472 141.192H80.2072ZM84.1258 145.752H89.4058C89.3738 145.096 89.1338 144.544 88.6858 144.096C88.2538 143.648 87.6138 143.424 86.7658 143.424C85.9978 143.424 85.3738 143.664 84.8938 144.144C84.4138 144.624 84.1578 145.16 84.1258 145.752ZM89.7178 148.824L92.3818 149.616C92.0618 150.704 91.4298 151.6 90.4858 152.304C89.5578 153.008 88.3978 153.36 87.0058 153.36C85.3098 153.36 83.8698 152.792 82.6858 151.656C81.5018 150.504 80.9098 148.968 80.9098 147.048C80.9098 145.224 81.4858 143.736 82.6378 142.584C83.7898 141.416 85.1498 140.832 86.7178 140.832C88.5418 140.832 89.9658 141.376 90.9898 142.464C92.0298 143.552 92.5498 145.048 92.5498 146.952C92.5498 147.08 92.5418 147.224 92.5258 147.384C92.5258 147.544 92.5258 147.672 92.5258 147.768L92.5018 147.936H84.0538C84.0858 148.704 84.3898 149.344 84.9658 149.856C85.5418 150.368 86.2298 150.624 87.0298 150.624C88.3898 150.624 89.2858 150.024 89.7178 148.824ZM98.2554 153H95.0634V135.624H98.2554V153ZM118.018 153L116.266 151.152C114.858 152.592 113.338 153.312 111.706 153.312C110.122 153.312 108.866 152.856 107.938 151.944C107.01 151.032 106.546 149.968 106.546 148.752C106.546 147.76 106.778 146.92 107.242 146.232C107.722 145.544 108.458 144.832 109.45 144.096L109.57 144.024L109.306 143.736C108.058 142.408 107.434 141.176 107.434 140.04C107.434 138.68 107.906 137.6 108.85 136.8C109.794 136 110.89 135.6 112.138 135.6C113.498 135.6 114.626 136 115.522 136.8C116.418 137.6 116.866 138.632 116.866 139.896C116.866 141.288 116.066 142.584 114.466 143.784L113.818 144.264L116.386 146.976L120.682 142.488V146.472L118.306 148.968L122.146 153H118.018ZM111.754 150.528C112.586 150.528 113.45 150.056 114.346 149.112L111.442 146.04L111.082 146.304C110.17 146.976 109.714 147.728 109.714 148.56C109.714 149.072 109.906 149.528 110.29 149.928C110.674 150.328 111.162 150.528 111.754 150.528ZM110.458 139.944C110.458 140.504 110.794 141.12 111.466 141.792L111.922 142.296L112.762 141.672C113.482 141.144 113.842 140.544 113.842 139.872C113.842 139.408 113.674 139.024 113.338 138.72C113.018 138.4 112.61 138.24 112.114 138.24C111.682 138.24 111.298 138.392 110.962 138.696C110.626 138.984 110.458 139.4 110.458 139.944ZM139.949 153H129.053V135.984H132.365V149.832H139.949V153ZM145.435 149.568C146.027 150.16 146.739 150.456 147.571 150.456C148.403 150.456 149.107 150.16 149.683 149.568C150.275 148.976 150.571 148.152 150.571 147.096C150.571 146.04 150.275 145.216 149.683 144.624C149.107 144.032 148.403 143.736 147.571 143.736C146.739 143.736 146.027 144.032 145.435 144.624C144.859 145.216 144.571 146.04 144.571 147.096C144.571 148.152 144.859 148.976 145.435 149.568ZM143.131 142.608C144.315 141.424 145.795 140.832 147.571 140.832C149.347 140.832 150.819 141.424 151.987 142.608C153.171 143.792 153.763 145.288 153.763 147.096C153.763 148.904 153.171 150.4 151.987 151.584C150.819 152.768 149.347 153.36 147.571 153.36C145.795 153.36 144.315 152.768 143.131 151.584C141.963 150.4 141.379 148.904 141.379 147.096C141.379 145.288 141.963 143.792 143.131 142.608ZM155.442 153.648L158.322 152.88C158.434 153.536 158.738 154.072 159.234 154.488C159.73 154.904 160.346 155.112 161.082 155.112C163.178 155.112 164.226 154.016 164.226 151.824V150.96C163.954 151.392 163.538 151.752 162.978 152.04C162.418 152.328 161.738 152.472 160.938 152.472C159.37 152.472 158.058 151.928 157.002 150.84C155.962 149.752 155.442 148.384 155.442 146.736C155.442 145.136 155.962 143.776 157.002 142.656C158.042 141.536 159.354 140.976 160.938 140.976C161.802 140.976 162.522 141.136 163.098 141.456C163.674 141.76 164.074 142.136 164.298 142.584V141.192H167.37V151.728C167.37 153.504 166.858 154.976 165.834 156.144C164.81 157.328 163.258 157.92 161.178 157.92C159.626 157.92 158.322 157.504 157.266 156.672C156.226 155.84 155.618 154.832 155.442 153.648ZM161.49 149.736C162.306 149.736 162.97 149.464 163.482 148.92C164.01 148.376 164.274 147.648 164.274 146.736C164.274 145.84 164.002 145.12 163.458 144.576C162.93 144.032 162.274 143.76 161.49 143.76C160.674 143.76 159.994 144.032 159.45 144.576C158.922 145.12 158.658 145.84 158.658 146.736C158.658 147.648 158.922 148.376 159.45 148.92C159.978 149.464 160.658 149.736 161.49 149.736ZM173.794 153H170.602V141.192H173.794V153ZM170.218 137.328C170.218 136.784 170.41 136.32 170.794 135.936C171.178 135.536 171.642 135.336 172.186 135.336C172.73 135.336 173.194 135.528 173.578 135.912C173.962 136.296 174.154 136.768 174.154 137.328C174.154 137.856 173.962 138.312 173.578 138.696C173.194 139.08 172.73 139.272 172.186 139.272C171.642 139.272 171.178 139.08 170.794 138.696C170.41 138.312 170.218 137.856 170.218 137.328ZM176.204 149.712L178.94 149.112C178.972 149.624 179.172 150.056 179.54 150.408C179.924 150.744 180.444 150.912 181.1 150.912C181.596 150.912 181.98 150.8 182.252 150.576C182.524 150.352 182.66 150.072 182.66 149.736C182.66 149.144 182.236 148.76 181.388 148.584L179.828 148.224C178.724 147.984 177.892 147.552 177.332 146.928C176.788 146.304 176.516 145.56 176.516 144.696C176.516 143.624 176.932 142.712 177.764 141.96C178.612 141.208 179.668 140.832 180.932 140.832C181.732 140.832 182.436 140.952 183.044 141.192C183.652 141.416 184.124 141.712 184.46 142.08C184.796 142.432 185.052 142.792 185.228 143.16C185.404 143.528 185.516 143.888 185.564 144.24L182.9 144.84C182.836 144.424 182.644 144.056 182.324 143.736C182.02 143.416 181.564 143.256 180.956 143.256C180.54 143.256 180.18 143.368 179.876 143.592C179.588 143.816 179.444 144.096 179.444 144.432C179.444 145.008 179.804 145.36 180.524 145.488L182.204 145.848C183.34 146.088 184.204 146.528 184.796 147.168C185.404 147.808 185.708 148.576 185.708 149.472C185.708 150.528 185.308 151.44 184.508 152.208C183.708 152.976 182.58 153.36 181.124 153.36C180.292 153.36 179.548 153.24 178.892 153C178.236 152.744 177.724 152.424 177.356 152.04C177.004 151.64 176.732 151.248 176.54 150.864C176.364 150.464 176.252 150.08 176.204 149.712ZM192.21 137.664V141.192H194.586V144.024H192.21V148.968C192.21 149.464 192.322 149.816 192.546 150.024C192.77 150.232 193.122 150.336 193.602 150.336C194.034 150.336 194.362 150.304 194.586 150.24V152.88C194.122 153.072 193.522 153.168 192.786 153.168C191.634 153.168 190.722 152.848 190.05 152.208C189.378 151.552 189.042 150.656 189.042 149.52V144.024H186.906V141.192H187.506C188.098 141.192 188.546 141.024 188.85 140.688C189.17 140.336 189.33 139.88 189.33 139.32V137.664H192.21ZM200.49 153H197.298V141.192H200.49V153ZM196.914 137.328C196.914 136.784 197.106 136.32 197.49 135.936C197.874 135.536 198.338 135.336 198.882 135.336C199.426 135.336 199.89 135.528 200.274 135.912C200.658 136.296 200.85 136.768 200.85 137.328C200.85 137.856 200.658 138.312 200.274 138.696C199.89 139.08 199.426 139.272 198.882 139.272C198.338 139.272 197.874 139.08 197.49 138.696C197.106 138.312 196.914 137.856 196.914 137.328ZM209.211 143.784C208.363 143.784 207.651 144.08 207.075 144.672C206.499 145.264 206.211 146.072 206.211 147.096C206.211 148.12 206.499 148.936 207.075 149.544C207.667 150.136 208.387 150.432 209.235 150.432C209.987 150.432 210.587 150.24 211.035 149.856C211.483 149.456 211.787 148.984 211.947 148.44L214.755 149.376C214.467 150.464 213.843 151.4 212.883 152.184C211.923 152.968 210.707 153.36 209.235 153.36C207.475 153.36 205.995 152.768 204.795 151.584C203.611 150.384 203.019 148.888 203.019 147.096C203.019 145.288 203.603 143.792 204.771 142.608C205.955 141.424 207.411 140.832 209.139 140.832C210.643 140.832 211.875 141.224 212.835 142.008C213.795 142.776 214.411 143.712 214.683 144.816L211.827 145.776C211.443 144.448 210.571 143.784 209.211 143.784ZM216.094 149.712L218.83 149.112C218.862 149.624 219.062 150.056 219.43 150.408C219.814 150.744 220.334 150.912 220.99 150.912C221.486 150.912 221.87 150.8 222.142 150.576C222.414 150.352 222.55 150.072 222.55 149.736C222.55 149.144 222.126 148.76 221.278 148.584L219.718 148.224C218.614 147.984 217.782 147.552 217.222 146.928C216.678 146.304 216.406 145.56 216.406 144.696C216.406 143.624 216.822 142.712 217.654 141.96C218.502 141.208 219.558 140.832 220.822 140.832C221.622 140.832 222.326 140.952 222.934 141.192C223.542 141.416 224.014 141.712 224.35 142.08C224.686 142.432 224.942 142.792 225.118 143.16C225.294 143.528 225.406 143.888 225.454 144.24L222.79 144.84C222.726 144.424 222.534 144.056 222.214 143.736C221.91 143.416 221.454 143.256 220.846 143.256C220.43 143.256 220.07 143.368 219.766 143.592C219.478 143.816 219.334 144.096 219.334 144.432C219.334 145.008 219.694 145.36 220.414 145.488L222.094 145.848C223.23 146.088 224.094 146.528 224.686 147.168C225.294 147.808 225.598 148.576 225.598 149.472C225.598 150.528 225.198 151.44 224.398 152.208C223.598 152.976 222.47 153.36 221.014 153.36C220.182 153.36 219.438 153.24 218.782 153C218.126 152.744 217.614 152.424 217.246 152.04C216.894 151.64 216.622 151.248 216.43 150.864C216.254 150.464 216.142 150.08 216.094 149.712Z" fill="#091E42"/>
<path d="M43.984 183H42.626V175.272L39.238 183H37.978L34.618 175.272V183H33.26V173.074H35.122L38.622 181.152L42.15 173.074H43.984V183ZM45.8797 181.194C45.8797 180.615 46.0664 180.153 46.4397 179.808C46.813 179.453 47.3077 179.234 47.9237 179.15L49.7437 178.884C50.089 178.837 50.2617 178.669 50.2617 178.38C50.2617 178.025 50.1404 177.736 49.8977 177.512C49.655 177.288 49.291 177.176 48.8057 177.176C48.3577 177.176 48.003 177.302 47.7417 177.554C47.4804 177.797 47.3264 178.123 47.2797 178.534L46.0197 178.24C46.085 177.596 46.379 177.073 46.9017 176.672C47.4244 176.261 48.0497 176.056 48.7777 176.056C49.7297 176.056 50.4344 176.289 50.8917 176.756C51.349 177.213 51.5777 177.801 51.5777 178.52V181.894C51.5777 182.295 51.6057 182.664 51.6617 183H50.3737C50.327 182.72 50.3037 182.417 50.3037 182.09C50.117 182.389 49.8417 182.65 49.4777 182.874C49.123 183.098 48.675 183.21 48.1337 183.21C47.471 183.21 46.9297 183.014 46.5097 182.622C46.0897 182.221 45.8797 181.745 45.8797 181.194ZM48.3157 182.104C48.9037 182.104 49.375 181.945 49.7297 181.628C50.0844 181.311 50.2617 180.807 50.2617 180.116V179.808L48.2037 180.116C47.905 180.163 47.667 180.27 47.4897 180.438C47.3124 180.606 47.2237 180.835 47.2237 181.124C47.2237 181.385 47.3217 181.614 47.5177 181.81C47.723 182.006 47.989 182.104 48.3157 182.104ZM59.6618 176.266L56.7918 179.108L59.7178 183H58.0658L55.8678 180.032L54.9298 180.97V183H53.6278V172.864H54.9298V179.248L57.8418 176.266H59.6618ZM61.4818 178.94H65.1638C65.1451 178.436 64.9771 178.025 64.6598 177.708C64.3425 177.381 63.8945 177.218 63.3158 177.218C62.7931 177.218 62.3638 177.391 62.0278 177.736C61.6918 178.072 61.5098 178.473 61.4818 178.94ZM65.3598 180.69L66.4938 181.082C66.2978 181.707 65.9338 182.221 65.4018 182.622C64.8698 183.014 64.2258 183.21 63.4698 183.21C62.5271 183.21 61.7245 182.888 61.0618 182.244C60.4085 181.591 60.0818 180.713 60.0818 179.612C60.0818 178.585 60.3991 177.736 61.0338 177.064C61.6685 176.392 62.4245 176.056 63.3018 176.056C64.3191 176.056 65.1125 176.378 65.6818 177.022C66.2511 177.657 66.5358 178.511 66.5358 179.584C66.5358 179.752 66.5265 179.892 66.5078 180.004H61.4398C61.4491 180.601 61.6451 181.091 62.0278 181.474C62.4198 181.857 62.9005 182.048 63.4698 182.048C64.4311 182.048 65.0611 181.595 65.3598 180.69ZM73.4797 174.138V176.266H74.9357V177.456H73.4797V180.956C73.4797 181.273 73.5497 181.507 73.6897 181.656C73.839 181.805 74.0817 181.88 74.4177 181.88C74.6137 181.88 74.7864 181.861 74.9357 181.824V182.944C74.7117 183.028 74.413 183.07 74.0397 183.07C73.461 183.07 73.0037 182.902 72.6677 182.566C72.3317 182.23 72.1637 181.759 72.1637 181.152V177.456H70.8757V176.266H71.2397C71.585 176.266 71.8417 176.173 72.0097 175.986C72.187 175.79 72.2757 175.538 72.2757 175.23V174.138H73.4797ZM80.2935 176.196V177.596C80.0975 177.568 79.9062 177.554 79.7195 177.554C78.4875 177.554 77.8715 178.245 77.8715 179.626V183H76.5555V176.266H77.8435V177.442C78.2542 176.583 78.9262 176.154 79.8595 176.154C80.0089 176.154 80.1535 176.168 80.2935 176.196ZM81.2762 181.194C81.2762 180.615 81.4628 180.153 81.8362 179.808C82.2095 179.453 82.7042 179.234 83.3202 179.15L85.1402 178.884C85.4855 178.837 85.6582 178.669 85.6582 178.38C85.6582 178.025 85.5368 177.736 85.2942 177.512C85.0515 177.288 84.6875 177.176 84.2022 177.176C83.7542 177.176 83.3995 177.302 83.1382 177.554C82.8768 177.797 82.7228 178.123 82.6762 178.534L81.4162 178.24C81.4815 177.596 81.7755 177.073 82.2982 176.672C82.8208 176.261 83.4462 176.056 84.1742 176.056C85.1262 176.056 85.8308 176.289 86.2882 176.756C86.7455 177.213 86.9742 177.801 86.9742 178.52V181.894C86.9742 182.295 87.0022 182.664 87.0582 183H85.7702C85.7235 182.72 85.7002 182.417 85.7002 182.09C85.5135 182.389 85.2382 182.65 84.8742 182.874C84.5195 183.098 84.0715 183.21 83.5302 183.21C82.8675 183.21 82.3262 183.014 81.9062 182.622C81.4862 182.221 81.2762 181.745 81.2762 181.194ZM83.7122 182.104C84.3002 182.104 84.7715 181.945 85.1262 181.628C85.4808 181.311 85.6582 180.807 85.6582 180.116V179.808L83.6002 180.116C83.3015 180.163 83.0635 180.27 82.8862 180.438C82.7088 180.606 82.6202 180.835 82.6202 181.124C82.6202 181.385 82.7182 181.614 82.9142 181.81C83.1195 182.006 83.3855 182.104 83.7122 182.104ZM94.7923 176.266L92.1043 183H90.7743L88.0443 176.266H89.5283L91.4463 181.46L93.3783 176.266H94.7923ZM96.7006 178.94H100.383C100.364 178.436 100.196 178.025 99.8786 177.708C99.5612 177.381 99.1132 177.218 98.5346 177.218C98.0119 177.218 97.5826 177.391 97.2466 177.736C96.9106 178.072 96.7286 178.473 96.7006 178.94ZM100.579 180.69L101.713 181.082C101.517 181.707 101.153 182.221 100.621 182.622C100.089 183.014 99.4446 183.21 98.6886 183.21C97.7459 183.21 96.9432 182.888 96.2806 182.244C95.6272 181.591 95.3006 180.713 95.3006 179.612C95.3006 178.585 95.6179 177.736 96.2526 177.064C96.8872 176.392 97.6432 176.056 98.5206 176.056C99.5379 176.056 100.331 176.378 100.901 177.022C101.47 177.657 101.755 178.511 101.755 179.584C101.755 179.752 101.745 179.892 101.727 180.004H96.6586C96.6679 180.601 96.8639 181.091 97.2466 181.474C97.6386 181.857 98.1192 182.048 98.6886 182.048C99.6499 182.048 100.28 181.595 100.579 180.69ZM104.75 183H103.434V172.864H104.75V183ZM114.227 176.196V177.596C114.031 177.568 113.84 177.554 113.653 177.554C112.421 177.554 111.805 178.245 111.805 179.626V183H110.489V176.266H111.777V177.442C112.188 176.583 112.86 176.154 113.793 176.154C113.942 176.154 114.087 176.168 114.227 176.196ZM116.415 178.94H120.097C120.079 178.436 119.911 178.025 119.593 177.708C119.276 177.381 118.828 177.218 118.249 177.218C117.727 177.218 117.297 177.391 116.961 177.736C116.625 178.072 116.443 178.473 116.415 178.94ZM120.293 180.69L121.427 181.082C121.231 181.707 120.867 182.221 120.335 182.622C119.803 183.014 119.159 183.21 118.403 183.21C117.461 183.21 116.658 182.888 115.995 182.244C115.342 181.591 115.015 180.713 115.015 179.612C115.015 178.585 115.333 177.736 115.967 177.064C116.602 176.392 117.358 176.056 118.235 176.056C119.253 176.056 120.046 176.378 120.615 177.022C121.185 177.657 121.469 178.511 121.469 179.584C121.469 179.752 121.46 179.892 121.441 180.004H116.373C116.383 180.601 116.579 181.091 116.961 181.474C117.353 181.857 117.834 182.048 118.403 182.048C119.365 182.048 119.995 181.595 120.293 180.69ZM129.183 185.66H127.881V182.048C127.704 182.393 127.429 182.669 127.055 182.874C126.691 183.079 126.267 183.182 125.781 183.182C124.839 183.182 124.069 182.841 123.471 182.16C122.883 181.469 122.589 180.62 122.589 179.612C122.589 178.623 122.874 177.792 123.443 177.12C124.022 176.439 124.792 176.098 125.753 176.098C126.295 176.098 126.747 176.215 127.111 176.448C127.485 176.681 127.751 176.966 127.909 177.302V176.266H129.183V185.66ZM124.465 177.918C124.111 178.347 123.933 178.912 123.933 179.612C123.933 180.312 124.111 180.891 124.465 181.348C124.829 181.796 125.31 182.02 125.907 182.02C126.495 182.02 126.971 181.796 127.335 181.348C127.709 180.891 127.895 180.312 127.895 179.612C127.895 178.912 127.713 178.347 127.349 177.918C126.985 177.479 126.505 177.26 125.907 177.26C125.301 177.26 124.82 177.479 124.465 177.918ZM135.722 182.188C135.545 182.524 135.274 182.781 134.91 182.958C134.546 183.126 134.154 183.21 133.734 183.21C132.969 183.21 132.357 182.958 131.9 182.454C131.443 181.941 131.214 181.292 131.214 180.508V176.266H132.53V180.312C132.53 180.816 132.651 181.231 132.894 181.558C133.146 181.885 133.533 182.048 134.056 182.048C134.579 182.048 134.975 181.894 135.246 181.586C135.517 181.269 135.652 180.849 135.652 180.326V176.266H136.968V181.754C136.968 182.193 136.991 182.608 137.038 183H135.778C135.741 182.795 135.722 182.524 135.722 182.188ZM139.999 178.94H143.681C143.663 178.436 143.495 178.025 143.177 177.708C142.86 177.381 142.412 177.218 141.833 177.218C141.311 177.218 140.881 177.391 140.545 177.736C140.209 178.072 140.027 178.473 139.999 178.94ZM143.877 180.69L145.011 181.082C144.815 181.707 144.451 182.221 143.919 182.622C143.387 183.014 142.743 183.21 141.987 183.21C141.045 183.21 140.242 182.888 139.579 182.244C138.926 181.591 138.599 180.713 138.599 179.612C138.599 178.585 138.917 177.736 139.551 177.064C140.186 176.392 140.942 176.056 141.819 176.056C142.837 176.056 143.63 176.378 144.199 177.022C144.769 177.657 145.053 178.511 145.053 179.584C145.053 179.752 145.044 179.892 145.025 180.004H139.957C139.967 180.601 140.163 181.091 140.545 181.474C140.937 181.857 141.418 182.048 141.987 182.048C142.949 182.048 143.579 181.595 143.877 180.69ZM146.103 181.25L147.293 180.83C147.34 181.194 147.499 181.497 147.769 181.74C148.04 181.973 148.404 182.09 148.861 182.09C149.216 182.09 149.496 182.006 149.701 181.838C149.907 181.661 150.009 181.446 150.009 181.194C150.009 180.746 149.72 180.457 149.141 180.326L147.993 180.074C147.471 179.962 147.06 179.738 146.761 179.402C146.463 179.066 146.313 178.66 146.313 178.184C146.313 177.605 146.547 177.106 147.013 176.686C147.489 176.266 148.054 176.056 148.707 176.056C149.137 176.056 149.519 176.121 149.855 176.252C150.191 176.373 150.453 176.537 150.639 176.742C150.826 176.947 150.966 177.139 151.059 177.316C151.153 177.493 151.223 177.675 151.269 177.862L150.107 178.296C150.089 178.184 150.056 178.077 150.009 177.974C149.963 177.862 149.888 177.741 149.785 177.61C149.692 177.479 149.552 177.377 149.365 177.302C149.179 177.218 148.959 177.176 148.707 177.176C148.381 177.176 148.11 177.265 147.895 177.442C147.69 177.619 147.587 177.829 147.587 178.072C147.587 178.501 147.844 178.772 148.357 178.884L149.449 179.122C150.047 179.253 150.504 179.495 150.821 179.85C151.148 180.195 151.311 180.62 151.311 181.124C151.311 181.656 151.092 182.137 150.653 182.566C150.224 182.995 149.622 183.21 148.847 183.21C148.017 183.21 147.368 183.005 146.901 182.594C146.435 182.174 146.169 181.726 146.103 181.25ZM154.827 174.138V176.266H156.283V177.456H154.827V180.956C154.827 181.273 154.897 181.507 155.037 181.656C155.187 181.805 155.429 181.88 155.765 181.88C155.961 181.88 156.134 181.861 156.283 181.824V182.944C156.059 183.028 155.761 183.07 155.387 183.07C154.809 183.07 154.351 182.902 154.015 182.566C153.679 182.23 153.511 181.759 153.511 181.152V177.456H152.223V176.266H152.587C152.933 176.266 153.189 176.173 153.357 175.986C153.535 175.79 153.623 175.538 153.623 175.23V174.138H154.827ZM157.478 181.25L158.668 180.83C158.715 181.194 158.874 181.497 159.144 181.74C159.415 181.973 159.779 182.09 160.236 182.09C160.591 182.09 160.871 182.006 161.076 181.838C161.282 181.661 161.384 181.446 161.384 181.194C161.384 180.746 161.095 180.457 160.516 180.326L159.368 180.074C158.846 179.962 158.435 179.738 158.136 179.402C157.838 179.066 157.688 178.66 157.688 178.184C157.688 177.605 157.922 177.106 158.388 176.686C158.864 176.266 159.429 176.056 160.082 176.056C160.512 176.056 160.894 176.121 161.23 176.252C161.566 176.373 161.828 176.537 162.014 176.742C162.201 176.947 162.341 177.139 162.434 177.316C162.528 177.493 162.598 177.675 162.644 177.862L161.482 178.296C161.464 178.184 161.431 178.077 161.384 177.974C161.338 177.862 161.263 177.741 161.16 177.61C161.067 177.479 160.927 177.377 160.74 177.302C160.554 177.218 160.334 177.176 160.082 177.176C159.756 177.176 159.485 177.265 159.27 177.442C159.065 177.619 158.962 177.829 158.962 178.072C158.962 178.501 159.219 178.772 159.732 178.884L160.824 179.122C161.422 179.253 161.879 179.495 162.196 179.85C162.523 180.195 162.686 180.62 162.686 181.124C162.686 181.656 162.467 182.137 162.028 182.566C161.599 182.995 160.997 183.21 160.222 183.21C159.392 183.21 158.743 183.005 158.276 182.594C157.81 182.174 157.544 181.726 157.478 181.25ZM164.298 182.104C164.298 181.852 164.396 181.633 164.592 181.446C164.788 181.259 165.031 181.166 165.32 181.166C165.638 181.166 165.904 181.283 166.118 181.516C166.342 181.749 166.454 182.076 166.454 182.496C166.454 183.336 166.24 183.985 165.81 184.442C165.381 184.899 164.905 185.161 164.382 185.226V184.498C164.718 184.423 164.994 184.237 165.208 183.938C165.423 183.649 165.535 183.331 165.544 182.986C165.479 183.033 165.376 183.056 165.236 183.056C164.966 183.056 164.742 182.972 164.564 182.804C164.387 182.627 164.298 182.393 164.298 182.104ZM171.564 183.364L172.838 183.07C172.884 183.546 173.076 183.938 173.412 184.246C173.748 184.563 174.168 184.722 174.672 184.722C176.044 184.722 176.73 183.994 176.73 182.538V181.572C176.562 181.899 176.296 182.165 175.932 182.37C175.577 182.575 175.157 182.678 174.672 182.678C173.776 182.678 173.034 182.375 172.446 181.768C171.867 181.152 171.578 180.368 171.578 179.416C171.578 178.492 171.867 177.717 172.446 177.092C173.024 176.457 173.766 176.14 174.672 176.14C175.698 176.14 176.389 176.495 176.744 177.204V176.266H178.046V182.496C178.046 182.944 177.985 183.359 177.864 183.742C177.752 184.134 177.57 184.493 177.318 184.82C177.066 185.147 176.711 185.403 176.254 185.59C175.806 185.777 175.278 185.87 174.672 185.87C173.841 185.87 173.136 185.632 172.558 185.156C171.979 184.689 171.648 184.092 171.564 183.364ZM174.868 181.572C175.437 181.572 175.899 181.376 176.254 180.984C176.608 180.583 176.786 180.06 176.786 179.416C176.786 178.772 176.608 178.254 176.254 177.862C175.899 177.461 175.437 177.26 174.868 177.26C174.289 177.26 173.818 177.456 173.454 177.848C173.099 178.24 172.922 178.763 172.922 179.416C172.922 180.079 173.094 180.606 173.44 180.998C173.794 181.381 174.27 181.572 174.868 181.572ZM181.001 178.94H184.683C184.665 178.436 184.497 178.025 184.179 177.708C183.862 177.381 183.414 177.218 182.835 177.218C182.313 177.218 181.883 177.391 181.547 177.736C181.211 178.072 181.029 178.473 181.001 178.94ZM184.879 180.69L186.013 181.082C185.817 181.707 185.453 182.221 184.921 182.622C184.389 183.014 183.745 183.21 182.989 183.21C182.047 183.21 181.244 182.888 180.581 182.244C179.928 181.591 179.601 180.713 179.601 179.612C179.601 178.585 179.919 177.736 180.553 177.064C181.188 176.392 181.944 176.056 182.821 176.056C183.839 176.056 184.632 176.378 185.201 177.022C185.771 177.657 186.055 178.511 186.055 179.584C186.055 179.752 186.046 179.892 186.027 180.004H180.959C180.969 180.601 181.165 181.091 181.547 181.474C181.939 181.857 182.42 182.048 182.989 182.048C183.951 182.048 184.581 181.595 184.879 180.69ZM189.499 174.138V176.266H190.955V177.456H189.499V180.956C189.499 181.273 189.569 181.507 189.709 181.656C189.859 181.805 190.101 181.88 190.437 181.88C190.633 181.88 190.806 181.861 190.955 181.824V182.944C190.731 183.028 190.433 183.07 190.059 183.07C189.481 183.07 189.023 182.902 188.687 182.566C188.351 182.23 188.183 181.759 188.183 181.152V177.456H186.895V176.266H187.259C187.605 176.266 187.861 176.173 188.029 175.986C188.207 175.79 188.295 175.538 188.295 175.23V174.138H189.499ZM32.7 201.194C32.7 200.615 32.8867 200.153 33.26 199.808C33.6333 199.453 34.128 199.234 34.744 199.15L36.564 198.884C36.9093 198.837 37.082 198.669 37.082 198.38C37.082 198.025 36.9607 197.736 36.718 197.512C36.4753 197.288 36.1113 197.176 35.626 197.176C35.178 197.176 34.8233 197.302 34.562 197.554C34.3007 197.797 34.1467 198.123 34.1 198.534L32.84 198.24C32.9053 197.596 33.1993 197.073 33.722 196.672C34.2447 196.261 34.87 196.056 35.598 196.056C36.55 196.056 37.2547 196.289 37.712 196.756C38.1693 197.213 38.398 197.801 38.398 198.52V201.894C38.398 202.295 38.426 202.664 38.482 203H37.194C37.1473 202.72 37.124 202.417 37.124 202.09C36.9373 202.389 36.662 202.65 36.298 202.874C35.9433 203.098 35.4953 203.21 34.954 203.21C34.2913 203.21 33.75 203.014 33.33 202.622C32.91 202.221 32.7 201.745 32.7 201.194ZM35.136 202.104C35.724 202.104 36.1953 201.945 36.55 201.628C36.9047 201.311 37.082 200.807 37.082 200.116V199.808L35.024 200.116C34.7253 200.163 34.4873 200.27 34.31 200.438C34.1327 200.606 34.044 200.835 34.044 201.124C34.044 201.385 34.142 201.614 34.338 201.81C34.5433 202.006 34.8093 202.104 35.136 202.104ZM41.7501 205.66H40.4481V196.266H41.7221V197.316C41.9181 196.961 42.2121 196.672 42.6041 196.448C42.9961 196.224 43.4535 196.112 43.9761 196.112C44.9468 196.112 45.7028 196.443 46.2441 197.106C46.7948 197.769 47.0701 198.609 47.0701 199.626C47.0701 200.653 46.7855 201.502 46.2161 202.174C45.6561 202.846 44.8955 203.182 43.9341 203.182C43.4395 203.182 43.0008 203.079 42.6181 202.874C42.2355 202.669 41.9461 202.407 41.7501 202.09V205.66ZM45.7261 199.626C45.7261 198.945 45.5441 198.385 45.1801 197.946C44.8255 197.498 44.3448 197.274 43.7381 197.274C43.1408 197.274 42.6555 197.498 42.2821 197.946C41.9181 198.385 41.7361 198.945 41.7361 199.626C41.7361 200.326 41.9181 200.9 42.2821 201.348C42.6555 201.787 43.1408 202.006 43.7381 202.006C44.3355 202.006 44.8161 201.787 45.1801 201.348C45.5441 200.9 45.7261 200.326 45.7261 199.626ZM50.049 205.66H48.747V196.266H50.021V197.316C50.217 196.961 50.511 196.672 50.903 196.448C51.295 196.224 51.7523 196.112 52.275 196.112C53.2456 196.112 54.0016 196.443 54.543 197.106C55.0936 197.769 55.369 198.609 55.369 199.626C55.369 200.653 55.0843 201.502 54.515 202.174C53.955 202.846 53.1943 203.182 52.233 203.182C51.7383 203.182 51.2996 203.079 50.917 202.874C50.5343 202.669 50.245 202.407 50.049 202.09V205.66ZM54.025 199.626C54.025 198.945 53.843 198.385 53.479 197.946C53.1243 197.498 52.6436 197.274 52.037 197.274C51.4396 197.274 50.9543 197.498 50.581 197.946C50.217 198.385 50.035 198.945 50.035 199.626C50.035 200.326 50.217 200.9 50.581 201.348C50.9543 201.787 51.4396 202.006 52.037 202.006C52.6343 202.006 53.115 201.787 53.479 201.348C53.843 200.9 54.025 200.326 54.025 199.626ZM60.7838 196.196V197.596C60.5878 197.568 60.3964 197.554 60.2098 197.554C58.9778 197.554 58.3618 198.245 58.3618 199.626V203H57.0458V196.266H58.3338V197.442C58.7444 196.583 59.4164 196.154 60.3498 196.154C60.4991 196.154 60.6438 196.168 60.7838 196.196ZM63.504 201.404C63.9147 201.824 64.414 202.034 65.002 202.034C65.59 202.034 66.0847 201.824 66.486 201.404C66.8967 200.975 67.102 200.382 67.102 199.626C67.102 198.879 66.8967 198.296 66.486 197.876C66.0847 197.447 65.59 197.232 65.002 197.232C64.414 197.232 63.9147 197.447 63.504 197.876C63.1027 198.296 62.902 198.879 62.902 199.626C62.902 200.382 63.1027 200.975 63.504 201.404ZM62.524 197.078C63.1774 196.397 64.0034 196.056 65.002 196.056C66.0007 196.056 66.822 196.397 67.466 197.078C68.1194 197.75 68.446 198.599 68.446 199.626C68.446 200.662 68.124 201.521 67.48 202.202C66.836 202.874 66.01 203.21 65.002 203.21C63.994 203.21 63.168 202.874 62.524 202.202C61.88 201.521 61.558 200.662 61.558 199.626C61.558 198.599 61.88 197.75 62.524 197.078ZM75.6927 196.266L73.0047 203H71.6747L68.9447 196.266H70.4287L72.3467 201.46L74.2787 196.266H75.6927ZM76.4637 201.194C76.4637 200.615 76.6503 200.153 77.0237 199.808C77.397 199.453 77.8917 199.234 78.5077 199.15L80.3277 198.884C80.673 198.837 80.8457 198.669 80.8457 198.38C80.8457 198.025 80.7243 197.736 80.4817 197.512C80.239 197.288 79.875 197.176 79.3897 197.176C78.9417 197.176 78.587 197.302 78.3257 197.554C78.0643 197.797 77.9103 198.123 77.8637 198.534L76.6037 198.24C76.669 197.596 76.963 197.073 77.4857 196.672C78.0083 196.261 78.6337 196.056 79.3617 196.056C80.3137 196.056 81.0183 196.289 81.4757 196.756C81.933 197.213 82.1617 197.801 82.1617 198.52V201.894C82.1617 202.295 82.1897 202.664 82.2457 203H80.9577C80.911 202.72 80.8877 202.417 80.8877 202.09C80.701 202.389 80.4257 202.65 80.0617 202.874C79.707 203.098 79.259 203.21 78.7177 203.21C78.055 203.21 77.5137 203.014 77.0937 202.622C76.6737 202.221 76.4637 201.745 76.4637 201.194ZM78.8997 202.104C79.4877 202.104 79.959 201.945 80.3137 201.628C80.6683 201.311 80.8457 200.807 80.8457 200.116V199.808L78.7877 200.116C78.489 200.163 78.251 200.27 78.0737 200.438C77.8963 200.606 77.8077 200.835 77.8077 201.124C77.8077 201.385 77.9057 201.614 78.1017 201.81C78.307 202.006 78.573 202.104 78.8997 202.104ZM85.5278 203H84.2118V192.864H85.5278V203ZM87.1365 201.25L88.3265 200.83C88.3732 201.194 88.5318 201.497 88.8025 201.74C89.0732 201.973 89.4372 202.09 89.8945 202.09C90.2492 202.09 90.5292 202.006 90.7345 201.838C90.9398 201.661 91.0425 201.446 91.0425 201.194C91.0425 200.746 90.7532 200.457 90.1745 200.326L89.0265 200.074C88.5038 199.962 88.0932 199.738 87.7945 199.402C87.4958 199.066 87.3465 198.66 87.3465 198.184C87.3465 197.605 87.5798 197.106 88.0465 196.686C88.5225 196.266 89.0872 196.056 89.7405 196.056C90.1698 196.056 90.5525 196.121 90.8885 196.252C91.2245 196.373 91.4858 196.537 91.6725 196.742C91.8592 196.947 91.9992 197.139 92.0925 197.316C92.1858 197.493 92.2558 197.675 92.3025 197.862L91.1405 198.296C91.1218 198.184 91.0892 198.077 91.0425 197.974C90.9958 197.862 90.9212 197.741 90.8185 197.61C90.7252 197.479 90.5852 197.377 90.3985 197.302C90.2118 197.218 89.9925 197.176 89.7405 197.176C89.4138 197.176 89.1432 197.265 88.9285 197.442C88.7232 197.619 88.6205 197.829 88.6205 198.072C88.6205 198.501 88.8772 198.772 89.3905 198.884L90.4825 199.122C91.0798 199.253 91.5372 199.495 91.8545 199.85C92.1812 200.195 92.3445 200.62 92.3445 201.124C92.3445 201.656 92.1252 202.137 91.6865 202.566C91.2572 202.995 90.6552 203.21 89.8805 203.21C89.0498 203.21 88.4012 203.005 87.9345 202.594C87.4678 202.174 87.2018 201.726 87.1365 201.25ZM93.9566 202.104C93.9566 201.852 94.0546 201.633 94.2506 201.446C94.4466 201.259 94.6892 201.166 94.9786 201.166C95.2959 201.166 95.5619 201.283 95.7766 201.516C96.0006 201.749 96.1126 202.076 96.1126 202.496C96.1126 203.336 95.8979 203.985 95.4686 204.442C95.0392 204.899 94.5632 205.161 94.0406 205.226V204.498C94.3766 204.423 94.6519 204.237 94.8666 203.938C95.0812 203.649 95.1932 203.331 95.2026 202.986C95.1372 203.033 95.0346 203.056 94.8946 203.056C94.6239 203.056 94.3999 202.972 94.2226 202.804C94.0452 202.627 93.9566 202.393 93.9566 202.104ZM101.292 201.194C101.292 200.615 101.478 200.153 101.852 199.808C102.225 199.453 102.72 199.234 103.336 199.15L105.156 198.884C105.501 198.837 105.674 198.669 105.674 198.38C105.674 198.025 105.552 197.736 105.31 197.512C105.067 197.288 104.703 197.176 104.218 197.176C103.77 197.176 103.415 197.302 103.154 197.554C102.892 197.797 102.738 198.123 102.692 198.534L101.432 198.24C101.497 197.596 101.791 197.073 102.314 196.672C102.836 196.261 103.462 196.056 104.19 196.056C105.142 196.056 105.846 196.289 106.304 196.756C106.761 197.213 106.99 197.801 106.99 198.52V201.894C106.99 202.295 107.018 202.664 107.074 203H105.786C105.739 202.72 105.716 202.417 105.716 202.09C105.529 202.389 105.254 202.65 104.89 202.874C104.535 203.098 104.087 203.21 103.546 203.21C102.883 203.21 102.342 203.014 101.922 202.622C101.502 202.221 101.292 201.745 101.292 201.194ZM103.728 202.104C104.316 202.104 104.787 201.945 105.142 201.628C105.496 201.311 105.674 200.807 105.674 200.116V199.808L103.616 200.116C103.317 200.163 103.079 200.27 102.902 200.438C102.724 200.606 102.636 200.835 102.636 201.124C102.636 201.385 102.734 201.614 102.93 201.81C103.135 202.006 103.401 202.104 103.728 202.104ZM110.356 199.108V203H109.04V196.266H110.328V197.232C110.776 196.457 111.467 196.07 112.4 196.07C113.175 196.07 113.767 196.317 114.178 196.812C114.598 197.307 114.808 197.946 114.808 198.73V203H113.492V198.954C113.492 197.825 112.969 197.26 111.924 197.26C111.429 197.26 111.042 197.437 110.762 197.792C110.491 198.137 110.356 198.576 110.356 199.108ZM117.685 199.612C117.685 200.321 117.858 200.9 118.203 201.348C118.558 201.796 119.043 202.02 119.659 202.02C120.247 202.02 120.719 201.791 121.073 201.334C121.428 200.877 121.605 200.293 121.605 199.584C121.605 198.884 121.433 198.319 121.087 197.89C120.742 197.461 120.271 197.246 119.673 197.246C119.076 197.246 118.595 197.465 118.231 197.904C117.867 198.343 117.685 198.912 117.685 199.612ZM121.619 202.09V201.978C121.442 202.323 121.171 202.613 120.807 202.846C120.453 203.07 120.028 203.182 119.533 203.182C118.572 203.182 117.797 202.846 117.209 202.174C116.631 201.493 116.341 200.639 116.341 199.612C116.341 198.632 116.64 197.801 117.237 197.12C117.835 196.429 118.6 196.084 119.533 196.084C120.084 196.084 120.532 196.196 120.877 196.42C121.223 196.635 121.461 196.901 121.591 197.218V192.864H122.893V201.754C122.893 202.211 122.917 202.627 122.963 203H121.689C121.643 202.739 121.619 202.435 121.619 202.09ZM129.948 199.038V203H128.632V192.864H129.948V197.05C130.396 196.397 131.077 196.07 131.992 196.07C132.766 196.07 133.359 196.317 133.77 196.812C134.19 197.307 134.4 197.946 134.4 198.73V203H133.084V198.954C133.084 197.825 132.561 197.26 131.516 197.26C131.03 197.26 130.652 197.428 130.382 197.764C130.111 198.091 129.966 198.515 129.948 199.038ZM136.073 201.194C136.073 200.615 136.26 200.153 136.633 199.808C137.006 199.453 137.501 199.234 138.117 199.15L139.937 198.884C140.282 198.837 140.455 198.669 140.455 198.38C140.455 198.025 140.334 197.736 140.091 197.512C139.848 197.288 139.484 197.176 138.999 197.176C138.551 197.176 138.196 197.302 137.935 197.554C137.674 197.797 137.52 198.123 137.473 198.534L136.213 198.24C136.278 197.596 136.572 197.073 137.095 196.672C137.618 196.261 138.243 196.056 138.971 196.056C139.923 196.056 140.628 196.289 141.085 196.756C141.542 197.213 141.771 197.801 141.771 198.52V201.894C141.771 202.295 141.799 202.664 141.855 203H140.567C140.52 202.72 140.497 202.417 140.497 202.09C140.31 202.389 140.035 202.65 139.671 202.874C139.316 203.098 138.868 203.21 138.327 203.21C137.664 203.21 137.123 203.014 136.703 202.622C136.283 202.221 136.073 201.745 136.073 201.194ZM138.509 202.104C139.097 202.104 139.568 201.945 139.923 201.628C140.278 201.311 140.455 200.807 140.455 200.116V199.808L138.397 200.116C138.098 200.163 137.86 200.27 137.683 200.438C137.506 200.606 137.417 200.835 137.417 201.124C137.417 201.385 137.515 201.614 137.711 201.81C137.916 202.006 138.182 202.104 138.509 202.104ZM149.589 196.266L146.901 203H145.571L142.841 196.266H144.325L146.243 201.46L148.175 196.266H149.589ZM151.497 198.94H155.179C155.161 198.436 154.993 198.025 154.675 197.708C154.358 197.381 153.91 197.218 153.331 197.218C152.809 197.218 152.379 197.391 152.043 197.736C151.707 198.072 151.525 198.473 151.497 198.94ZM155.375 200.69L156.509 201.082C156.313 201.707 155.949 202.221 155.417 202.622C154.885 203.014 154.241 203.21 153.485 203.21C152.543 203.21 151.74 202.888 151.077 202.244C150.424 201.591 150.097 200.713 150.097 199.612C150.097 198.585 150.415 197.736 151.049 197.064C151.684 196.392 152.44 196.056 153.317 196.056C154.335 196.056 155.128 196.378 155.697 197.022C156.267 197.657 156.551 198.511 156.551 199.584C156.551 199.752 156.542 199.892 156.523 200.004H151.455C151.465 200.601 151.661 201.091 152.043 201.474C152.435 201.857 152.916 202.048 153.485 202.048C154.447 202.048 155.077 201.595 155.375 200.69ZM161.311 201.194C161.311 200.615 161.498 200.153 161.871 199.808C162.245 199.453 162.739 199.234 163.355 199.15L165.175 198.884C165.521 198.837 165.693 198.669 165.693 198.38C165.693 198.025 165.572 197.736 165.329 197.512C165.087 197.288 164.723 197.176 164.237 197.176C163.789 197.176 163.435 197.302 163.173 197.554C162.912 197.797 162.758 198.123 162.711 198.534L161.451 198.24C161.517 197.596 161.811 197.073 162.333 196.672C162.856 196.261 163.481 196.056 164.209 196.056C165.161 196.056 165.866 196.289 166.323 196.756C166.781 197.213 167.009 197.801 167.009 198.52V201.894C167.009 202.295 167.037 202.664 167.093 203H165.805C165.759 202.72 165.735 202.417 165.735 202.09C165.549 202.389 165.273 202.65 164.909 202.874C164.555 203.098 164.107 203.21 163.565 203.21C162.903 203.21 162.361 203.014 161.941 202.622C161.521 202.221 161.311 201.745 161.311 201.194ZM163.747 202.104C164.335 202.104 164.807 201.945 165.161 201.628C165.516 201.311 165.693 200.807 165.693 200.116V199.808L163.635 200.116C163.337 200.163 163.099 200.27 162.921 200.438C162.744 200.606 162.655 200.835 162.655 201.124C162.655 201.385 162.753 201.614 162.949 201.81C163.155 202.006 163.421 202.104 163.747 202.104ZM171.887 197.274C171.318 197.274 170.833 197.479 170.431 197.89C170.039 198.301 169.843 198.879 169.843 199.626C169.843 200.363 170.039 200.942 170.431 201.362C170.833 201.782 171.323 201.992 171.901 201.992C172.461 201.992 172.886 201.852 173.175 201.572C173.474 201.292 173.675 200.97 173.777 200.606L174.939 201.11C174.753 201.67 174.398 202.16 173.875 202.58C173.362 203 172.704 203.21 171.901 203.21C170.921 203.21 170.109 202.869 169.465 202.188C168.821 201.507 168.499 200.653 168.499 199.626C168.499 198.581 168.821 197.727 169.465 197.064C170.109 196.392 170.917 196.056 171.887 196.056C172.709 196.056 173.371 196.266 173.875 196.686C174.389 197.106 174.725 197.61 174.883 198.198L173.693 198.702C173.591 198.31 173.395 197.974 173.105 197.694C172.816 197.414 172.41 197.274 171.887 197.274ZM179.243 197.274C178.674 197.274 178.188 197.479 177.787 197.89C177.395 198.301 177.199 198.879 177.199 199.626C177.199 200.363 177.395 200.942 177.787 201.362C178.188 201.782 178.678 201.992 179.257 201.992C179.817 201.992 180.242 201.852 180.531 201.572C180.83 201.292 181.03 200.97 181.133 200.606L182.295 201.11C182.108 201.67 181.754 202.16 181.231 202.58C180.718 203 180.06 203.21 179.257 203.21C178.277 203.21 177.465 202.869 176.821 202.188C176.177 201.507 175.855 200.653 175.855 199.626C175.855 198.581 176.177 197.727 176.821 197.064C177.465 196.392 178.272 196.056 179.243 196.056C180.064 196.056 180.727 196.266 181.231 196.686C181.744 197.106 182.08 197.61 182.239 198.198L181.049 198.702C180.946 198.31 180.75 197.974 180.461 197.694C180.172 197.414 179.766 197.274 179.243 197.274ZM184.624 198.94H188.306C188.288 198.436 188.12 198.025 187.802 197.708C187.485 197.381 187.037 197.218 186.458 197.218C185.936 197.218 185.506 197.391 185.17 197.736C184.834 198.072 184.652 198.473 184.624 198.94ZM188.502 200.69L189.636 201.082C189.44 201.707 189.076 202.221 188.544 202.622C188.012 203.014 187.368 203.21 186.612 203.21C185.67 203.21 184.867 202.888 184.204 202.244C183.551 201.591 183.224 200.713 183.224 199.612C183.224 198.585 183.542 197.736 184.176 197.064C184.811 196.392 185.567 196.056 186.444 196.056C187.462 196.056 188.255 196.378 188.824 197.022C189.394 197.657 189.678 198.511 189.678 199.584C189.678 199.752 189.669 199.892 189.65 200.004H184.582C184.592 200.601 184.788 201.091 185.17 201.474C185.562 201.857 186.043 202.048 186.612 202.048C187.574 202.048 188.204 201.595 188.502 200.69ZM190.728 201.25L191.918 200.83C191.965 201.194 192.124 201.497 192.394 201.74C192.665 201.973 193.029 202.09 193.486 202.09C193.841 202.09 194.121 202.006 194.326 201.838C194.532 201.661 194.634 201.446 194.634 201.194C194.634 200.746 194.345 200.457 193.766 200.326L192.618 200.074C192.096 199.962 191.685 199.738 191.386 199.402C191.088 199.066 190.938 198.66 190.938 198.184C190.938 197.605 191.172 197.106 191.638 196.686C192.114 196.266 192.679 196.056 193.332 196.056C193.762 196.056 194.144 196.121 194.48 196.252C194.816 196.373 195.078 196.537 195.264 196.742C195.451 196.947 195.591 197.139 195.684 197.316C195.778 197.493 195.848 197.675 195.894 197.862L194.732 198.296C194.714 198.184 194.681 198.077 194.634 197.974C194.588 197.862 194.513 197.741 194.41 197.61C194.317 197.479 194.177 197.377 193.99 197.302C193.804 197.218 193.584 197.176 193.332 197.176C193.006 197.176 192.735 197.265 192.52 197.442C192.315 197.619 192.212 197.829 192.212 198.072C192.212 198.501 192.469 198.772 192.982 198.884L194.074 199.122C194.672 199.253 195.129 199.495 195.446 199.85C195.773 200.195 195.936 200.62 195.936 201.124C195.936 201.656 195.717 202.137 195.278 202.566C194.849 202.995 194.247 203.21 193.472 203.21C192.642 203.21 191.993 203.005 191.526 202.594C191.06 202.174 190.794 201.726 190.728 201.25ZM197.058 201.25L198.248 200.83C198.295 201.194 198.454 201.497 198.724 201.74C198.995 201.973 199.359 202.09 199.816 202.09C200.171 202.09 200.451 202.006 200.656 201.838C200.862 201.661 200.964 201.446 200.964 201.194C200.964 200.746 200.675 200.457 200.096 200.326L198.948 200.074C198.426 199.962 198.015 199.738 197.716 199.402C197.418 199.066 197.268 198.66 197.268 198.184C197.268 197.605 197.502 197.106 197.968 196.686C198.444 196.266 199.009 196.056 199.662 196.056C200.092 196.056 200.474 196.121 200.81 196.252C201.146 196.373 201.408 196.537 201.594 196.742C201.781 196.947 201.921 197.139 202.014 197.316C202.108 197.493 202.178 197.675 202.224 197.862L201.062 198.296C201.044 198.184 201.011 198.077 200.964 197.974C200.918 197.862 200.843 197.741 200.74 197.61C200.647 197.479 200.507 197.377 200.32 197.302C200.134 197.218 199.914 197.176 199.662 197.176C199.336 197.176 199.065 197.265 198.85 197.442C198.645 197.619 198.542 197.829 198.542 198.072C198.542 198.501 198.799 198.772 199.312 198.884L200.404 199.122C201.002 199.253 201.459 199.495 201.776 199.85C202.103 200.195 202.266 200.62 202.266 201.124C202.266 201.656 202.047 202.137 201.608 202.566C201.179 202.995 200.577 203.21 199.802 203.21C198.972 203.21 198.323 203.005 197.856 202.594C197.39 202.174 197.124 201.726 197.058 201.25ZM209.282 194.138V196.266H210.738V197.456H209.282V200.956C209.282 201.273 209.352 201.507 209.492 201.656C209.642 201.805 209.884 201.88 210.22 201.88C210.416 201.88 210.589 201.861 210.738 201.824V202.944C210.514 203.028 210.216 203.07 209.842 203.07C209.264 203.07 208.806 202.902 208.47 202.566C208.134 202.23 207.966 201.759 207.966 201.152V197.456H206.678V196.266H207.042C207.388 196.266 207.644 196.173 207.812 195.986C207.99 195.79 208.078 195.538 208.078 195.23V194.138H209.282ZM213.813 201.404C214.223 201.824 214.723 202.034 215.311 202.034C215.899 202.034 216.393 201.824 216.795 201.404C217.205 200.975 217.411 200.382 217.411 199.626C217.411 198.879 217.205 198.296 216.795 197.876C216.393 197.447 215.899 197.232 215.311 197.232C214.723 197.232 214.223 197.447 213.813 197.876C213.411 198.296 213.211 198.879 213.211 199.626C213.211 200.382 213.411 200.975 213.813 201.404ZM212.833 197.078C213.486 196.397 214.312 196.056 215.311 196.056C216.309 196.056 217.131 196.397 217.775 197.078C218.428 197.75 218.755 198.599 218.755 199.626C218.755 200.662 218.433 201.521 217.789 202.202C217.145 202.874 216.319 203.21 215.311 203.21C214.303 203.21 213.477 202.874 212.833 202.202C212.189 201.521 211.867 200.662 211.867 199.626C211.867 198.599 212.189 197.75 212.833 197.078ZM34.884 214.138V216.266H36.34V217.456H34.884V220.956C34.884 221.273 34.954 221.507 35.094 221.656C35.2433 221.805 35.486 221.88 35.822 221.88C36.018 221.88 36.1907 221.861 36.34 221.824V222.944C36.116 223.028 35.8173 223.07 35.444 223.07C34.8653 223.07 34.408 222.902 34.072 222.566C33.736 222.23 33.568 221.759 33.568 221.152V217.456H32.28V216.266H32.644C32.9893 216.266 33.246 216.173 33.414 215.986C33.5913 215.79 33.68 215.538 33.68 215.23V214.138H34.884ZM41.6978 216.196V217.596C41.5018 217.568 41.3105 217.554 41.1238 217.554C39.8918 217.554 39.2758 218.245 39.2758 219.626V223H37.9598V216.266H39.2478V217.442C39.6585 216.583 40.3305 216.154 41.2638 216.154C41.4132 216.154 41.5578 216.168 41.6978 216.196ZM42.6805 221.194C42.6805 220.615 42.8671 220.153 43.2405 219.808C43.6138 219.453 44.1085 219.234 44.7245 219.15L46.5445 218.884C46.8898 218.837 47.0625 218.669 47.0625 218.38C47.0625 218.025 46.9411 217.736 46.6985 217.512C46.4558 217.288 46.0918 217.176 45.6065 217.176C45.1585 217.176 44.8038 217.302 44.5425 217.554C44.2811 217.797 44.1271 218.123 44.0805 218.534L42.8205 218.24C42.8858 217.596 43.1798 217.073 43.7025 216.672C44.2251 216.261 44.8505 216.056 45.5785 216.056C46.5305 216.056 47.2351 216.289 47.6925 216.756C48.1498 217.213 48.3785 217.801 48.3785 218.52V221.894C48.3785 222.295 48.4065 222.664 48.4625 223H47.1745C47.1278 222.72 47.1045 222.417 47.1045 222.09C46.9178 222.389 46.6425 222.65 46.2785 222.874C45.9238 223.098 45.4758 223.21 44.9345 223.21C44.2718 223.21 43.7305 223.014 43.3105 222.622C42.8905 222.221 42.6805 221.745 42.6805 221.194ZM45.1165 222.104C45.7045 222.104 46.1758 221.945 46.5305 221.628C46.8851 221.311 47.0625 220.807 47.0625 220.116V219.808L45.0045 220.116C44.7058 220.163 44.4678 220.27 44.2905 220.438C44.1131 220.606 44.0245 220.835 44.0245 221.124C44.0245 221.385 44.1225 221.614 44.3185 221.81C44.5238 222.006 44.7898 222.104 45.1165 222.104ZM56.1966 216.266L53.5086 223H52.1786L49.4486 216.266H50.9326L52.8506 221.46L54.7826 216.266H56.1966ZM58.1049 218.94H61.7869C61.7682 218.436 61.6002 218.025 61.2829 217.708C60.9655 217.381 60.5175 217.218 59.9389 217.218C59.4162 217.218 58.9869 217.391 58.6509 217.736C58.3149 218.072 58.1329 218.473 58.1049 218.94ZM61.9829 220.69L63.1169 221.082C62.9209 221.707 62.5569 222.221 62.0249 222.622C61.4929 223.014 60.8489 223.21 60.0929 223.21C59.1502 223.21 58.3475 222.888 57.6849 222.244C57.0315 221.591 56.7049 220.713 56.7049 219.612C56.7049 218.585 57.0222 217.736 57.6569 217.064C58.2915 216.392 59.0475 216.056 59.9249 216.056C60.9422 216.056 61.7355 216.378 62.3049 217.022C62.8742 217.657 63.1589 218.511 63.1589 219.584C63.1589 219.752 63.1495 219.892 63.1309 220.004H58.0629C58.0722 220.601 58.2682 221.091 58.6509 221.474C59.0429 221.857 59.5235 222.048 60.0929 222.048C61.0542 222.048 61.6842 221.595 61.9829 220.69ZM66.1548 223H64.8388V212.864H66.1548V223ZM73.1954 223H71.8934V216.266H73.1954V223ZM71.8654 214.39C71.6881 214.203 71.5994 213.979 71.5994 213.718C71.5994 213.457 71.6881 213.233 71.8654 213.046C72.0521 212.859 72.2761 212.766 72.5374 212.766C72.7988 212.766 73.0228 212.859 73.2094 213.046C73.3961 213.223 73.4894 213.447 73.4894 213.718C73.4894 213.979 73.3961 214.203 73.2094 214.39C73.0228 214.567 72.7988 214.656 72.5374 214.656C72.2761 214.656 72.0521 214.567 71.8654 214.39ZM76.7505 219.108V223H75.4345V216.266H76.7225V217.232C77.1705 216.457 77.8611 216.07 78.7945 216.07C79.5691 216.07 80.1618 216.317 80.5725 216.812C80.9925 217.307 81.2025 217.946 81.2025 218.73V223H79.8865V218.954C79.8865 217.825 79.3638 217.26 78.3185 217.26C77.8238 217.26 77.4365 217.437 77.1565 217.792C76.8858 218.137 76.7505 218.576 76.7505 219.108ZM86.6838 217.456H85.0598V223H83.7018V217.456H82.4558V216.266H83.7018V215.132C83.7018 214.413 83.9118 213.849 84.3318 213.438C84.7518 213.027 85.2791 212.822 85.9138 212.822C86.3151 212.822 86.5764 212.869 86.6978 212.962V214.138C86.5578 214.082 86.3664 214.054 86.1238 214.054C85.8344 214.054 85.5824 214.143 85.3678 214.32C85.1624 214.488 85.0598 214.782 85.0598 215.202V216.266H86.6838V217.456ZM89.2072 221.404C89.6178 221.824 90.1172 222.034 90.7052 222.034C91.2932 222.034 91.7878 221.824 92.1892 221.404C92.5998 220.975 92.8052 220.382 92.8052 219.626C92.8052 218.879 92.5998 218.296 92.1892 217.876C91.7878 217.447 91.2932 217.232 90.7052 217.232C90.1172 217.232 89.6178 217.447 89.2072 217.876C88.8058 218.296 88.6052 218.879 88.6052 219.626C88.6052 220.382 88.8058 220.975 89.2072 221.404ZM88.2272 217.078C88.8805 216.397 89.7065 216.056 90.7052 216.056C91.7038 216.056 92.5252 216.397 93.1692 217.078C93.8225 217.75 94.1492 218.599 94.1492 219.626C94.1492 220.662 93.8272 221.521 93.1832 222.202C92.5392 222.874 91.7132 223.21 90.7052 223.21C89.6972 223.21 88.8712 222.874 88.2272 222.202C87.5832 221.521 87.2612 220.662 87.2612 219.626C87.2612 218.599 87.5832 217.75 88.2272 217.078ZM99.5709 216.196V217.596C99.3749 217.568 99.1836 217.554 98.9969 217.554C97.7649 217.554 97.1489 218.245 97.1489 219.626V223H95.8329V216.266H97.1209V217.442C97.5316 216.583 98.2036 216.154 99.1369 216.154C99.2862 216.154 99.4309 216.168 99.5709 216.196ZM102.276 223H100.974V216.266H102.234V217.162C102.439 216.807 102.728 216.537 103.102 216.35C103.475 216.163 103.867 216.07 104.278 216.07C104.716 216.07 105.118 216.177 105.482 216.392C105.846 216.607 106.116 216.924 106.294 217.344C106.76 216.495 107.512 216.07 108.548 216.07C109.192 216.07 109.738 216.289 110.186 216.728C110.643 217.167 110.872 217.801 110.872 218.632V223H109.57V218.772C109.57 218.305 109.448 217.932 109.206 217.652C108.972 217.372 108.618 217.232 108.142 217.232C107.684 217.232 107.311 217.395 107.022 217.722C106.732 218.039 106.588 218.441 106.588 218.926V223H105.272V218.772C105.272 218.305 105.15 217.932 104.908 217.652C104.674 217.372 104.32 217.232 103.844 217.232C103.377 217.232 102.999 217.391 102.71 217.708C102.42 218.025 102.276 218.436 102.276 218.94V223ZM112.557 221.194C112.557 220.615 112.744 220.153 113.117 219.808C113.491 219.453 113.985 219.234 114.601 219.15L116.421 218.884C116.767 218.837 116.939 218.669 116.939 218.38C116.939 218.025 116.818 217.736 116.575 217.512C116.333 217.288 115.969 217.176 115.483 217.176C115.035 217.176 114.681 217.302 114.419 217.554C114.158 217.797 114.004 218.123 113.957 218.534L112.697 218.24C112.763 217.596 113.057 217.073 113.579 216.672C114.102 216.261 114.727 216.056 115.455 216.056C116.407 216.056 117.112 216.289 117.569 216.756C118.027 217.213 118.255 217.801 118.255 218.52V221.894C118.255 222.295 118.283 222.664 118.339 223H117.051C117.005 222.72 116.981 222.417 116.981 222.09C116.795 222.389 116.519 222.65 116.155 222.874C115.801 223.098 115.353 223.21 114.811 223.21C114.149 223.21 113.607 223.014 113.187 222.622C112.767 222.221 112.557 221.745 112.557 221.194ZM114.993 222.104C115.581 222.104 116.053 221.945 116.407 221.628C116.762 221.311 116.939 220.807 116.939 220.116V219.808L114.881 220.116C114.583 220.163 114.345 220.27 114.167 220.438C113.99 220.606 113.901 220.835 113.901 221.124C113.901 221.385 113.999 221.614 114.195 221.81C114.401 222.006 114.667 222.104 114.993 222.104ZM122.07 214.138V216.266H123.526V217.456H122.07V220.956C122.07 221.273 122.14 221.507 122.28 221.656C122.429 221.805 122.672 221.88 123.008 221.88C123.204 221.88 123.376 221.861 123.526 221.824V222.944C123.302 223.028 123.003 223.07 122.63 223.07C122.051 223.07 121.594 222.902 121.258 222.566C120.922 222.23 120.754 221.759 120.754 221.152V217.456H119.466V216.266H119.83C120.175 216.266 120.432 216.173 120.6 215.986C120.777 215.79 120.866 215.538 120.866 215.23V214.138H122.07ZM126.584 223H125.282V216.266H126.584V223ZM125.254 214.39C125.077 214.203 124.988 213.979 124.988 213.718C124.988 213.457 125.077 213.233 125.254 213.046C125.441 212.859 125.665 212.766 125.926 212.766C126.187 212.766 126.411 212.859 126.598 213.046C126.785 213.223 126.878 213.447 126.878 213.718C126.878 213.979 126.785 214.203 126.598 214.39C126.411 214.567 126.187 214.656 125.926 214.656C125.665 214.656 125.441 214.567 125.254 214.39ZM130.209 221.404C130.62 221.824 131.119 222.034 131.707 222.034C132.295 222.034 132.79 221.824 133.191 221.404C133.602 220.975 133.807 220.382 133.807 219.626C133.807 218.879 133.602 218.296 133.191 217.876C132.79 217.447 132.295 217.232 131.707 217.232C131.119 217.232 130.62 217.447 130.209 217.876C129.808 218.296 129.607 218.879 129.607 219.626C129.607 220.382 129.808 220.975 130.209 221.404ZM129.229 217.078C129.882 216.397 130.708 216.056 131.707 216.056C132.706 216.056 133.527 216.397 134.171 217.078C134.824 217.75 135.151 218.599 135.151 219.626C135.151 220.662 134.829 221.521 134.185 222.202C133.541 222.874 132.715 223.21 131.707 223.21C130.699 223.21 129.873 222.874 129.229 222.202C128.585 221.521 128.263 220.662 128.263 219.626C128.263 218.599 128.585 217.75 129.229 217.078ZM138.151 219.108V223H136.835V216.266H138.123V217.232C138.571 216.457 139.262 216.07 140.195 216.07C140.97 216.07 141.562 216.317 141.973 216.812C142.393 217.307 142.603 217.946 142.603 218.73V223H141.287V218.954C141.287 217.825 140.764 217.26 139.719 217.26C139.224 217.26 138.837 217.437 138.557 217.792C138.286 218.137 138.151 218.576 138.151 219.108ZM144.836 222.79C144.65 222.603 144.556 222.375 144.556 222.104C144.556 221.833 144.65 221.605 144.836 221.418C145.023 221.222 145.252 221.124 145.522 221.124C145.793 221.124 146.022 221.222 146.208 221.418C146.404 221.605 146.502 221.833 146.502 222.104C146.502 222.375 146.404 222.603 146.208 222.79C146.022 222.977 145.793 223.07 145.522 223.07C145.252 223.07 145.023 222.977 144.836 222.79Z" fill="#5E6C84"/>
<defs>
<clipPath id="clip0_1_521">
<rect width="32" height="32" fill="white" transform="translate(48 48)"/>
</clipPath>
</defs>
</svg>
